<svg width="120" height="120" viewBox="0 0 120 120" fill="none" xmlns="http://www.w3.org/2000/svg">
<circle cx="60" cy="60" r="60" fill="#C69459"/>
<circle cx="60" cy="60" r="30" fill="white"/>
<g clip-path="url(#clip0_240_58)">
<path fill-rule="evenodd" clip-rule="evenodd" d="M65.2964 52.8064C63.3568 54.7461 59.7484 54.6732 57.7272 52.652L56.8984 51.8232L55.3073 53.4144L56.136 54.2431C57.6062 55.7133 59.6041 56.4733 61.5882 56.5146L51.7716 66.3312L53.4291 67.9887L63.2457 58.1721C63.287 60.1562 64.047 62.1541 65.5172 63.6243L66.3459 64.453L67.937 62.8618L67.1083 62.0331C65.0871 60.0119 65.0142 56.4035 66.9539 54.4639L67.7494 53.6683L66.092 52.0109L65.2964 52.8064Z" fill="#C69459"/>
</g>
<path d="M61.7073 19.1099L63.3433 9.23047L66.0053 9.66772L67.8631 14.8749L71.2734 10.533L73.8373 10.9542L72.2014 20.8336L70.1978 20.5045L71.3925 13.2903L67.7468 17.8372L66.9341 17.7037L64.9055 12.2248L63.7108 19.439L61.7073 19.1099Z" fill="white"/>
<path d="M77.5867 23.3712C76.9032 23.0463 76.3703 22.6259 75.9882 22.11C75.6101 21.5856 75.4024 21.0011 75.3651 20.3565C75.3318 19.7035 75.4844 19.0238 75.8228 18.3176C76.1694 17.5943 76.608 17.0401 77.1386 16.6551C77.6819 16.2656 78.2771 16.0522 78.9243 16.0151C79.5715 15.9779 80.2283 16.1177 80.8947 16.4344C81.5782 16.7593 82.1026 17.1861 82.4681 17.715C82.8336 18.2439 83.0329 18.8349 83.0661 19.4879C83.0994 20.141 82.9427 20.8292 82.5962 21.5524C82.2578 22.2587 81.8232 22.8043 81.2926 23.1894C80.7746 23.57 80.1983 23.7767 79.5637 23.8094C78.9377 23.8461 78.2787 23.7001 77.5867 23.3712ZM78.3438 21.7252C78.7368 21.912 79.0937 21.9772 79.4145 21.9207C79.7353 21.8642 80.0121 21.7242 80.2451 21.5006C80.4908 21.2726 80.6869 21.0054 80.8337 20.6991C80.9805 20.3928 81.0656 20.0728 81.0891 19.7392C81.1211 19.4097 81.0603 19.0988 80.9067 18.8064C80.7657 18.5095 80.4945 18.2657 80.0929 18.0748C79.7085 17.8921 79.3518 17.8375 79.0228 17.911C78.698 17.976 78.4128 18.1225 78.1672 18.3505C77.9301 18.5826 77.7382 18.8518 77.5914 19.1581C77.4405 19.4729 77.3511 19.7909 77.3232 20.1119C77.3038 20.437 77.3729 20.7414 77.5306 21.0253C77.6883 21.3092 77.9594 21.5425 78.3438 21.7252Z" fill="white"/>
<path d="M82.8206 26.1319L87.2599 20.1318L88.7003 21.1888L88.2725 21.9816C88.5934 21.8658 88.8912 21.8208 89.166 21.8468C89.4463 21.8652 89.7035 21.9309 89.9373 22.044C90.1768 22.1494 90.4032 22.2805 90.6166 22.4371C90.7157 22.5098 90.8043 22.5807 90.8825 22.6498C90.9664 22.7113 91.0273 22.7561 91.0654 22.7841L89.9282 24.3211L89.551 24.0442C89.1928 23.7814 88.8354 23.6128 88.4788 23.5384C88.1222 23.4641 87.7761 23.5029 87.4403 23.6547C87.1122 23.8121 86.7993 24.0919 86.5017 24.4942L84.4211 27.3064L82.8206 26.1319Z" fill="white"/>
<path d="M89.9909 32.3488C89.4547 31.7768 89.1135 31.1848 88.9671 30.5727C88.8208 29.9607 88.8551 29.3548 89.07 28.7551C89.2918 28.149 89.683 27.5854 90.2435 27.0642C90.8109 26.5366 91.409 26.1869 92.0379 26.0149C92.6736 25.8365 93.3 25.8346 93.9168 26.0091C94.5402 26.1906 95.1103 26.5569 95.6271 27.1083C96.0147 27.5218 96.2847 27.9479 96.437 28.3867C96.5958 28.8325 96.6507 29.2779 96.6019 29.7232C96.5595 30.1754 96.4207 30.6076 96.1854 31.0198C95.9636 31.4324 95.6591 31.8123 95.2721 32.1593C95.1752 32.2493 95.0785 32.3327 94.9821 32.4095C94.8857 32.4862 94.7828 32.5561 94.6735 32.6191L91.1753 28.8872C90.9871 29.1009 90.8517 29.3364 90.7691 29.5937C90.6866 29.8511 90.6741 30.1141 90.7319 30.383C90.8029 30.6522 90.9612 30.9178 91.2067 31.1797C91.3682 31.352 91.5341 31.4944 91.7044 31.607C91.8816 31.7131 92.0601 31.7792 92.2401 31.8054C92.42 31.8316 92.5847 31.8138 92.7342 31.7522L94.0715 33.1788C93.5792 33.4689 93.0853 33.6121 92.5898 33.6085C92.1008 33.6117 91.6324 33.499 91.1849 33.2702C90.7442 33.035 90.3462 32.7279 89.9909 32.3488ZM92.2215 27.9724L94.4406 30.3397C94.621 30.1591 94.7488 29.95 94.824 29.7124C94.9125 29.4753 94.9245 29.2256 94.8598 28.9632C94.8086 28.7013 94.6602 28.4394 94.4147 28.1775C94.1692 27.9156 93.9106 27.7433 93.6389 27.6607C93.3736 27.5849 93.1159 27.5794 92.8658 27.6442C92.6291 27.7095 92.4144 27.8189 92.2215 27.9724Z" fill="white"/>
<path d="M96.0844 39.8835L106.872 39.6228L107.748 41.7105L99.9676 49.1347L99.1242 47.1253L100.468 45.8911L98.7541 41.807L96.9279 41.8929L96.0844 39.8835ZM100.696 41.7036L101.912 44.6003L105.319 41.4958L100.696 41.7036Z" fill="white"/>
<path d="M100.7 54.6685C100.664 54.426 100.649 54.1661 100.656 53.8887C100.664 53.6207 100.714 53.3464 100.806 53.0659C100.909 52.7933 101.07 52.5265 101.29 52.2653L100.459 52.3737L100.174 50.4572L110.118 48.9883L110.41 50.9468L106.997 51.451C107.376 51.681 107.675 51.9894 107.895 52.3762C108.126 52.771 108.275 53.1922 108.342 53.6399C108.45 54.3674 108.371 54.9891 108.103 55.5053C107.845 56.02 107.447 56.4314 106.909 56.7396C106.372 57.0572 105.734 57.2706 104.994 57.3798C104.273 57.4863 103.605 57.4659 102.99 57.3185C102.384 57.1697 101.876 56.8777 101.467 56.4425C101.068 56.0153 100.813 55.424 100.7 54.6685ZM102.393 53.9895C102.462 54.4465 102.617 54.7857 102.861 55.0071C103.104 55.2285 103.393 55.3669 103.727 55.4225C104.06 55.4781 104.4 55.4802 104.747 55.4291C105.093 55.3779 105.408 55.2742 105.691 55.118C105.983 54.9605 106.199 54.738 106.338 54.4506C106.488 54.1711 106.531 53.8169 106.467 53.3879C106.409 52.9961 106.26 52.6749 106.022 52.4242C105.794 52.1814 105.516 52.0128 105.186 51.9186C104.856 51.8243 104.513 51.8035 104.157 51.8561C103.801 51.9086 103.473 52.019 103.173 52.1873C102.883 52.3635 102.665 52.6007 102.518 52.8988C102.371 53.1969 102.33 53.5605 102.393 53.9895Z" fill="white"/>
<path d="M100.94 63.5419C101.006 62.7904 101.213 62.1459 101.564 61.6083C101.924 61.0714 102.401 60.6724 102.994 60.4111C103.596 60.1507 104.288 60.0541 105.071 60.1215C105.873 60.1905 106.548 60.4047 107.096 60.7642C107.653 61.1339 108.063 61.6139 108.325 62.2043C108.588 62.7947 108.687 63.4562 108.624 64.1889C108.558 64.9404 108.341 65.5794 107.973 66.106C107.604 66.6327 107.118 67.0262 106.516 67.2867C105.914 67.5471 105.212 67.6429 104.41 67.5739C103.627 67.5065 102.962 67.2931 102.413 66.9336C101.874 66.5843 101.477 66.1196 101.223 65.5394C100.969 64.9686 100.874 64.3028 100.94 63.5419ZM102.754 63.6696C102.716 64.1017 102.78 64.4573 102.946 64.7366C103.112 65.0158 103.341 65.2248 103.633 65.3635C103.934 65.5124 104.254 65.6014 104.593 65.6307C104.933 65.6599 105.263 65.6268 105.585 65.5315C105.906 65.4456 106.177 65.2796 106.398 65.0337C106.628 64.7979 106.761 64.4593 106.8 64.0178C106.836 63.5951 106.762 63.2433 106.578 62.9624C106.403 62.6824 106.165 62.4679 105.864 62.319C105.562 62.1795 105.242 62.0951 104.902 62.0659C104.553 62.0359 104.223 62.0642 103.912 62.151C103.599 62.2471 103.337 62.4186 103.126 62.6653C102.914 62.9121 102.79 63.2469 102.754 63.6696Z" fill="white"/>
<path d="M99.1218 72.6824C99.4627 71.6428 99.9912 70.927 100.707 70.5351C101.429 70.155 102.33 70.1406 103.41 70.4919L107.392 71.7871L106.775 73.6692L102.928 72.4179C102.604 72.3125 102.301 72.2637 102.02 72.2713C101.745 72.2909 101.503 72.3758 101.294 72.5262C101.083 72.6855 100.924 72.9264 100.818 73.2491C100.704 73.5986 100.692 73.8924 100.783 74.1304C100.874 74.3683 101.034 74.5641 101.263 74.7178C101.5 74.8744 101.763 74.9995 102.051 75.0932L105.898 76.3445L105.285 78.2132L101.303 76.9179C100.178 76.5521 99.4519 76.0034 99.1241 75.2719C98.7934 74.5494 98.7926 73.6862 99.1218 72.6824Z" fill="white"/>
<path d="M95.4854 81.0075C95.7872 80.4627 96.1073 80.0409 96.4457 79.7423C96.7796 79.452 97.1566 79.2984 97.5767 79.2816C98.0006 79.2776 98.4902 79.4282 99.0456 79.7334L101.855 81.2774L102.391 80.3116L103.945 81.1656L103.41 82.1314L105.163 83.0948L104.202 84.8284L102.449 83.865L101.66 85.2891L100.106 84.435L100.895 83.011L98.3339 81.6036C98.0603 81.4533 97.8174 81.3844 97.605 81.3969C97.3926 81.4095 97.1904 81.5891 96.9984 81.9358L96.6965 82.4807L95.1424 81.6266L95.4854 81.0075Z" fill="white"/>
<path d="M87.8704 90.1545C88.5964 89.4922 89.318 89.0833 90.0351 88.9277C90.7452 88.7786 91.4453 88.8559 92.1355 89.1596C92.8187 89.4698 93.4864 89.9794 94.1386 90.6886L97.8792 94.7559L96.3817 96.1219L92.574 91.9816C92.2671 91.6478 91.9273 91.3761 91.5546 91.1663C91.1814 90.9698 90.7897 90.8859 90.3797 90.9147C89.9692 90.9569 89.5544 91.169 89.1356 91.5511C88.7097 91.9395 88.4648 92.3292 88.4006 92.7201C88.3429 93.118 88.4062 93.5078 88.5904 93.8896C88.7745 94.2713 89.0169 94.6256 89.3174 94.9524L93.1252 99.0926L91.6278 100.459L87.8872 96.3914C87.2414 95.6891 86.7901 94.9821 86.5333 94.2702C86.283 93.5652 86.2635 92.867 86.4748 92.1756C86.6862 91.4841 87.1514 90.8104 87.8704 90.1545Z" fill="white"/>
<path d="M80.065 95.7951C80.3718 95.6268 80.7052 95.4869 81.0651 95.3755C81.425 95.2641 81.7851 95.2118 82.1456 95.2185C82.5105 95.2335 82.8638 95.3249 83.2052 95.4928C83.5513 95.6689 83.8675 95.9474 84.154 96.3285L82.388 97.2977C82.256 97.1763 82.0981 97.0961 81.9144 97.057C81.7223 97.0225 81.5297 97.0259 81.3364 97.0674C81.1349 97.1134 80.9471 97.1842 80.7729 97.2797C80.6569 97.3434 80.5454 97.4154 80.4384 97.4956C80.3315 97.5758 80.242 97.668 80.1699 97.7722C80.0978 97.8763 80.0533 97.9815 80.0364 98.0877C80.024 98.2021 80.0521 98.3212 80.1207 98.4451C80.1938 98.5772 80.2923 98.6577 80.4164 98.6865C80.5404 98.7153 80.6884 98.7094 80.8605 98.6688C81.0372 98.6364 81.2323 98.5886 81.4458 98.5252C81.8269 98.413 82.2374 98.2953 82.6773 98.1723C83.1173 98.0493 83.5262 97.9971 83.904 98.0158C84.0658 98.0347 84.2197 98.0686 84.3657 98.1177C84.5117 98.1667 84.648 98.2372 84.7746 98.3293C84.9012 98.4213 85.0176 98.5242 85.1239 98.6382C85.2347 98.7603 85.3335 98.8999 85.4203 99.0568C85.6168 99.4118 85.7089 99.7542 85.6967 100.084C85.6808 100.426 85.5878 100.746 85.4176 101.044C85.2473 101.342 85.023 101.611 84.7445 101.85C84.4705 102.097 84.1677 102.312 83.8361 102.494C83.3883 102.739 82.9327 102.893 82.469 102.953C82.01 103.022 81.5715 102.972 81.1537 102.803C80.7405 102.642 80.3724 102.338 80.0494 101.891L81.7159 100.977C81.8496 101.14 82.0415 101.223 82.2916 101.226C82.5462 101.237 82.8145 101.165 83.0964 101.01C83.1959 100.956 83.2991 100.888 83.4061 100.808C83.5047 100.732 83.5882 100.649 83.6566 100.558C83.7249 100.466 83.7676 100.367 83.7845 100.261C83.806 100.163 83.7848 100.057 83.7208 99.941C83.6705 99.8502 83.6 99.7813 83.5091 99.7343C83.41 99.6918 83.2969 99.6731 83.17 99.6781C83.0348 99.6878 82.8812 99.7129 82.7091 99.7535C82.3906 99.8421 82.0745 99.9349 81.7606 100.032C81.443 100.142 81.1562 100.229 80.9004 100.294C80.5948 100.386 80.2935 100.428 79.9966 100.419C79.6913 100.414 79.4043 100.335 79.1354 100.181C78.8628 100.04 78.626 99.7875 78.4249 99.4242C78.1965 99.0113 78.0898 98.6231 78.1049 98.2596C78.1245 97.9043 78.2318 97.5709 78.4269 97.2593C78.6137 96.9522 78.8547 96.6747 79.1498 96.4266C79.4366 96.1831 79.7417 95.9726 80.065 95.7951Z" fill="white"/>
<path d="M70.345 105.514L71.868 106.21L71.1335 107.417L72.5538 107.412L72.3768 109.066L70.9903 108.747L71.4431 110.083L69.7887 110.425L69.6695 109.02L68.5396 109.86L67.7016 108.416L69.0063 107.857L67.8639 107.039L68.9825 105.796L69.9012 106.863L70.345 105.514Z" fill="white"/>
<path d="M59.1089 101.336L57.5676 111.23L54.9015 110.819L52.994 105.629L49.6254 110.003L47.0575 109.607L48.5988 99.712L50.6054 100.022L49.4799 107.247L53.0819 102.666L53.8958 102.792L55.9768 108.251L57.1023 101.026L59.1089 101.336Z" fill="white"/>
<path d="M43.1946 97.2277C43.8813 97.546 44.4182 97.9612 44.8053 98.4734C45.1885 98.9942 45.4019 99.5766 45.4454 100.221C45.485 100.874 45.3391 101.555 45.0076 102.264C44.6681 102.991 44.2349 103.549 43.708 103.939C43.1685 104.334 42.5754 104.553 41.9286 104.596C41.2819 104.64 40.6238 104.506 39.9543 104.196C39.2677 103.878 38.7391 103.456 38.3685 102.931C37.9979 102.405 37.7928 101.816 37.7532 101.164C37.7136 100.511 37.8636 99.8213 38.2031 99.0948C38.5346 98.3853 38.9638 97.8354 39.4907 97.4453C40.005 97.0597 40.5792 96.8475 41.2134 96.8086C41.839 96.7658 42.4994 96.9055 43.1946 97.2277ZM42.4535 98.8809C42.0587 98.6979 41.7012 98.6362 41.381 98.6958C41.0608 98.7554 40.7853 98.8981 40.5545 99.1239C40.3111 99.3542 40.1175 99.6233 39.9737 99.931C39.8299 100.239 39.7479 100.56 39.7277 100.893C39.6989 101.223 39.7627 101.533 39.9191 101.824C40.063 102.12 40.3366 102.361 40.74 102.548C41.1263 102.727 41.4835 102.778 41.8117 102.702C42.1359 102.633 42.4196 102.484 42.663 102.254C42.8978 102.019 43.0871 101.748 43.2309 101.441C43.3787 101.124 43.465 100.806 43.4898 100.484C43.5061 100.159 43.4339 99.8553 43.2735 99.5729C43.1131 99.2906 42.8397 99.0599 42.4535 98.8809Z" fill="white"/>
<path d="M37.9334 94.5187L33.5521 100.561L32.1016 99.5176L32.5218 98.7208C32.202 98.8397 31.9046 98.8875 31.6296 98.8641C31.3491 98.8484 31.0913 98.7851 30.8564 98.6743C30.6159 98.5711 30.3883 98.4423 30.1734 98.2877C30.0736 98.216 29.9843 98.1459 29.9054 98.0775C29.821 98.0168 29.7596 97.9727 29.7212 97.9451L30.8435 96.3972L31.2234 96.6705C31.5841 96.9299 31.9431 97.0951 32.3004 97.166C32.6577 97.2369 33.0035 97.1948 33.3378 97.0398C33.6643 96.8793 33.9745 96.5965 34.2683 96.1914L36.3217 93.3595L37.9334 94.5187Z" fill="white"/>
<path d="M30.7026 88.3681C31.2443 88.935 31.5912 89.5237 31.7434 90.1344C31.8956 90.745 31.8671 91.3512 31.658 91.9529C31.442 92.5611 31.0562 93.1284 30.5007 93.6549C29.9384 94.1878 29.3436 94.5433 28.7165 94.7212C28.0825 94.9056 27.4562 94.9135 26.8377 94.7448C26.2126 94.5693 25.639 94.2084 25.1169 93.662C24.7254 93.2522 24.4514 92.8286 24.2948 92.3913C24.1318 91.9471 24.0726 91.5021 24.1171 91.0564C24.1552 90.6039 24.2899 90.1704 24.5211 89.756C24.739 89.3412 25.0398 88.9585 25.4236 88.6079C25.5196 88.5169 25.6154 88.4325 25.7111 88.3549C25.8068 88.2772 25.909 88.2064 26.0177 88.1424L29.5515 91.8408C29.7377 91.6254 29.8708 91.3886 29.9509 91.1305C30.031 90.8723 30.0409 90.6092 29.9806 90.3409C29.9069 90.0724 29.7461 89.8083 29.4981 89.5488C29.3349 89.378 29.1677 89.2372 28.9964 89.1262C28.8182 89.0218 28.639 88.9573 28.4588 88.9329C28.2786 88.9084 28.1141 88.9277 27.9652 88.9907L26.6143 87.5769C27.1038 87.2822 27.5963 87.1343 28.0918 87.1332C28.5808 87.1253 29.0502 87.2336 29.4999 87.4581C29.9428 87.6891 30.3437 87.9924 30.7026 88.3681ZM28.5141 92.7655L26.2724 90.4194C26.0937 90.6017 25.968 90.812 25.8951 91.0503C25.8088 91.2883 25.7992 91.5381 25.8664 91.7999C25.9201 92.0613 26.071 92.3217 26.319 92.5813C26.567 92.8408 26.8273 93.0106 27.0998 93.0907C27.3658 93.164 27.6235 93.167 27.873 93.0998C28.109 93.0323 28.3227 92.9209 28.5141 92.7655Z" fill="white"/>
<path d="M24.5373 80.8926L13.753 81.2572L12.8565 79.178L20.5645 71.6792L21.4274 73.6805L20.0952 74.9275L21.8491 78.9949L23.6744 78.8914L24.5373 80.8926ZM19.9082 79.117L18.6642 76.2322L15.288 79.3693L19.9082 79.117Z" fill="white"/>
<path d="M19.778 66.1485C19.8164 66.3906 19.8337 66.6504 19.8298 66.9278C19.8244 67.196 19.777 67.4707 19.6874 67.7521C19.5871 68.0256 19.4284 68.294 19.2114 68.5572L20.0412 68.4409L20.3449 70.3547L10.4146 71.918L10.1042 69.9623L13.5125 69.4257C13.1315 69.1994 12.829 68.8938 12.605 68.5091C12.3702 68.1165 12.2173 67.6967 12.1464 67.2497C12.0311 66.5233 12.1048 65.9008 12.3675 65.3821C12.6209 64.865 13.015 64.4498 13.55 64.1365C14.0834 63.8139 14.7195 63.5944 15.4582 63.4781C16.1782 63.3648 16.8465 63.3789 17.4632 63.5204C18.0705 63.6634 18.5809 63.9506 18.9944 64.3819C19.3971 64.8053 19.6582 65.3942 19.778 66.1485ZM18.0912 66.8436C18.0188 66.3873 17.8598 66.0496 17.6142 65.8305C17.3686 65.6114 17.0787 65.4757 16.7445 65.4233C16.4103 65.3709 16.0702 65.372 15.7242 65.4264C15.3783 65.4809 15.0645 65.5876 14.7831 65.7464C14.4922 65.9068 14.2787 66.1313 14.1424 66.42C13.9953 66.7009 13.9557 67.0555 14.0237 67.4839C14.0858 67.875 14.2372 68.1948 14.4779 68.4433C14.7078 68.6839 14.9881 68.8498 15.3188 68.9409C15.6496 69.032 15.9926 69.0496 16.3479 68.9937C16.7032 68.9378 17.0302 68.8242 17.329 68.6531C17.6168 68.4742 17.8328 68.2349 17.977 67.9354C18.1211 67.6359 18.1592 67.272 18.0912 66.8436Z" fill="white"/>
<path d="M19.4534 57.2842C19.3955 58.0362 19.1937 58.6827 18.8482 59.2237C18.4932 59.7639 18.0206 60.1675 17.4304 60.4344C16.8307 60.7006 16.1391 60.8038 15.3557 60.7439C14.5534 60.6825 13.8763 60.4747 13.3245 60.1205C12.7639 59.7561 12.3496 59.28 12.0816 58.6922C11.8136 58.1043 11.7078 57.4437 11.7643 56.7105C11.8223 55.9584 12.0331 55.3174 12.3968 54.7873C12.7605 54.2572 13.2421 53.859 13.8418 53.5928C14.4415 53.3266 15.1425 53.2242 15.9448 53.2855C16.7283 53.3454 17.3959 53.5525 17.9478 53.9067C18.4909 54.2508 18.8921 54.7118 19.1514 55.2895C19.4114 55.8578 19.5121 56.5227 19.4534 57.2842ZM17.639 57.1738C17.6723 56.7414 17.6047 56.3863 17.4362 56.1087C17.2677 55.831 17.0368 55.6243 16.7435 55.4884C16.4414 55.3423 16.1205 55.2563 15.7807 55.2304C15.4409 55.2044 15.1105 55.2406 14.7896 55.339C14.4694 55.428 14.2001 55.5965 13.9816 55.8446C13.7544 56.0825 13.6237 56.4224 13.5897 56.8642C13.5571 57.2873 13.6345 57.6383 13.8218 57.9174C13.9998 58.1958 14.2397 58.408 14.5418 58.554C14.8446 58.6906 15.1659 58.7719 15.5057 58.7979C15.8549 58.8246 16.1849 58.7931 16.4957 58.7034C16.8071 58.6043 17.0674 58.4303 17.2765 58.1815C17.4855 57.9328 17.6064 57.5968 17.639 57.1738Z" fill="white"/>
<path d="M21.1836 48.1246C20.8528 49.1675 20.3313 49.8883 19.619 50.2872C18.9006 50.6742 17.9998 50.6972 16.9165 50.3564L12.9221 49.0996L13.521 47.2116L17.38 48.4258C17.705 48.5281 18.0081 48.574 18.2894 48.5636C18.5645 48.5414 18.8056 48.4541 19.0128 48.3018C19.2228 48.1405 19.3791 47.898 19.4818 47.5743C19.593 47.2237 19.6018 46.9298 19.5083 46.6928C19.4147 46.4557 19.2529 46.2614 19.023 46.11C18.784 45.9557 18.5201 45.8331 18.2313 45.7422L14.3722 44.528L14.9668 42.6535L18.9613 43.9103C20.0896 44.2653 20.8212 44.807 21.1561 45.5353C21.4938 46.2546 21.503 47.1177 21.1836 48.1246Z" fill="white"/>
<path d="M24.7391 39.7656C24.4426 40.3133 24.1265 40.7381 23.791 41.0399C23.46 41.3334 23.0845 41.4906 22.6645 41.5115C22.2407 41.5195 21.7497 41.3736 21.1914 41.0738L18.3667 39.5568L17.841 40.5277L16.2787 39.6886L16.8044 38.7177L15.0421 37.7712L15.9856 36.0285L17.7479 36.975L18.523 35.5435L20.0853 36.3825L19.3103 37.814L21.885 39.1968C22.16 39.3445 22.4036 39.411 22.6158 39.3965C22.828 39.3819 23.0285 39.2004 23.2172 38.8518L23.5138 38.3041L25.0761 39.1432L24.7391 39.7656Z" fill="white"/>
<path d="M32.2655 30.5451C31.5459 31.2143 30.8283 31.63 30.1127 31.7923C29.4041 31.9482 28.7032 31.8776 28.0102 31.5804C27.3241 31.2768 26.6515 30.7735 25.9925 30.0706L22.2131 26.0391L23.6974 24.6589L27.5446 28.7628C27.8547 29.0936 28.1971 29.3621 28.5718 29.5684C28.9469 29.7613 29.3393 29.8414 29.749 29.8087C30.1592 29.7627 30.5719 29.5466 30.987 29.1606C31.4091 28.7681 31.6503 28.3761 31.7107 27.9846C31.7646 27.5862 31.6977 27.197 31.5098 26.817C31.322 26.437 31.0762 26.0851 30.7726 25.7612L26.9253 21.6573L28.4096 20.2771L32.189 24.3086C32.8415 25.0047 33.2995 25.7074 33.5631 26.4169C33.8202 27.1194 33.8464 27.8174 33.6417 28.5108C33.437 29.2043 32.9782 29.8823 32.2655 30.5451Z" fill="white"/>
<path d="M40.0167 24.8305C39.7115 25.0018 39.3796 25.1449 39.0207 25.2598C38.6619 25.3746 38.3023 25.4304 37.9418 25.4271C37.5767 25.4156 37.2226 25.3276 36.8795 25.163C36.5318 24.9902 36.2129 24.7147 35.9227 24.3364L37.6793 23.3503C37.8125 23.4704 37.9711 23.5491 38.1553 23.5864C38.3476 23.6191 38.5402 23.6138 38.7331 23.5705C38.9341 23.5226 39.1213 23.45 39.2944 23.3528C39.4099 23.288 39.5207 23.215 39.6269 23.1337C39.733 23.0525 39.8216 22.9594 39.8927 22.8546C39.9638 22.7498 40.0073 22.6442 40.0232 22.5379C40.0344 22.4233 40.0052 22.3044 39.9355 22.1812C39.8611 22.0498 39.7617 21.9703 39.6374 21.9427C39.5131 21.9151 39.3651 21.9224 39.1935 21.9646C39.0171 21.9987 38.8225 22.0484 38.6096 22.1138C38.2296 22.2297 37.8203 22.3513 37.3815 22.4785C36.9428 22.6058 36.5344 22.6618 36.1564 22.6468C35.9945 22.6294 35.8403 22.597 35.6938 22.5493C35.5473 22.5017 35.4103 22.4325 35.2828 22.3417C35.1554 22.2509 35.038 22.149 34.9306 22.0361C34.8186 21.915 34.7184 21.7764 34.6301 21.6204C34.4302 21.2672 34.3348 20.9257 34.3438 20.596C34.3564 20.2534 34.4464 19.9324 34.6137 19.6328C34.781 19.3332 35.0028 19.0626 35.279 18.821C35.5505 18.5711 35.8512 18.3536 36.1811 18.1684C36.6264 17.9185 37.0806 17.7609 37.5437 17.6958C38.002 17.6225 38.4409 17.6683 38.8603 17.8333C39.2751 17.9901 39.6461 18.2905 39.9734 18.7345L38.3158 19.665C38.1806 19.5028 37.9879 19.4216 37.7378 19.4213C37.483 19.4128 37.2154 19.4872 36.935 19.6446C36.8361 19.7002 36.7335 19.7686 36.6274 19.8498C36.5294 19.9264 36.4468 20.0107 36.3793 20.1027C36.3118 20.1947 36.2701 20.2939 36.2542 20.4002C36.2337 20.4983 36.256 20.6049 36.321 20.7199C36.3722 20.8102 36.4434 20.8785 36.5347 20.9246C36.6343 20.9661 36.7475 20.9837 36.8743 20.9775C37.0094 20.9666 37.1628 20.94 37.3345 20.8977C37.6521 20.806 37.9673 20.7102 38.2803 20.6103C38.5968 20.4976 38.8827 20.4074 39.1379 20.3399C39.4426 20.2446 39.7434 20.2002 40.0405 20.2066C40.3458 20.2084 40.6336 20.285 40.9039 20.4362C41.1779 20.5747 41.4171 20.8246 41.6216 21.186C41.8541 21.5966 41.9645 21.9838 41.953 22.3474C41.9368 22.7029 41.8326 23.0373 41.6406 23.3508C41.4567 23.6596 41.2185 23.9394 40.9258 24.1903C40.6413 24.4366 40.3383 24.65 40.0167 24.8305Z" fill="white"/>
<path d="M49.6362 15.0196L48.1064 14.3385L48.829 13.125L47.4089 13.1438L47.5696 11.4878L48.9592 11.794L48.4932 10.4622L50.1443 10.1037L50.2772 11.5078L51.3988 10.6563L52.251 12.0925L50.9518 12.664L52.1022 13.4709L50.9959 14.7244L50.0667 13.6668L49.6362 15.0196Z" fill="white"/>
<defs>
<clipPath id="clip0_240_58">
<rect width="24" height="24" fill="white" transform="translate(48 48)"/>
</clipPath>
</defs>
</svg>
