<svg width="201" height="40" viewBox="0 0 201 40" fill="none" xmlns="http://www.w3.org/2000/svg">
<g clip-path="url(#clip0_1649_25)">
<path d="M52.9822 28.3744H66.533V24.6273H57.4578V6.87891H52.9822V28.3744Z" fill="#C2CDD4"/>
<path d="M75.714 28.6898C80.5302 28.6898 83.5281 25.3415 83.5281 20.3766C83.5281 15.3807 80.5302 12.043 75.714 12.043C70.8972 12.043 67.9 15.3807 67.9 20.3766C67.9 25.3415 70.8972 28.6898 75.714 28.6898ZM75.7342 25.2262C73.5121 25.2262 72.3756 23.1585 72.3756 20.3455C72.3756 17.5325 73.5121 15.4542 75.7342 15.4542C77.9153 15.4542 79.0525 17.5325 79.0525 20.3455C79.0525 23.1585 77.9153 25.2262 75.7342 25.2262Z" fill="#C2CDD4"/>
<path d="M92.6708 34.7564C97.2084 34.7564 100.433 32.6569 100.433 28.5321V12.253H96.0615V14.9606H95.8958C95.3066 13.6489 94.0141 12.043 91.3582 12.043C87.8749 12.043 84.9292 14.793 84.9292 20.2826C84.9292 25.6456 87.792 28.1439 91.3686 28.1439C93.9006 28.1439 95.3171 26.8527 95.8958 25.5197H96.0817V28.4692C96.0817 30.684 94.6862 31.5446 92.7739 31.5446C90.831 31.5446 89.8491 30.684 89.487 29.7074L85.4153 30.2639C85.9424 32.804 88.3916 34.7564 92.6708 34.7564ZM92.7642 24.785C90.604 24.785 89.425 23.0426 89.425 20.2614C89.425 17.5219 90.5831 15.6013 92.7642 15.6013C94.9034 15.6013 96.1026 17.4378 96.1026 20.2614C96.1026 23.1055 94.8825 24.785 92.7642 24.785Z" fill="#C2CDD4"/>
<path d="M110.238 28.6898C115.055 28.6898 118.052 25.3415 118.052 20.3766C118.052 15.3807 115.055 12.043 110.238 12.043C105.421 12.043 102.424 15.3807 102.424 20.3766C102.424 25.3415 105.421 28.6898 110.238 28.6898ZM110.258 25.2262C108.036 25.2262 106.899 23.1585 106.899 20.3455C106.899 17.5325 108.036 15.4542 110.258 15.4542C112.439 15.4542 113.576 17.5325 113.576 20.3455C113.576 23.1585 112.439 25.2262 110.258 25.2262Z" fill="#C2CDD4"/>
<path d="M120.041 28.3739H124.445V12.2524H120.041V28.3739ZM122.254 10.1741C123.566 10.1741 124.641 9.15605 124.641 7.90703C124.641 6.66846 123.566 5.65039 122.254 5.65039C120.951 5.65039 119.876 6.66846 119.876 7.90703C119.876 9.15605 120.951 10.1741 122.254 10.1741Z" fill="#C2CDD4"/>
<path d="M127.099 34.4205H131.502V25.7927H131.637C132.246 27.1362 133.58 28.6368 136.143 28.6368C139.761 28.6368 142.582 25.7297 142.582 20.3349C142.582 14.793 139.637 12.043 136.153 12.043C133.497 12.043 132.226 13.6489 131.637 14.9606H131.44V12.253H127.099V34.4205ZM131.409 20.3137C131.409 17.4378 132.608 15.6013 134.748 15.6013C136.929 15.6013 138.086 17.5219 138.086 20.3137C138.086 23.1267 136.908 25.0791 134.748 25.0791C132.628 25.0791 131.409 23.1897 131.409 20.3137Z" fill="#C2CDD4"/>
<path d="M157.855 16.8501C157.461 13.8801 155.105 12.043 151.094 12.043C147.032 12.043 144.355 13.953 144.365 17.0601C144.355 19.4743 145.854 21.0378 148.955 21.6679L151.704 22.2244C153.089 22.5073 153.72 23.0221 153.74 23.8303C153.72 24.785 152.697 25.4674 151.157 25.4674C149.585 25.4674 148.541 24.785 148.272 23.4732L143.942 23.7038C144.355 26.7897 146.94 28.6898 151.146 28.6898C155.26 28.6898 158.206 26.5592 158.216 23.3785C158.206 21.0484 156.707 19.6525 153.627 19.0126L150.753 18.4242C149.275 18.0989 148.727 17.5848 148.738 16.8084C148.727 15.8424 149.802 15.2131 151.167 15.2131C152.697 15.2131 153.606 16.0631 153.823 17.1019L157.855 16.8501Z" fill="#C2CDD4"/>
<path d="M170.296 21.5111C170.307 23.6736 168.849 24.8071 167.268 24.8071C165.603 24.8071 164.529 23.6212 164.518 21.7211V12.2539H160.115V22.5188C160.126 26.2872 162.296 28.5854 165.49 28.5854C167.878 28.5854 169.593 27.3366 170.307 25.4471H170.472V28.3754H174.699V12.2539H170.296V21.5111Z" fill="#C2CDD4"/>
<path d="M177.349 28.3744H181.752V18.6972C181.752 16.9131 182.868 15.7272 184.336 15.7272C185.784 15.7272 186.755 16.7349 186.755 18.3196V28.3744H191.024V18.5296C191.024 16.8607 191.965 15.7272 193.566 15.7272C194.972 15.7272 196.027 16.6196 196.027 18.4143V28.3744H200.419V17.5325C200.419 14.0371 198.373 12.043 195.417 12.043C193.091 12.043 191.282 13.2501 190.631 15.0971H190.465C189.959 13.2288 188.336 12.043 186.155 12.043C184.016 12.043 182.393 13.1977 181.731 15.0971H181.545V12.253H177.349V28.3744Z" fill="#C2CDD4"/>
<path d="M0 0H19.5146L0 19.5122V0Z" fill="#C69459"/>
<path d="M20.4903 19.5117H0V39.9995H20.4903V19.5117Z" fill="#C69459"/>
<path d="M39.0291 0H19.5148V19.9998H39.0291V0Z" fill="#C69459"/>
<path d="M39.0291 19.5117H18.5388V39.9995H39.0291V19.5117Z" fill="#C69459"/>
<path d="M52.9822 28.3744H66.533V24.6273H57.4578V6.87891H52.9822V28.3744Z" fill="#282A23"/>
<path d="M75.714 28.6898C80.5302 28.6898 83.5281 25.3415 83.5281 20.3766C83.5281 15.3807 80.5302 12.043 75.714 12.043C70.8972 12.043 67.9 15.3807 67.9 20.3766C67.9 25.3415 70.8972 28.6898 75.714 28.6898ZM75.7342 25.2262C73.5121 25.2262 72.3756 23.1585 72.3756 20.3455C72.3756 17.5325 73.5121 15.4542 75.7342 15.4542C77.9153 15.4542 79.0525 17.5325 79.0525 20.3455C79.0525 23.1585 77.9153 25.2262 75.7342 25.2262Z" fill="#282A23"/>
<path d="M92.6708 34.7564C97.2084 34.7564 100.433 32.6569 100.433 28.5321V12.253H96.0615V14.9606H95.8958C95.3066 13.6489 94.0141 12.043 91.3582 12.043C87.8749 12.043 84.9292 14.793 84.9292 20.2826C84.9292 25.6456 87.792 28.1439 91.3686 28.1439C93.9006 28.1439 95.3171 26.8527 95.8958 25.5197H96.0817V28.4692C96.0817 30.684 94.6862 31.5446 92.7739 31.5446C90.831 31.5446 89.8491 30.684 89.487 29.7074L85.4153 30.2639C85.9424 32.804 88.3916 34.7564 92.6708 34.7564ZM92.7642 24.785C90.604 24.785 89.425 23.0426 89.425 20.2614C89.425 17.5219 90.5831 15.6013 92.7642 15.6013C94.9034 15.6013 96.1026 17.4378 96.1026 20.2614C96.1026 23.1055 94.8825 24.785 92.7642 24.785Z" fill="#282A23"/>
<path d="M110.238 28.6898C115.055 28.6898 118.052 25.3415 118.052 20.3766C118.052 15.3807 115.055 12.043 110.238 12.043C105.421 12.043 102.424 15.3807 102.424 20.3766C102.424 25.3415 105.421 28.6898 110.238 28.6898ZM110.258 25.2262C108.036 25.2262 106.899 23.1585 106.899 20.3455C106.899 17.5325 108.036 15.4542 110.258 15.4542C112.439 15.4542 113.576 17.5325 113.576 20.3455C113.576 23.1585 112.439 25.2262 110.258 25.2262Z" fill="#282A23"/>
<path d="M120.041 28.3739H124.445V12.2524H120.041V28.3739ZM122.254 10.1741C123.566 10.1741 124.641 9.15605 124.641 7.90703C124.641 6.66846 123.566 5.65039 122.254 5.65039C120.951 5.65039 119.876 6.66846 119.876 7.90703C119.876 9.15605 120.951 10.1741 122.254 10.1741Z" fill="#282A23"/>
<path d="M127.099 34.4205H131.502V25.7927H131.637C132.246 27.1362 133.58 28.6368 136.143 28.6368C139.761 28.6368 142.582 25.7297 142.582 20.3349C142.582 14.793 139.637 12.043 136.153 12.043C133.497 12.043 132.226 13.6489 131.637 14.9606H131.44V12.253H127.099V34.4205ZM131.409 20.3137C131.409 17.4378 132.608 15.6013 134.748 15.6013C136.929 15.6013 138.086 17.5219 138.086 20.3137C138.086 23.1267 136.908 25.0791 134.748 25.0791C132.628 25.0791 131.409 23.1897 131.409 20.3137Z" fill="#282A23"/>
<path d="M157.855 16.8501C157.461 13.8801 155.105 12.043 151.094 12.043C147.032 12.043 144.355 13.953 144.365 17.0601C144.355 19.4743 145.854 21.0378 148.955 21.6679L151.704 22.2244C153.089 22.5073 153.72 23.0221 153.74 23.8303C153.72 24.785 152.697 25.4674 151.157 25.4674C149.585 25.4674 148.541 24.785 148.272 23.4732L143.942 23.7038C144.355 26.7897 146.94 28.6898 151.146 28.6898C155.26 28.6898 158.206 26.5592 158.216 23.3785C158.206 21.0484 156.707 19.6525 153.627 19.0126L150.753 18.4242C149.275 18.0989 148.727 17.5848 148.738 16.8084C148.727 15.8424 149.802 15.2131 151.167 15.2131C152.697 15.2131 153.606 16.0631 153.823 17.1019L157.855 16.8501Z" fill="#282A23"/>
<path d="M170.296 21.5111C170.307 23.6736 168.849 24.8071 167.268 24.8071C165.603 24.8071 164.529 23.6212 164.518 21.7211V12.2539H160.115V22.5188C160.126 26.2872 162.296 28.5854 165.49 28.5854C167.878 28.5854 169.593 27.3366 170.307 25.4471H170.472V28.3754H174.699V12.2539H170.296V21.5111Z" fill="#282A23"/>
<path d="M177.349 28.3744H181.752V18.6972C181.752 16.9131 182.868 15.7272 184.336 15.7272C185.784 15.7272 186.755 16.7349 186.755 18.3196V28.3744H191.024V18.5296C191.024 16.8607 191.965 15.7272 193.566 15.7272C194.972 15.7272 196.027 16.6196 196.027 18.4143V28.3744H200.419V17.5325C200.419 14.0371 198.373 12.043 195.417 12.043C193.091 12.043 191.282 13.2501 190.631 15.0971H190.465C189.959 13.2288 188.336 12.043 186.155 12.043C184.016 12.043 182.393 13.1977 181.731 15.0971H181.545V12.253H177.349V28.3744Z" fill="#282A23"/>
</g>
<defs>
<clipPath id="clip0_1649_25">
<rect width="201" height="40" fill="white"/>
</clipPath>
</defs>
</svg>
