<svg width="206" height="41" viewBox="0 0 206 41" fill="none" xmlns="http://www.w3.org/2000/svg">
<g clip-path="url(#clip0_1649_2)">
<path d="M10.3808 20.5184C16.1139 20.5184 20.7615 15.925 20.7615 10.2591C20.7615 4.5932 16.1139 0 10.3808 0C4.64766 0 0 4.5932 0 10.2591C0 15.925 4.64766 20.5184 10.3808 20.5184Z" fill="#C69459"/>
<path d="M10.3808 41.036C16.1139 41.036 20.7615 36.4425 20.7615 30.7768C20.7615 25.111 16.1139 20.5176 10.3808 20.5176C4.64766 20.5176 0 25.111 0 30.7768C0 36.4425 4.64766 41.036 10.3808 41.036Z" fill="#C69459"/>
<path d="M54.8103 28.8708H68.7289V25.125H59.4074V7.38281H54.8103V28.8708Z" fill="#C2CDD4"/>
<path d="M78.1599 29.186C83.1067 29.186 86.186 25.8388 86.186 20.8757C86.186 15.8815 83.1067 12.5449 78.1599 12.5449C73.2123 12.5449 70.1337 15.8815 70.1337 20.8757C70.1337 25.8388 73.2123 29.186 78.1599 29.186ZM78.1806 25.7236C75.8982 25.7236 74.7308 23.6566 74.7308 20.8446C74.7308 18.0326 75.8982 15.955 78.1806 15.955C80.4209 15.955 81.5889 18.0326 81.5889 20.8446C81.5889 23.6566 80.4209 25.7236 78.1806 25.7236Z" fill="#C2CDD4"/>
<path d="M95.5769 35.2504C100.238 35.2504 103.55 33.1517 103.55 29.0283V12.7549H99.0595V15.4616H98.8893C98.2842 14.1503 96.9566 12.5449 94.2286 12.5449C90.6507 12.5449 87.6251 15.294 87.6251 20.7817C87.6251 26.1428 90.5656 28.6402 94.2393 28.6402C96.84 28.6402 98.2949 27.3495 98.8893 26.017H99.0803V28.9654C99.0803 31.1794 97.6469 32.0397 95.6827 32.0397C93.6871 32.0397 92.6786 31.1794 92.3066 30.2032L88.1244 30.7595C88.6658 33.2987 91.1815 35.2504 95.5769 35.2504ZM95.6727 25.2825C93.4539 25.2825 92.243 23.5407 92.243 20.7605C92.243 18.022 93.4325 16.102 95.6727 16.102C97.87 16.102 99.1018 17.9378 99.1018 20.7605C99.1018 23.6036 97.8486 25.2825 95.6727 25.2825Z" fill="#C2CDD4"/>
<path d="M113.62 29.186C118.567 29.186 121.646 25.8388 121.646 20.8757C121.646 15.8815 118.567 12.5449 113.62 12.5449C108.672 12.5449 105.594 15.8815 105.594 20.8757C105.594 25.8388 108.672 29.186 113.62 29.186ZM113.64 25.7236C111.358 25.7236 110.191 23.6566 110.191 20.8446C110.191 18.0326 111.358 15.955 113.64 15.955C115.881 15.955 117.049 18.0326 117.049 20.8446C117.049 23.6566 115.881 25.7236 113.64 25.7236Z" fill="#C2CDD4"/>
<path d="M123.69 28.8699H128.213V12.754H123.69V28.8699ZM125.963 10.6765C127.31 10.6765 128.415 9.65874 128.415 8.41015C128.415 7.17202 127.31 6.1543 125.963 6.1543C124.624 6.1543 123.52 7.17202 123.52 8.41015C123.52 9.65874 124.624 10.6765 125.963 10.6765Z" fill="#C2CDD4"/>
<path d="M130.939 34.9147H135.461V26.2898H135.599C136.225 27.6329 137.595 29.133 140.228 29.133C143.944 29.133 146.842 26.2269 146.842 20.834C146.842 15.294 143.817 12.5449 140.239 12.5449C137.51 12.5449 136.205 14.1503 135.599 15.4616H135.398V12.7549H130.939V34.9147ZM135.366 20.8128C135.366 17.9378 136.597 16.102 138.795 16.102C141.035 16.102 142.224 18.022 142.224 20.8128C142.224 23.6248 141.013 25.5766 138.795 25.5766C136.618 25.5766 135.366 23.6877 135.366 20.8128Z" fill="#C2CDD4"/>
<path d="M162.529 17.3504C162.125 14.3814 159.705 12.5449 155.585 12.5449C151.413 12.5449 148.663 14.4543 148.673 17.5604C148.663 19.9737 150.203 21.5366 153.388 22.1665L156.212 22.7228C157.634 23.0056 158.282 23.5202 158.303 24.3282C158.282 25.2825 157.231 25.9646 155.649 25.9646C154.035 25.9646 152.963 25.2825 152.687 23.9712L148.238 24.2016C148.663 27.2865 151.318 29.186 155.638 29.186C159.864 29.186 162.889 27.0561 162.9 23.8765C162.889 21.5472 161.35 20.1518 158.186 19.5121L155.235 18.924C153.717 18.5988 153.154 18.0849 153.165 17.3087C153.154 16.3431 154.258 15.7139 155.659 15.7139C157.231 15.7139 158.165 16.5636 158.388 17.6021L162.529 17.3504Z" fill="#C2CDD4"/>
<path d="M175.309 22.0098C175.32 24.1715 173.823 25.3047 172.198 25.3047C170.489 25.3047 169.385 24.1192 169.374 22.2198V12.7559H164.852V23.0172C164.862 26.7842 167.092 29.0816 170.372 29.0816C172.825 29.0816 174.586 27.8333 175.32 25.9444H175.49V28.8717H179.832V12.7559H175.309V22.0098Z" fill="#C2CDD4"/>
<path d="M182.552 28.8707H187.075V19.1968C187.075 17.4133 188.222 16.2279 189.73 16.2279C191.216 16.2279 192.214 17.2352 192.214 18.8193V28.8707H196.598V19.0293C196.598 17.361 197.565 16.2279 199.21 16.2279C200.654 16.2279 201.737 17.12 201.737 18.9141V28.8707H206.249V18.0326C206.249 14.5384 204.147 12.5449 201.11 12.5449C198.722 12.5449 196.864 13.7516 196.195 15.598H196.025C195.505 13.7304 193.838 12.5449 191.598 12.5449C189.401 12.5449 187.733 13.6993 187.054 15.598H186.863V12.7549H182.552V28.8707Z" fill="#C2CDD4"/>
<path d="M31.142 20.5184C36.8754 20.5184 41.5226 15.925 41.5226 10.2591C41.5226 4.5932 36.8754 0 31.142 0C25.4088 0 20.7612 4.5932 20.7612 10.2591C20.7612 15.925 25.4088 20.5184 31.142 20.5184Z" fill="#C69459"/>
<path d="M31.142 41.036C36.8754 41.036 41.5226 36.4425 41.5226 30.7768C41.5226 25.111 36.8754 20.5176 31.142 20.5176C25.4088 20.5176 20.7612 25.111 20.7612 30.7768C20.7612 36.4425 25.4088 41.036 31.142 41.036Z" fill="#C69459"/>
<path d="M54.8103 28.8708H68.7289V25.125H59.4074V7.38281H54.8103V28.8708Z" fill="#282A23"/>
<path d="M78.1599 29.186C83.1067 29.186 86.186 25.8388 86.186 20.8757C86.186 15.8815 83.1067 12.5449 78.1599 12.5449C73.2123 12.5449 70.1337 15.8815 70.1337 20.8757C70.1337 25.8388 73.2123 29.186 78.1599 29.186ZM78.1806 25.7236C75.8982 25.7236 74.7308 23.6566 74.7308 20.8446C74.7308 18.0326 75.8982 15.955 78.1806 15.955C80.4209 15.955 81.5889 18.0326 81.5889 20.8446C81.5889 23.6566 80.4209 25.7236 78.1806 25.7236Z" fill="#282A23"/>
<path d="M95.5769 35.2504C100.238 35.2504 103.55 33.1517 103.55 29.0283V12.7549H99.0595V15.4616H98.8893C98.2842 14.1503 96.9566 12.5449 94.2286 12.5449C90.6507 12.5449 87.6251 15.294 87.6251 20.7817C87.6251 26.1428 90.5656 28.6402 94.2393 28.6402C96.84 28.6402 98.2949 27.3495 98.8893 26.017H99.0803V28.9654C99.0803 31.1794 97.6469 32.0397 95.6827 32.0397C93.6871 32.0397 92.6786 31.1794 92.3066 30.2032L88.1244 30.7595C88.6658 33.2987 91.1815 35.2504 95.5769 35.2504ZM95.6727 25.2825C93.4539 25.2825 92.243 23.5407 92.243 20.7605C92.243 18.022 93.4325 16.102 95.6727 16.102C97.87 16.102 99.1018 17.9378 99.1018 20.7605C99.1018 23.6036 97.8486 25.2825 95.6727 25.2825Z" fill="#282A23"/>
<path d="M113.62 29.186C118.567 29.186 121.646 25.8388 121.646 20.8757C121.646 15.8815 118.567 12.5449 113.62 12.5449C108.672 12.5449 105.594 15.8815 105.594 20.8757C105.594 25.8388 108.672 29.186 113.62 29.186ZM113.64 25.7236C111.358 25.7236 110.191 23.6566 110.191 20.8446C110.191 18.0326 111.358 15.955 113.64 15.955C115.881 15.955 117.049 18.0326 117.049 20.8446C117.049 23.6566 115.881 25.7236 113.64 25.7236Z" fill="#282A23"/>
<path d="M123.69 28.8699H128.213V12.754H123.69V28.8699ZM125.963 10.6765C127.31 10.6765 128.415 9.65874 128.415 8.41015C128.415 7.17202 127.31 6.1543 125.963 6.1543C124.624 6.1543 123.52 7.17202 123.52 8.41015C123.52 9.65874 124.624 10.6765 125.963 10.6765Z" fill="#282A23"/>
<path d="M130.939 34.9147H135.461V26.2898H135.599C136.225 27.6329 137.595 29.133 140.228 29.133C143.944 29.133 146.842 26.2269 146.842 20.834C146.842 15.294 143.817 12.5449 140.239 12.5449C137.51 12.5449 136.205 14.1503 135.599 15.4616H135.398V12.7549H130.939V34.9147ZM135.366 20.8128C135.366 17.9378 136.597 16.102 138.795 16.102C141.035 16.102 142.224 18.022 142.224 20.8128C142.224 23.6248 141.013 25.5766 138.795 25.5766C136.618 25.5766 135.366 23.6877 135.366 20.8128Z" fill="#282A23"/>
<path d="M162.529 17.3504C162.125 14.3814 159.705 12.5449 155.585 12.5449C151.413 12.5449 148.663 14.4543 148.673 17.5604C148.663 19.9737 150.203 21.5366 153.388 22.1665L156.212 22.7228C157.634 23.0056 158.282 23.5202 158.303 24.3282C158.282 25.2825 157.231 25.9646 155.649 25.9646C154.035 25.9646 152.963 25.2825 152.687 23.9712L148.238 24.2016C148.663 27.2865 151.318 29.186 155.638 29.186C159.864 29.186 162.889 27.0561 162.9 23.8765C162.889 21.5472 161.35 20.1518 158.186 19.5121L155.235 18.924C153.717 18.5988 153.154 18.0849 153.165 17.3087C153.154 16.3431 154.258 15.7139 155.659 15.7139C157.231 15.7139 158.165 16.5636 158.388 17.6021L162.529 17.3504Z" fill="#282A23"/>
<path d="M175.309 22.0098C175.32 24.1715 173.823 25.3047 172.198 25.3047C170.489 25.3047 169.385 24.1192 169.374 22.2198V12.7559H164.852V23.0172C164.862 26.7842 167.092 29.0816 170.372 29.0816C172.825 29.0816 174.586 27.8333 175.32 25.9444H175.49V28.8717H179.832V12.7559H175.309V22.0098Z" fill="#282A23"/>
<path d="M182.552 28.8707H187.075V19.1968C187.075 17.4133 188.222 16.2279 189.73 16.2279C191.216 16.2279 192.214 17.2352 192.214 18.8193V28.8707H196.598V19.0293C196.598 17.361 197.565 16.2279 199.21 16.2279C200.654 16.2279 201.737 17.12 201.737 18.9141V28.8707H206.249V18.0326C206.249 14.5384 204.147 12.5449 201.11 12.5449C198.722 12.5449 196.864 13.7516 196.195 15.598H196.025C195.505 13.7304 193.838 12.5449 191.598 12.5449C189.401 12.5449 187.733 13.6993 187.054 15.598H186.863V12.7549H182.552V28.8707Z" fill="#282A23"/>
</g>
<defs>
<clipPath id="clip0_1649_2">
<rect width="206" height="41" fill="white"/>
</clipPath>
</defs>
</svg>
