<svg width="130" height="130" viewBox="0 0 130 130" fill="none" xmlns="http://www.w3.org/2000/svg">
<circle cx="65" cy="65" r="65" fill="#C69459"/>
<circle cx="65" cy="65" r="30" fill="white"/>
<path d="M60.0681 65.213C58.1407 63.2125 49.1456 60.5966 47.3622 60.0921C46.9894 59.9867 46.5899 60.0963 46.3159 60.3806C46.0424 60.665 45.9363 61.079 46.0379 61.4664C46.5235 63.317 49.045 72.6507 50.9723 74.6512C52.0471 75.7664 53.844 76.6292 55.6622 76.9023C56.0869 76.966 56.499 76.9978 56.8976 76.9978C58.5194 76.9978 59.8997 76.4742 60.862 75.4756C62.0609 74.2315 62.5493 72.3153 62.2374 70.0797C61.9742 68.1934 61.1428 66.3288 60.0681 65.213ZM55.9718 74.6868C54.6122 74.4826 53.2491 73.8474 52.4984 73.0685C51.927 72.4755 50.4243 69.186 48.6373 62.7896C54.8014 64.6444 57.9714 66.2032 58.5428 66.7962C59.7471 68.0459 60.6196 71.009 59.925 72.92L55.4297 68.2553C55.0086 67.8182 54.3256 67.8182 53.904 68.2553C53.4824 68.6927 53.4824 69.4009 53.904 69.8384L58.3953 74.4994C57.7308 74.7556 56.8962 74.8254 55.9718 74.6868Z" fill="#C69459"/>
<path d="M83.6842 60.3825C83.4102 60.0987 83.0108 59.9886 82.6379 60.094C80.8545 60.5984 71.8599 63.2144 69.9321 65.215C68.8573 66.3302 68.0263 68.1949 67.7627 70.0816C67.4508 72.3172 67.9392 74.2334 69.1381 75.4774C70.1004 76.4761 71.4808 76.9997 73.1026 76.9997C73.5007 76.9997 73.9132 76.9684 74.338 76.9042C76.1561 76.6311 77.953 75.7683 79.0278 74.6531C80.9552 72.653 83.4766 63.3189 83.9623 61.4683C84.0638 61.0804 83.9578 60.6664 83.6842 60.3825ZM77.5017 73.0699C76.751 73.8488 75.3879 74.484 74.0283 74.6882C73.1034 74.8269 72.2689 74.7571 71.6049 74.4999L76.0961 69.8389C76.5172 69.4019 76.5172 68.6932 76.0961 68.2558C75.6749 67.8188 74.992 67.8188 74.5704 68.2558L70.0751 72.9205C69.3805 71.0094 70.253 68.0469 71.4573 66.7972C72.0287 66.2042 75.1988 64.6454 81.3628 62.7905C79.5753 69.1869 78.0731 72.4769 77.5017 73.0699Z" fill="#C69459"/>
<path d="M70.5831 58.794C70.5831 55.5991 68.0784 53 64.9996 53C61.9207 53 59.416 55.5991 59.416 58.794C59.416 61.9889 61.9207 64.5881 64.9996 64.5881C68.0789 64.5881 70.5831 61.9889 70.5831 58.794ZM64.9996 62.3496C63.1105 62.3496 61.5736 60.7547 61.5736 58.7945C61.5736 56.8343 63.1105 55.2394 64.9996 55.2394C66.889 55.2394 68.426 56.8343 68.426 58.7945C68.426 60.7547 66.889 62.3496 64.9996 62.3496Z" fill="#C69459"/>
<path d="M69.8146 20.1847C68.8423 20.0718 68.0357 19.7799 67.3946 19.3089C66.7634 18.8302 66.3115 18.21 66.0389 17.4484C65.7752 16.6879 65.6995 15.8276 65.8118 14.8674C65.9261 13.8895 66.2043 13.0568 66.6463 12.3692C67.0973 11.6827 67.6851 11.1787 68.4098 10.8574C69.1355 10.5272 69.9756 10.4175 70.93 10.5283C71.6525 10.6122 72.2847 10.8118 72.8264 11.127C73.3693 11.4334 73.7865 11.8468 74.0783 12.3673C74.38 12.8799 74.5349 13.4881 74.543 14.1919L72.6966 13.9775C72.6316 13.5284 72.4352 13.1586 72.1075 12.8683C71.7898 12.5701 71.341 12.3873 70.7612 12.3199C70.119 12.2454 69.589 12.3325 69.1711 12.5813C68.7632 12.8223 68.4475 13.1641 68.224 13.6067C68.0015 14.0404 67.8606 14.5107 67.8014 15.0174C67.74 15.5419 67.771 16.0501 67.8943 16.542C68.0177 17.0339 68.2539 17.4489 68.6032 17.7868C68.9614 18.1257 69.4571 18.332 70.0904 18.4056C70.4651 18.4491 70.8058 18.4346 71.1126 18.3621C71.4205 18.2807 71.6806 18.1442 71.8928 17.9526C72.114 17.762 72.2774 17.5242 72.3831 17.2391L74.2964 17.4613C74.1361 18.1365 73.8361 18.6919 73.3964 19.1274C72.9567 19.563 72.428 19.871 71.8102 20.0515C71.1934 20.2232 70.5282 20.2676 69.8146 20.1847Z" fill="white"/>
<path d="M79.1437 22.2635C78.4646 22.0298 77.9173 21.69 77.5018 21.244C77.0892 20.7895 76.8308 20.2603 76.7265 19.6562C76.6252 19.0438 76.6962 18.3864 76.9394 17.6842C77.1886 16.9651 77.5426 16.3957 78.0015 15.976C78.4718 15.5508 79.01 15.2862 79.616 15.1823C80.2221 15.0784 80.8561 15.1404 81.5182 15.3682C82.1973 15.6019 82.7374 15.9487 83.1386 16.4087C83.5398 16.8687 83.791 17.405 83.8924 18.0175C83.9937 18.6299 83.9198 19.2957 83.6707 20.0149C83.4274 20.7171 83.0763 21.278 82.6174 21.6977C82.1699 22.1118 81.6489 22.3681 81.0543 22.4665C80.4681 22.5678 79.8313 22.5001 79.1437 22.2635ZM79.681 20.6304C80.0715 20.7647 80.4148 20.7882 80.7111 20.7008C81.0074 20.6134 81.2534 20.4519 81.4491 20.2162C81.6561 19.975 81.8124 19.7021 81.9179 19.3975C82.0235 19.0929 82.0694 18.7821 82.0558 18.4649C82.0506 18.1506 81.96 17.8638 81.7839 17.6043C81.6192 17.3393 81.3373 17.1382 80.9384 17.0009C80.5564 16.8694 80.2143 16.8559 79.9121 16.9602C79.6129 17.0561 79.3598 17.2246 79.1527 17.4658C78.9541 17.71 78.8021 17.9843 78.6966 18.2889C78.5881 18.6019 78.5379 18.9113 78.546 19.2171C78.5626 19.5258 78.6604 19.8057 78.8394 20.0567C79.0185 20.3077 79.299 20.4989 79.681 20.6304Z" fill="white"/>
<path d="M84.608 24.2585L88.2052 18.1589L89.7265 19.0501L89.3914 19.8037C89.6846 19.6952 89.9737 19.6465 90.2587 19.6578C90.556 19.6658 90.8306 19.7125 91.0824 19.7977C91.342 19.8875 91.5647 19.9868 91.7505 20.0956C92.3389 20.4403 92.7206 20.8352 92.8956 21.2803C93.0783 21.73 93.1119 22.2117 92.9965 22.7254C92.8933 23.236 92.687 23.7536 92.3775 24.2784L90.3912 27.6465L88.7654 26.6941L90.6289 23.5343C90.7381 23.3491 90.8318 23.1548 90.91 22.9515C90.9883 22.7481 91.0303 22.5444 91.0362 22.3402C91.0498 22.1405 91.0103 21.9513 90.9178 21.7725C90.8253 21.5937 90.6591 21.434 90.4191 21.2934C90.1094 21.112 89.8046 21.0372 89.5045 21.0691C89.2045 21.101 88.9268 21.2186 88.6714 21.422C88.416 21.6254 88.1951 21.8853 88.0085 22.2016L86.2338 25.211L84.608 24.2585Z" fill="white"/>
<path d="M94.6783 31.0779C94.2227 30.7 93.8855 30.3272 93.6668 29.9595C93.455 29.5975 93.3789 29.22 93.4384 28.8268C93.5106 28.4326 93.7391 28.005 94.124 27.544L96.0713 25.2118L95.2637 24.5419L96.3407 23.252L97.1484 23.9218L98.3633 22.4667L99.8129 23.669L98.5979 25.1241L99.7886 26.1117L98.7116 27.4017L97.5209 26.4141L95.7459 28.5399C95.5563 28.767 95.4484 28.9802 95.422 29.1796C95.3957 29.379 95.5275 29.599 95.8175 29.8394L96.273 30.2173L95.196 31.5073L94.6783 31.0779Z" fill="white"/>
<path d="M98.1922 34.6327C97.979 34.3905 97.8021 34.1284 97.6615 33.8465C97.5336 33.5655 97.4601 33.2785 97.4412 32.9855C97.4222 32.6925 97.4696 32.407 97.5833 32.129C97.6969 31.851 97.8888 31.5939 98.1588 31.3578C98.5234 31.0391 98.8788 30.8593 99.2251 30.8184C99.5782 30.7717 99.9216 30.8226 100.256 30.9712C100.589 31.1198 100.919 31.3379 101.244 31.6254C101.574 31.9197 101.894 32.2417 102.201 32.5916L102.877 33.3586C103.072 33.1875 103.212 32.9999 103.295 32.7961C103.391 32.593 103.418 32.3855 103.374 32.1733C103.338 31.9553 103.222 31.7353 103.026 31.5132C102.902 31.3719 102.76 31.2517 102.601 31.1526C102.455 31.0542 102.31 30.9909 102.165 30.9624C102.021 30.934 101.883 30.9535 101.751 31.0211L100.489 29.5879C100.822 29.3686 101.158 29.2414 101.498 29.2065C101.844 29.1656 102.182 29.1972 102.513 29.3012C102.843 29.4051 103.154 29.5618 103.446 29.771C103.75 29.9812 104.027 30.2275 104.276 30.5101C104.957 31.2838 105.237 32.0505 105.118 32.8102C105.005 33.5639 104.543 34.2949 103.733 35.0032L100.857 37.5177L99.7377 36.2461L100.409 35.6238C100.024 35.6622 99.6833 35.621 99.3858 35.5001C99.0942 35.386 98.849 35.2431 98.6502 35.0716C98.4515 34.9001 98.2988 34.7538 98.1922 34.6327ZM99.6005 33.9729C99.8077 34.2084 100.045 34.3824 100.311 34.4948C100.577 34.6073 100.841 34.6499 101.104 34.6226C101.367 34.5954 101.599 34.4932 101.802 34.3161L101.934 34.201L101.081 33.2321C100.956 33.0908 100.828 32.9588 100.696 32.836C100.57 32.72 100.44 32.6259 100.304 32.5536C100.182 32.4822 100.053 32.4517 99.9191 32.4619C99.7848 32.4722 99.6501 32.5364 99.5151 32.6544C99.3801 32.7725 99.295 32.9065 99.2597 33.0564C99.2371 33.2071 99.2554 33.3637 99.3148 33.5261C99.3809 33.6827 99.4761 33.8316 99.6005 33.9729Z" fill="white"/>
<path d="M103.828 42.1936C103.457 41.5698 103.267 40.9593 103.256 40.3622C103.25 39.7727 103.411 39.2256 103.737 38.7209C104.071 38.2117 104.555 37.77 105.189 37.396C105.83 37.0175 106.457 36.8085 107.07 36.769C107.691 36.7249 108.266 36.8487 108.794 37.1403C109.327 37.4396 109.783 37.9088 110.163 38.548C110.456 39.0409 110.628 39.5323 110.679 40.0223C110.73 40.5123 110.658 40.9708 110.463 41.398C110.272 41.8328 109.945 42.2132 109.481 42.539L108.541 40.9564C108.77 40.7275 108.887 40.4764 108.892 40.2032C108.901 39.9377 108.826 39.6702 108.665 39.4006C108.459 39.0541 108.21 38.827 107.916 38.7194C107.627 38.6195 107.324 38.6009 107.006 38.6636C106.693 38.7339 106.405 38.8467 106.143 39.0017C105.857 39.1705 105.614 39.3763 105.414 39.6192C105.221 39.8576 105.104 40.1248 105.06 40.4208C105.029 40.72 105.112 41.0351 105.309 41.3663C105.474 41.6435 105.68 41.8496 105.927 41.9846C106.182 42.115 106.463 42.1311 106.77 42.0331L107.731 43.6504C107.206 43.9083 106.699 44.0044 106.211 43.9387C105.723 43.873 105.273 43.6862 104.861 43.3784C104.461 43.0737 104.116 42.6788 103.828 42.1936Z" fill="white"/>
<path d="M107.573 49.7832C107.355 49.2339 107.238 48.7456 107.223 48.3184C107.211 47.8995 107.326 47.5318 107.567 47.2153C107.82 46.9038 108.227 46.6377 108.786 46.4171L111.617 45.3011L111.231 44.3273L112.796 43.71L113.183 44.6838L114.949 43.9875L115.643 45.7353L113.876 46.4316L114.446 47.8673L112.881 48.4846L112.311 47.0489L109.73 48.0662C109.455 48.1748 109.258 48.3104 109.138 48.4728C109.019 48.6352 109.029 48.8912 109.168 49.2408L109.386 49.7901L107.82 50.4074L107.573 49.7832Z" fill="white"/>
<path d="M110.019 60.9923C109.93 60.0657 110.031 59.2873 110.323 58.6571C110.615 58.0359 111.074 57.5516 111.699 57.2043C112.325 56.866 113.094 56.6534 114.006 56.5665L119.235 56.0684L119.419 57.9795L114.095 58.4866C113.666 58.5275 113.265 58.6286 112.893 58.7899C112.53 58.9594 112.243 59.207 112.03 59.5329C111.828 59.8669 111.752 60.3012 111.803 60.8358C111.856 61.3793 112.012 61.787 112.273 62.0589C112.542 62.3299 112.875 62.505 113.27 62.5843C113.666 62.6635 114.074 62.6831 114.494 62.643L119.817 62.136L120 64.0471L114.771 64.5453C113.868 64.6313 113.072 64.5677 112.384 64.3545C111.705 64.1404 111.163 63.756 110.758 63.2012C110.353 62.6463 110.107 61.91 110.019 60.9923Z" fill="white"/>
<path d="M110.007 70.3161C110.043 69.9869 110.116 69.6526 110.225 69.3134C110.335 68.9741 110.49 68.6669 110.692 68.3917C110.903 68.1174 111.166 67.894 111.483 67.7213C111.809 67.5496 112.199 67.4569 112.652 67.443L112.445 69.3383C112.278 69.3742 112.13 69.4526 111.999 69.5735C111.867 69.7032 111.765 69.8542 111.692 70.0263C111.618 70.2074 111.571 70.3913 111.551 70.5782C111.537 70.7027 111.532 70.8283 111.536 70.9548C111.541 71.0813 111.564 71.2008 111.606 71.3134C111.648 71.426 111.705 71.5178 111.779 71.5888C111.861 71.6608 111.969 71.7041 112.103 71.7186C112.246 71.7341 112.363 71.7017 112.453 71.6215C112.543 71.5412 112.619 71.4234 112.681 71.2681C112.752 71.1138 112.821 70.9367 112.888 70.7369C113.008 70.3808 113.14 69.999 113.284 69.5915C113.428 69.1839 113.611 68.8391 113.831 68.5569C113.934 68.442 114.044 68.3415 114.162 68.2552C114.28 68.169 114.409 68.102 114.55 68.0542C114.691 68.0065 114.834 67.9726 114.981 67.9525C115.137 67.9334 115.299 67.933 115.469 67.9515C115.853 67.9931 116.17 68.1086 116.42 68.2978C116.679 68.4969 116.877 68.7436 117.017 69.0379C117.156 69.3321 117.243 69.6522 117.278 69.998C117.321 70.3449 117.324 70.6963 117.285 71.0522C117.232 71.5326 117.103 71.9688 116.898 72.3607C116.701 72.7535 116.423 73.0654 116.064 73.2965C115.713 73.5285 115.276 73.6476 114.751 73.6537L114.946 71.8652C115.147 71.8509 115.316 71.7478 115.455 71.5557C115.602 71.3647 115.692 71.1179 115.725 70.8153C115.737 70.7086 115.741 70.5919 115.736 70.4654C115.731 70.3478 115.711 70.2376 115.678 70.1349C115.644 70.0322 115.59 69.9453 115.516 69.8743C115.452 69.8043 115.357 69.7625 115.232 69.7489C115.134 69.7382 115.042 69.7552 114.955 69.7999C114.868 69.8535 114.792 69.9307 114.727 70.0317C114.661 70.1415 114.596 70.2741 114.534 70.4294C114.43 70.7242 114.33 71.0195 114.234 71.3152C114.147 71.6208 114.058 71.8903 113.97 72.1238C113.875 72.4106 113.743 72.6664 113.574 72.8912C113.404 73.1248 113.186 73.3037 112.919 73.4278C112.661 73.5618 112.335 73.6075 111.942 73.5648C111.496 73.5163 111.135 73.3871 110.86 73.1772C110.594 72.9682 110.392 72.7033 110.256 72.3823C110.118 72.0703 110.033 71.7324 110.001 71.3688C109.967 71.014 109.969 70.6631 110.007 70.3161Z" fill="white"/>
<path d="M112.557 83.1501L113.894 82.2937L114.486 83.4961L115.209 82.3627L116.445 83.3505L115.479 84.2908L116.783 84.6143L116.211 86.1069L115.023 85.4824L115.119 86.8123L113.532 86.7401L113.751 85.4152L112.511 85.906L112.086 84.3793L113.412 84.1938L112.557 83.1501Z" fill="white"/>
<path d="M100.885 93.1893C101.478 92.413 102.141 91.8699 102.874 91.56C103.609 91.2627 104.375 91.1912 105.171 91.3454C105.962 91.5067 106.744 91.8801 107.515 92.4656C108.301 93.0619 108.879 93.7248 109.247 94.4542C109.61 95.1907 109.746 95.9516 109.654 96.7368C109.569 97.5274 109.236 98.3038 108.654 99.0658C108.213 99.6427 107.719 100.083 107.171 100.387C106.63 100.697 106.06 100.844 105.462 100.829C104.866 100.826 104.262 100.649 103.65 100.298L104.776 98.8235C105.197 98.9966 105.616 99.0166 106.034 98.8835C106.453 98.7629 106.84 98.4712 107.193 98.0083C107.585 97.4955 107.779 96.9965 107.778 96.5114C107.777 96.0388 107.643 95.5939 107.375 95.1767C107.114 94.7649 106.78 94.4045 106.372 94.0955C105.951 93.7756 105.496 93.5433 105.009 93.3984C104.521 93.2535 104.043 93.2448 103.573 93.3721C103.098 93.5066 102.667 93.8267 102.281 94.3323C102.052 94.6315 101.891 94.9311 101.798 95.2311C101.711 95.5366 101.696 95.8292 101.754 96.1089C101.805 96.3957 101.928 96.657 102.12 96.8929L100.953 98.4205C100.452 97.939 100.125 97.3988 99.9733 96.7998C99.8213 96.2008 99.8247 95.5904 99.9836 94.9686C100.15 94.3522 100.45 93.7591 100.885 93.1893Z" fill="white"/>
<path d="M94.3384 100.141C94.8852 99.6769 95.4568 99.3794 96.0533 99.2491C96.6556 99.1255 97.2443 99.1723 97.8193 99.3894C98.4002 99.6133 98.9324 100.008 99.4159 100.573C99.911 101.152 100.223 101.745 100.353 102.353C100.482 102.972 100.438 103.569 100.22 104.142C100.002 104.715 99.6264 105.228 99.0933 105.681C98.5465 106.145 97.9725 106.433 97.3712 106.544C96.7699 106.655 96.1788 106.598 95.5979 106.375C95.0171 106.151 94.479 105.749 93.9839 105.17C93.5004 104.605 93.1938 104.018 93.064 103.411C92.9331 102.817 92.9762 102.239 93.193 101.679C93.403 101.124 93.7848 100.612 94.3384 100.141ZM95.4773 101.432C95.1629 101.699 94.9683 101.982 94.8935 102.281C94.8186 102.579 94.8334 102.873 94.9378 103.16C95.0411 103.461 95.1977 103.733 95.4074 103.979C95.6171 104.224 95.8625 104.421 96.1436 104.57C96.4178 104.725 96.7118 104.793 97.0255 104.774C97.3382 104.767 97.6552 104.627 97.9764 104.354C98.2839 104.093 98.4693 103.806 98.5325 103.494C98.6016 103.188 98.5844 102.885 98.481 102.585C98.3708 102.29 98.2108 102.02 98.0011 101.775C97.7856 101.523 97.5436 101.323 97.2752 101.175C96.9999 101.032 96.7084 100.974 96.4005 101C96.0926 101.027 95.7849 101.171 95.4773 101.432Z" fill="white"/>
<path d="M89.8441 103.823L93.2989 110.004L91.7574 110.86L91.2751 110.19C91.2205 110.497 91.1162 110.77 90.9621 111.009C90.8045 111.261 90.625 111.473 90.4238 111.646C90.2146 111.824 90.0159 111.965 89.8276 112.07C89.2314 112.401 88.6965 112.529 88.2227 112.453C87.7412 112.383 87.3074 112.168 86.9215 111.808C86.532 111.461 86.1887 111.021 85.8915 110.49L83.9838 107.077L85.6313 106.162L87.421 109.364C87.5259 109.552 87.6465 109.731 87.7827 109.901C87.919 110.071 88.074 110.21 88.2477 110.319C88.4136 110.432 88.5972 110.494 88.7987 110.505C89.0002 110.516 89.2226 110.454 89.4658 110.319C89.7796 110.144 89.9987 109.92 90.1231 109.646C90.2475 109.372 90.2864 109.074 90.2398 108.752C90.1932 108.429 90.0803 108.108 89.9011 107.787L88.1966 104.738L89.8441 103.823Z" fill="white"/>
<path d="M78.8387 109.019C79.3967 108.82 79.89 108.72 80.3189 108.718C80.7394 108.72 81.1044 108.847 81.414 109.097C81.7182 109.359 81.9719 109.773 82.175 110.337L83.2027 113.193L84.1917 112.84L84.7602 114.419L83.7712 114.773L84.4124 116.555L82.6372 117.189L81.996 115.407L80.5379 115.929L79.9694 114.349L81.4276 113.828L80.4908 111.224C80.3908 110.946 80.2612 110.745 80.1022 110.622C79.9432 110.498 79.6861 110.499 79.3311 110.626L78.7732 110.826L78.2048 109.246L78.8387 109.019Z" fill="white"/>
<path d="M73.9606 110.231C74.2784 110.172 74.5948 110.154 74.9098 110.177C75.2176 110.211 75.5028 110.294 75.7654 110.427C76.028 110.56 76.2503 110.746 76.4323 110.985C76.6144 111.224 76.7385 111.52 76.8047 111.872C76.894 112.347 76.8681 112.743 76.7269 113.061C76.5873 113.388 76.3683 113.656 76.0698 113.867C75.7714 114.077 75.4153 114.249 75.0016 114.381C74.579 114.514 74.1382 114.624 73.6792 114.71L72.673 114.898C72.721 115.153 72.8117 115.368 72.9452 115.543C73.0716 115.729 73.2373 115.858 73.4426 115.929C73.6494 116.008 73.8985 116.021 74.1898 115.967C74.3751 115.932 74.5511 115.872 74.7177 115.786C74.8771 115.711 75.0059 115.618 75.1041 115.509C75.2023 115.399 75.2559 115.271 75.2647 115.124L77.1447 114.772C77.1646 115.169 77.1031 115.522 76.9602 115.831C76.8189 116.149 76.6192 116.423 76.3611 116.654C76.1029 116.884 75.8091 117.071 75.4798 117.214C75.1433 117.368 74.7897 117.48 74.419 117.549C73.4039 117.739 72.5991 117.589 72.0044 117.099C71.4114 116.618 71.0156 115.849 70.817 114.794L70.112 111.046L71.7802 110.734L71.9755 111.627C72.1382 111.278 72.3476 111.006 72.6036 110.813C72.8507 110.621 73.0989 110.483 73.3483 110.4C73.5976 110.317 73.8018 110.261 73.9606 110.231ZM73.8125 111.775C73.5036 111.833 73.2327 111.947 72.9999 112.118C72.7671 112.289 72.5955 112.494 72.4852 112.734C72.3749 112.973 72.3445 113.224 72.3942 113.488L72.4264 113.66L73.6975 113.422C73.8828 113.388 74.0621 113.345 74.2353 113.294C74.3997 113.246 74.5476 113.181 74.6789 113.102C74.803 113.034 74.8948 112.939 74.9544 112.819C75.014 112.698 75.0272 112.55 74.9941 112.374C74.961 112.198 74.8888 112.057 74.7773 111.95C74.6587 111.854 74.5142 111.79 74.3437 111.758C74.1749 111.735 73.9979 111.741 73.8125 111.775Z" fill="white"/>
<path d="M64.5416 111.21C65.269 111.21 65.8932 111.358 66.414 111.653C66.9259 111.948 67.3166 112.364 67.586 112.902C67.8554 113.447 67.9901 114.087 67.9901 114.821C67.9902 115.564 67.851 116.209 67.5726 116.755C67.2942 117.31 66.8946 117.739 66.3738 118.044C65.8439 118.348 65.2064 118.5 64.461 118.5C63.8863 118.5 63.3744 118.397 62.9254 118.191C62.4763 117.985 62.1171 117.69 61.8477 117.305C61.5693 116.92 61.4076 116.446 61.3627 115.882L63.2082 115.882C63.289 116.195 63.4462 116.424 63.6797 116.567C63.9042 116.71 64.1736 116.782 64.4879 116.782C64.892 116.782 65.2153 116.683 65.4577 116.486C65.6912 116.289 65.8618 116.039 65.9696 115.734C66.0684 115.43 66.1178 115.126 66.1178 114.821C66.1177 114.49 66.0639 114.177 65.9561 113.882C65.8483 113.595 65.6777 113.358 65.4442 113.17C65.2017 112.991 64.8874 112.902 64.5013 112.902C64.178 112.902 63.8951 112.973 63.6526 113.116C63.4102 113.269 63.253 113.501 63.1812 113.815L61.2953 113.815C61.3402 113.233 61.5153 112.75 61.8206 112.365C62.126 111.98 62.5166 111.689 62.9925 111.492C63.4595 111.304 63.9759 111.21 64.5416 111.21Z" fill="white"/>
<path d="M56.0563 110.559C56.6417 110.651 57.1228 110.799 57.4995 111.004C57.8673 111.207 58.1266 111.492 58.2773 111.86C58.4178 112.236 58.4411 112.72 58.3471 113.312L57.8718 116.309L58.9096 116.473L58.6467 118.13L57.6089 117.967L57.3123 119.836L55.4496 119.543L55.7461 117.673L54.216 117.432L54.4789 115.775L56.009 116.016L56.4423 113.284C56.4886 112.992 56.4718 112.754 56.392 112.569C56.3122 112.384 56.0861 112.263 55.7135 112.204L55.1281 112.112L55.391 110.454L56.0563 110.559Z" fill="white"/>
<path d="M45.1141 106.952C45.9596 107.348 46.5802 107.831 46.976 108.402C47.3637 108.969 47.5484 109.609 47.5299 110.322C47.5033 111.031 47.2954 111.799 46.9062 112.625L44.6738 117.365L42.9301 116.549L45.2026 111.725C45.3857 111.336 45.5025 110.94 45.5528 110.539C45.5911 110.141 45.5236 109.769 45.3502 109.421C45.1649 109.077 44.8284 108.791 44.3406 108.563C43.8448 108.331 43.4131 108.257 43.0456 108.342C42.6743 108.436 42.3538 108.632 42.084 108.931C41.8142 109.23 41.5897 109.57 41.4103 109.95L39.1379 114.775L37.3942 113.959L39.6266 109.22C40.012 108.401 40.4719 107.751 41.0063 107.27C41.5369 106.796 42.1448 106.527 42.8302 106.462C43.5155 106.397 44.2768 106.56 45.1141 106.952Z" fill="white"/>
<path d="M37.1466 102.239C37.4125 102.438 37.664 102.67 37.9012 102.937C38.1384 103.204 38.3244 103.494 38.4592 103.807C38.5887 104.127 38.6472 104.467 38.6348 104.827C38.6169 105.194 38.4986 105.575 38.2796 105.971L36.7489 104.828C36.8027 104.667 36.8107 104.499 36.7729 104.326C36.728 104.147 36.6498 103.982 36.5384 103.832C36.4198 103.676 36.285 103.542 36.1341 103.429C36.0335 103.354 35.9275 103.286 35.8161 103.225C35.7047 103.164 35.5898 103.123 35.4712 103.102C35.3527 103.08 35.244 103.083 35.1452 103.11C35.0411 103.144 34.9486 103.215 34.8678 103.322C34.7817 103.437 34.7503 103.553 34.7737 103.671C34.7971 103.789 34.86 103.915 34.9624 104.047C35.0594 104.187 35.1772 104.336 35.3155 104.495C35.5617 104.78 35.824 105.088 36.1026 105.419C36.3811 105.75 36.586 106.082 36.7172 106.415C36.764 106.562 36.7946 106.707 36.809 106.852C36.8234 106.997 36.8154 107.142 36.7849 107.287C36.7545 107.432 36.7105 107.573 36.6531 107.709C36.5903 107.852 36.5077 107.992 36.4054 108.128C36.1738 108.436 35.9126 108.649 35.6217 108.767C35.3182 108.887 35.0039 108.932 34.6788 108.902C34.3537 108.872 34.0331 108.783 33.7169 108.637C33.3954 108.497 33.0909 108.32 32.8034 108.105C32.4153 107.815 32.1045 107.483 31.8708 107.107C31.6318 106.738 31.5041 106.341 31.4878 105.915C31.4661 105.496 31.5862 105.06 31.8483 104.607L33.2927 105.686C33.203 105.865 33.2058 106.063 33.3011 106.279C33.391 106.503 33.5581 106.706 33.8024 106.889C33.8887 106.953 33.9875 107.016 34.0988 107.076C34.203 107.132 34.3081 107.171 34.4141 107.194C34.5201 107.218 34.6224 107.216 34.7212 107.189C34.8146 107.169 34.899 107.109 34.9744 107.009C35.0336 106.93 35.0659 106.842 35.0713 106.746C35.0694 106.644 35.0415 106.539 34.9876 106.432C34.9265 106.319 34.8447 106.196 34.7423 106.064C34.5411 105.824 34.3371 105.588 34.1305 105.355C33.9113 105.124 33.7235 104.911 33.5671 104.716C33.3677 104.489 33.214 104.246 33.1062 103.986C32.9911 103.721 32.9479 103.443 32.9765 103.151C32.9926 102.861 33.119 102.559 33.356 102.243C33.6253 101.885 33.9206 101.642 34.2421 101.513C34.5581 101.391 34.8895 101.353 35.2361 101.4C35.5756 101.441 35.9106 101.54 36.2411 101.697C36.5645 101.849 36.8663 102.03 37.1466 102.239Z" fill="white"/>
<path d="M24.7593 97.8935L24.821 99.4766L23.4811 99.3748L24.0943 100.57L22.6128 101.131L22.29 99.8246L21.3488 100.78L20.3485 99.5314L21.4914 98.8279L20.2928 98.2356L21.1607 96.9091L22.195 97.7697L22.4002 96.4552L23.9356 96.8654L23.4233 98.0978L24.7593 97.8935Z" fill="white"/>
<path d="M21.9914 82.7721C22.3617 83.6752 22.4948 84.5202 22.3907 85.3071C22.2748 86.0892 21.9482 86.7831 21.4108 87.3888C20.8699 87.9862 20.1506 88.4678 19.2529 88.8335C18.3385 89.206 17.4725 89.3654 16.655 89.3116C15.834 89.2496 15.1074 88.98 14.4751 88.5027C13.8345 88.0288 13.3324 87.3486 12.9689 86.4621C12.6937 85.791 12.5637 85.1429 12.579 84.5179C12.586 83.8962 12.7477 83.3323 13.0641 82.8264C13.3688 82.3155 13.8283 81.8866 14.4427 81.5396L15.146 83.2546C14.7829 83.5282 14.5529 83.8782 14.456 84.3044C14.3475 84.7257 14.4036 85.2056 14.6244 85.7442C14.8691 86.3407 15.2016 86.7612 15.622 87.0057C16.0307 87.2453 16.4835 87.3558 16.9803 87.3371C17.4688 87.3218 17.95 87.2177 18.4238 87.0247C18.9142 86.8249 19.3458 86.5524 19.7184 86.2072C20.091 85.862 20.3414 85.4554 20.4697 84.9874C20.5945 84.5111 20.5363 83.9789 20.295 83.3906C20.1523 83.0426 19.9751 82.7523 19.7632 82.5195C19.543 82.2901 19.2975 82.1291 19.0266 82.0363C18.7524 81.9353 18.4645 81.9076 18.163 81.953L17.4342 80.1759C18.1049 79.9897 18.7377 79.9833 19.3327 80.1567C19.9277 80.3301 20.4536 80.6428 20.9106 81.0948C21.3593 81.5502 21.7196 82.1093 21.9914 82.7721Z" fill="white"/>
<path d="M19.3158 73.6205C19.4381 74.326 19.4035 74.9678 19.2121 75.5458C19.0118 76.1252 18.6715 76.6062 18.191 76.9887C17.7016 77.3727 17.0897 77.628 16.3553 77.7545C15.6031 77.884 14.9319 77.8498 14.3416 77.6517C13.741 77.4463 13.2488 77.1042 12.865 76.6253C12.4812 76.1464 12.2297 75.563 12.1104 74.875C11.9881 74.1694 12.0323 73.5306 12.2429 72.9584C12.4536 72.3862 12.8036 71.9081 13.2929 71.5241C13.7822 71.1401 14.403 70.8833 15.1552 70.7537C15.8897 70.6272 16.552 70.663 17.1423 70.8611C17.7222 71.0519 18.1988 71.3831 18.5722 71.8547C18.944 72.3175 19.1919 72.9061 19.3158 73.6205ZM17.6213 73.9395C17.551 73.5338 17.4059 73.2227 17.1861 73.0063C16.9663 72.7898 16.7057 72.653 16.4041 72.596C16.0922 72.5316 15.777 72.5268 15.4584 72.5817C15.1399 72.6366 14.8445 72.7465 14.5724 72.9114C14.2987 73.0676 14.0903 73.2851 13.9473 73.5641C13.7939 73.8357 13.7532 74.1788 13.825 74.5933C13.8938 74.9902 14.047 75.2954 14.2845 75.5088C14.5131 75.7238 14.7834 75.8634 15.0953 75.9278C15.4057 75.9833 15.7202 75.9837 16.0387 75.9288C16.3661 75.8724 16.6623 75.7669 16.9271 75.6123C17.1904 75.4489 17.3891 75.2285 17.5233 74.951C17.6574 74.6736 17.6901 74.3364 17.6213 73.9395Z" fill="white"/>
<path d="M18.4286 67.8383L11.3321 67.6516L11.3787 65.8935L12.2026 65.8211C11.9654 65.6179 11.7828 65.3893 11.6548 65.1352C11.518 64.872 11.4261 64.6099 11.3791 64.349C11.3324 64.0792 11.3118 63.8369 11.3175 63.6221C11.3355 62.9421 11.4976 62.4181 11.8038 62.0502C12.1103 61.6732 12.517 61.4108 13.024 61.263C13.5222 61.106 14.0765 61.0355 14.687 61.0516L18.6055 61.1546L18.5558 63.0335L14.8796 62.9369C14.6642 62.9312 14.4482 62.9434 14.2318 62.9735C14.0155 63.0037 13.8162 63.0656 13.634 63.1593C13.4521 63.244 13.305 63.37 13.1928 63.5372C13.0806 63.7043 13.0208 63.9266 13.0135 64.204C13.004 64.5619 13.0858 64.8639 13.259 65.1102C13.4321 65.3565 13.6698 65.5419 13.9719 65.6662C14.2741 65.7906 14.6092 65.8576 14.9772 65.8672L18.4783 65.9593L18.4286 67.8383Z" fill="white"/>
<path d="M19.5411 55.7592C19.4299 56.3394 19.2658 56.8139 19.0488 57.1827C18.8335 57.5426 18.5389 57.7918 18.165 57.9302C17.7839 58.0581 17.2979 58.0657 16.7069 57.9532L13.7166 57.3838L13.5195 58.4124L11.8656 58.0974L12.0628 57.0688L10.1972 56.7136L10.5511 54.8674L12.4167 55.2226L12.7074 53.7061L14.3613 54.0211L14.0706 55.5376L16.7962 56.0566C17.0872 56.112 17.3267 56.103 17.5145 56.0294C17.7023 55.9558 17.8316 55.7344 17.9024 55.3652L18.0136 54.7849L19.6675 55.0999L19.5411 55.7592Z" fill="white"/>
<path d="M20.9724 50.954C20.8622 51.257 20.7171 51.5377 20.537 51.7964C20.3516 52.0435 20.1347 52.246 19.8862 52.4037C19.6378 52.5615 19.364 52.6577 19.0648 52.6924C18.7656 52.7271 18.4472 52.6834 18.1095 52.5614C17.6536 52.3966 17.3242 52.1729 17.1214 51.8901C16.9101 51.6043 16.7894 51.2798 16.7591 50.9166C16.7289 50.5534 16.7619 50.1607 16.8582 49.7385C16.9575 49.3079 17.0868 48.8738 17.2459 48.4363L17.5949 47.4771C17.3501 47.3886 17.118 47.3571 16.8986 47.3825C16.6738 47.3965 16.4786 47.4735 16.313 47.6136C16.1389 47.7506 16.0014 47.958 15.9004 48.2357C15.8361 48.4124 15.7987 48.594 15.7881 48.7806C15.7722 48.9557 15.7865 49.1132 15.8311 49.2531C15.8758 49.393 15.9595 49.5042 16.0823 49.5867L15.4303 51.379C15.0772 51.1942 14.8035 50.962 14.6091 50.6823C14.4063 50.3996 14.271 50.0889 14.2031 49.7502C14.1353 49.4115 14.1231 49.0643 14.1665 48.7087C14.2045 48.3416 14.2878 47.9814 14.4164 47.628C14.7684 46.6603 15.3072 46.0458 16.0328 45.7843C16.7499 45.5199 17.615 45.5707 18.6281 45.9368L22.2246 47.2365L21.646 48.8268L20.7757 48.5409C20.9947 48.858 21.1227 49.1756 21.1598 49.4937C21.2 49.8034 21.1926 50.0863 21.1376 50.3425C21.0826 50.5987 21.0275 50.8026 20.9724 50.954ZM19.7137 50.0422C19.8208 49.7477 19.8597 49.457 19.8303 49.1703C19.8009 48.8836 19.7109 48.6321 19.5603 48.4158C19.4097 48.1995 19.2078 48.0456 18.9545 47.9541L18.7899 47.8946L18.3491 49.1063C18.2848 49.283 18.2305 49.4585 18.1861 49.6329C18.1449 49.7989 18.1251 49.9584 18.1267 50.1113C18.123 50.2528 18.1581 50.3797 18.2318 50.492C18.3056 50.6044 18.4269 50.691 18.5957 50.7521C18.7646 50.8131 18.9234 50.8229 19.0722 50.7814C19.2156 50.7285 19.3445 50.637 19.4586 50.5069C19.5644 50.3738 19.6494 50.2189 19.7137 50.0422Z" fill="white"/>
<path d="M24.9111 42.39C24.5405 43.0138 24.095 43.4738 23.5746 43.77C23.0588 44.0585 22.5004 44.1815 21.8995 44.1389C21.2909 44.0917 20.6698 43.8812 20.0362 43.5072C19.3948 43.1287 18.9094 42.6809 18.5799 42.164C18.2427 41.6425 18.0754 41.0809 18.0781 40.4791C18.0853 39.8697 18.2788 39.2454 18.6586 38.6062C18.9515 38.1133 19.3011 37.7267 19.7077 37.4466C20.1142 37.1664 20.5522 37.0088 21.0217 36.9739C21.4958 36.9312 21.9877 37.0343 22.4974 37.2831L21.5571 38.8658C21.2455 38.7755 20.9684 38.7939 20.7258 38.9212C20.4877 39.0408 20.2886 39.2353 20.1285 39.5049C19.9226 39.8514 19.8429 40.1789 19.8893 40.4871C19.9403 40.7877 20.0697 41.0617 20.2776 41.3092C20.4899 41.549 20.7275 41.7464 20.9902 41.9014C21.2761 42.0702 21.574 42.1836 21.8839 42.2417C22.1861 42.2952 22.4778 42.2697 22.759 42.1653C23.0371 42.0485 23.2746 41.8246 23.4713 41.4934C23.636 41.2162 23.7184 40.9371 23.7183 40.6562C23.7105 40.3707 23.5896 40.1174 23.3558 39.8961L24.3167 38.2788C24.7961 38.6138 25.1241 39.0102 25.3008 39.4682C25.4775 39.9261 25.5296 40.4094 25.4571 40.9179C25.3814 41.4141 25.1994 41.9048 24.9111 42.39Z" fill="white"/>
<path d="M29.7783 35.4727C29.4004 35.9278 29.0272 36.2648 28.6588 36.4837C28.2962 36.6957 27.9176 36.7726 27.523 36.7143C27.1272 36.6434 26.6976 36.4167 26.2341 36.0343L23.8891 34.0995L23.2191 34.9062L21.922 33.836L22.592 33.0294L21.129 31.8222L22.3315 30.3744L23.7946 31.5815L24.7824 30.3922L26.0795 31.4623L25.0916 32.6516L27.2292 34.4153C27.4575 34.6036 27.6717 34.7106 27.8718 34.7363C28.072 34.762 28.2923 34.6301 28.5328 34.3405L28.9108 33.8855L30.2078 34.9556L29.7783 35.4727Z" fill="white"/>
<path d="M38.4609 27.9099C37.6902 28.4357 36.9576 28.7238 36.2633 28.7745C35.5764 28.8201 34.9292 28.6541 34.3218 28.2767C33.7218 27.8942 33.1632 27.3263 32.6458 26.5729L29.6787 22.252L31.2683 21.1676L34.2887 25.5661C34.5321 25.9206 34.8148 26.2213 35.1366 26.4682C35.4608 26.7026 35.8174 26.8335 36.2063 26.8611C36.5975 26.8762 37.0155 26.7321 37.4601 26.4288C37.9122 26.1204 38.1946 25.7868 38.3073 25.428C38.4149 25.0617 38.4078 24.6869 38.286 24.3036C38.1643 23.9203 37.9842 23.555 37.7458 23.2079L34.7255 18.8094L36.3151 17.7251L39.2822 22.046C39.7945 22.792 40.1234 23.5167 40.269 24.22C40.4095 24.9159 40.3341 25.5747 40.0428 26.1964C39.7515 26.8181 39.2242 27.3892 38.4609 27.9099Z" fill="white"/>
<path d="M46.5814 23.4524C46.2747 23.58 45.946 23.678 45.5951 23.7465C45.2443 23.8149 44.8992 23.8275 44.56 23.7844C44.2173 23.733 43.8936 23.6107 43.5888 23.4174C43.2806 23.2159 43.011 22.9208 42.78 22.5319L44.5451 21.7974C44.6571 21.9254 44.7977 22.0172 44.967 22.0728C45.1446 22.125 45.3266 22.1414 45.5131 22.122C45.7079 22.0992 45.8923 22.0515 46.0663 21.9791C46.1824 21.9308 46.2949 21.8743 46.404 21.8095C46.5131 21.7447 46.607 21.6668 46.6857 21.5759C46.7644 21.4849 46.8171 21.3902 46.844 21.2918C46.8674 21.185 46.8532 21.0697 46.8013 20.9458C46.7459 20.8137 46.6612 20.7277 46.5472 20.6878C46.4332 20.648 46.293 20.6384 46.1265 20.6592C45.9566 20.6717 45.7677 20.697 45.5598 20.735C45.1889 20.8021 44.7896 20.8712 44.3621 20.9424C43.9345 21.0136 43.5436 21.0212 43.1891 20.965C43.0385 20.9306 42.8969 20.8829 42.7642 20.8217C42.6315 20.7605 42.5102 20.6801 42.4003 20.5803C42.2904 20.4806 42.1912 20.3715 42.1027 20.2532C42.0107 20.1265 41.9319 19.9848 41.8661 19.8278C41.7174 19.4727 41.6657 19.1402 41.711 18.8303C41.7612 18.5088 41.8819 18.2161 42.0731 17.9522C42.2642 17.6884 42.5034 17.4579 42.7906 17.2608C43.0744 17.0554 43.382 16.8838 43.7135 16.7458C44.161 16.5596 44.6065 16.4615 45.05 16.4516C45.49 16.4333 45.8983 16.5253 46.2749 16.7274C46.6481 16.9213 46.964 17.2457 47.2227 17.7006L45.557 18.3938C45.4478 18.2259 45.2753 18.1279 45.0398 18.0998C44.8007 18.0635 44.5403 18.104 44.2586 18.2212C44.1591 18.2626 44.0549 18.3157 43.9458 18.3805C43.8449 18.4418 43.7576 18.5121 43.6838 18.5914C43.6099 18.6706 43.5595 18.7594 43.5327 18.8579C43.5023 18.9481 43.5114 19.0511 43.5598 19.1667C43.5979 19.2575 43.6574 19.3298 43.7382 19.3834C43.8274 19.4336 43.932 19.4628 44.0522 19.471C44.1807 19.4757 44.3282 19.4677 44.4947 19.4469C44.8041 19.3957 45.1118 19.3404 45.4178 19.281C45.7286 19.2099 46.008 19.1567 46.256 19.1214C46.5536 19.0654 46.842 19.0569 47.1211 19.0959C47.4085 19.1315 47.6711 19.2357 47.9089 19.4083C48.1515 19.5692 48.3489 19.8314 48.5011 20.1948C48.6741 20.6078 48.7348 20.985 48.6833 21.3266C48.6282 21.6598 48.4927 21.9636 48.2767 22.2378C48.069 22.5085 47.8132 22.7459 47.5094 22.9499C47.2139 23.1504 46.9045 23.318 46.5814 23.4524Z" fill="white"/>
<path d="M56.6211 15.0329L55.223 14.2792L55.9936 13.1819L54.6489 13.0985L54.9198 11.5423L56.2123 11.9312L55.8671 10.6373L57.4546 10.4156L57.4796 11.7542L58.6017 11.0281L59.3046 12.4483L58.0347 12.8968L59.0649 13.7426L57.9285 14.8503L57.1255 13.783L56.6211 15.0329Z" fill="white"/>
</svg>
