<svg width="30" height="30" viewBox="0 0 30 30" fill="none" xmlns="http://www.w3.org/2000/svg">
<path d="M16.35 22.4132C14.0941 23.1651 11.5375 23.1425 10.1839 21.6386C8.83041 20.1346 6.42208 20.0234 5.51972 20.6476C4.61737 21.2719 4.20946 21.3357 4.44638 20.1532C6.89592 13.7667 8.07227 11.7601 8.07227 11.7601C8.66168 11.5375 9.27843 11.3954 9.90582 11.3377C10.9174 11.2533 11.3891 10.8021 11.3685 10.2644C11.3479 9.72667 10.0521 9.51241 9.08793 10.1346C9.08793 10.1346 10.9565 7.3616 11.2161 7.16794C11.4757 6.97429 13.0435 5.34057 15.6867 5.89888C18.3298 6.45718 20.4086 9.99037 20.4106 12.3039C20.4106 13.7708 20.1346 15.9834 20.1346 15.9834" stroke="white" stroke-width="0.8" stroke-linejoin="round"/>
<path d="M13.365 11.4036C13.4412 10.938 14.3106 10.3076 16.1813 10.8432C18.0519 11.3789 18.4165 13.2742 17.9221 13.6183C17.4277 13.9623 13.2352 12.1988 13.365 11.4036Z" stroke="white" stroke-width="0.8" stroke-linejoin="round"/>
<path d="M6.85058 17.5088C6.74551 16.6332 7.83122 16.0811 8.79949 15.9946C9.76777 15.9081 12.0525 16.3551 12.2894 17.96C12.5943 20.0078 9.93053 18.1186 9.11882 17.925C8.11964 17.686 6.98037 18.5842 6.85058 17.5088Z" stroke="white" stroke-width="0.8" stroke-linejoin="round"/>
<path d="M2.98348 13.2375C3.31913 13.2375 3.59123 12.9654 3.59123 12.6297C3.59123 12.2941 3.31913 12.022 2.98348 12.022C2.64783 12.022 2.37573 12.2941 2.37573 12.6297C2.37573 12.9654 2.64783 13.2375 2.98348 13.2375Z" stroke="white" stroke-width="0.8" stroke-linejoin="round"/>
<path d="M13.2081 3.7155C13.5437 3.7155 13.8158 3.4434 13.8158 3.10775C13.8158 2.7721 13.5437 2.5 13.2081 2.5C12.8724 2.5 12.6003 2.7721 12.6003 3.10775C12.6003 3.4434 12.8724 3.7155 13.2081 3.7155Z" stroke="white" stroke-width="0.8" stroke-linejoin="round"/>
<path d="M21.1668 7.3864C21.5025 7.3864 21.7746 7.1143 21.7746 6.77865C21.7746 6.443 21.5025 6.1709 21.1668 6.1709C20.8312 6.1709 20.5591 6.443 20.5591 6.77865C20.5591 7.1143 20.8312 7.3864 21.1668 7.3864Z" stroke="white" stroke-width="0.8" stroke-linejoin="round"/>
<path d="M27.2791 15.5466C27.6148 15.5466 27.8869 15.2745 27.8869 14.9388C27.8869 14.6032 27.6148 14.3311 27.2791 14.3311C26.9435 14.3311 26.6714 14.6032 26.6714 14.9388C26.6714 15.2745 26.9435 15.5466 27.2791 15.5466Z" stroke="white" stroke-width="0.8" stroke-linejoin="round"/>
<path d="M24.4552 14.2697C24.7908 14.2697 25.0629 13.9976 25.0629 13.6619C25.0629 13.3263 24.7908 13.0542 24.4552 13.0542C24.1195 13.0542 23.8474 13.3263 23.8474 13.6619C23.8474 13.9976 24.1195 14.2697 24.4552 14.2697Z" stroke="white" stroke-width="0.8" stroke-linejoin="round"/>
<path d="M9.23213 3.30957L9.6112 4.40764L10.7093 4.78671L9.6112 5.16784L9.23213 6.26591L8.851 5.16784L7.75293 4.78671L8.851 4.40764L9.23213 3.30957Z" stroke="white" stroke-width="0.8" stroke-linejoin="round"/>
<path d="M23.5401 6.7793L23.9213 7.87737L25.0193 8.25644L23.9213 8.63757L23.5401 9.73564L23.1611 8.63757L22.063 8.25644L23.1611 7.87737L23.5401 6.7793Z" stroke="white" stroke-width="0.8" stroke-linejoin="round"/>
<path d="M3.59151 7.23926L3.97264 8.33733L5.07071 8.7164L3.97264 9.09753L3.59151 10.1956L3.21037 9.09753L2.1123 8.7164L3.21037 8.33733L3.59151 7.23926Z" stroke="white" stroke-width="0.8" stroke-linejoin="round"/>
<path d="M17.3369 22.502H27.0197V23.6907C27.0197 24.6999 26.6188 25.6677 25.9052 26.3813C25.1916 27.0949 24.2238 27.4958 23.2146 27.4958H21.142C20.1329 27.4958 19.165 27.0949 18.4514 26.3813C17.7378 25.6677 17.3369 24.6999 17.3369 23.6907V22.502Z" stroke="white" stroke-width="0.8" stroke-linejoin="round"/>
<path d="M17.7612 21.1094H26.3233V22.502H17.7612V21.1094Z" stroke="white" stroke-width="0.8" stroke-linejoin="round"/>
<path d="M18.2767 21.1106C18.2767 21.1106 17.2466 19.8951 18.3941 18.9041C18.3941 18.9041 18.1881 17.256 19.6941 17.3261C20.1515 17.3467 21.1362 17.5795 22.0427 17.0871C22.4321 16.8811 22.3229 16.2259 21.4411 16.0714C21.7728 15.4534 23.5899 15.338 24.5788 17.0644C24.5788 17.0644 25.922 17.6289 25.6686 18.9041C25.6686 18.9041 27.3909 19.5222 26.3237 21.1106" stroke="white" stroke-width="0.8" stroke-linejoin="round"/>
<path d="M20.0996 19.3227C20.0996 19.3227 23.093 19.8419 25.6497 18.9849" stroke="white" stroke-width="0.8" stroke-linejoin="round"/>
<path d="M20.5591 17.3608C20.5591 17.3608 22.2587 17.9603 23.5401 17.5195" stroke="white" stroke-width="0.8" stroke-linejoin="round"/>
</svg>
