<svg width="30" height="30" viewBox="0 0 30 30" fill="none" xmlns="http://www.w3.org/2000/svg">
<g clip-path="url(#clip0_279_214)">
<path d="M9.64654 12.4296C10.0407 12.1253 10.5193 11.9504 11.0168 11.929V9.46209C12.5816 8.33102 15.4762 7.57089 18.7884 7.57089C22.1005 7.57089 24.9971 8.33102 26.5619 9.46209V11.9229C27.0536 11.9219 27.5338 12.0711 27.9383 12.3506C31.2687 10.2425 28.2261 8.04926 28.2241 7.51211C28.2241 4.39254 24.8552 1.01148 20.6573 0.782432C19.4127 0.739189 18.1674 0.739189 16.9215 0.782432C12.7215 1.01148 9.34857 4.39254 9.35262 7.51211C9.3506 8.05332 6.46616 10.4209 9.64654 12.4296Z" stroke="white" stroke-width="0.8" stroke-linejoin="round"/>
<path d="M26.5599 11.9223V9.46151C24.995 8.33044 22.1005 7.57031 18.7863 7.57031C15.4721 7.57031 12.5796 8.33044 11.0147 9.46151V11.9284C10.4127 11.9862 9.85374 12.2663 9.44701 12.714C9.04029 13.1617 8.81494 13.7448 8.81494 14.3496C8.81494 14.9545 9.04029 15.5376 9.44701 15.9853C9.85374 16.433 10.4127 16.7131 11.0147 16.7709V17.902C11.0151 18.6298 11.1873 19.3472 11.5174 19.9959H13.885C13.9207 19.9959 13.956 20.0029 13.9889 20.0166C14.0219 20.0302 14.0518 20.0502 14.077 20.0754C14.1023 20.1007 14.1223 20.1306 14.1359 20.1636C14.1496 20.1965 14.1566 20.2318 14.1566 20.2675V22.6999H16.2444C16.28 22.6996 16.3153 22.7064 16.3482 22.7199C16.3812 22.7333 16.4111 22.7531 16.4364 22.7782C16.4616 22.8032 16.4817 22.833 16.4953 22.8659C16.509 22.8987 16.516 22.9339 16.516 22.9695V24.0154C16.5163 24.0512 16.5095 24.0866 16.4959 24.1197C16.4824 24.1528 16.4624 24.1828 16.4371 24.2081C16.4118 24.2334 16.3818 24.2534 16.3487 24.2669C16.3156 24.2805 16.2802 24.2873 16.2444 24.2871H16.1796C16.8286 24.6207 17.5477 24.7951 18.2775 24.7958H19.0559C20.1149 24.7962 21.1416 24.431 21.9626 23.7621L24.8531 21.4107C25.3856 20.9791 25.815 20.4342 26.1103 19.8157C26.4055 19.1971 26.5591 18.5205 26.5599 17.8351V16.781C27.205 16.781 27.8237 16.5248 28.2798 16.0686C28.736 15.6124 28.9923 14.9938 28.9923 14.3486C28.9923 13.7035 28.736 13.0848 28.2798 12.6287C27.8237 12.1725 27.205 11.9162 26.5599 11.9162V11.9223Z" stroke="white" stroke-width="0.8" stroke-linejoin="round"/>
<path d="M11.7749 6.45993C11.7749 6.45993 18.539 3.49036 25.7147 6.58966" stroke="white" stroke-width="0.8" stroke-linejoin="round"/>
<path d="M18.7864 5.13495V3.09375" stroke="white" stroke-width="0.8" stroke-linejoin="round"/>
<path d="M20.9329 5.33141C20.9329 5.33141 22.1815 5.001 22.2403 3.6875" stroke="white" stroke-width="0.8" stroke-linejoin="round"/>
<path d="M23.9268 5.79983C23.9268 5.79983 25.1105 5.88294 25.52 4.86133" stroke="white" stroke-width="0.8" stroke-linejoin="round"/>
<path d="M16.6316 5.13414C16.6316 5.13414 15.3829 4.80374 15.3262 3.49023" stroke="white" stroke-width="0.8" stroke-linejoin="round"/>
<path d="M13.7999 5.79976C13.7999 5.79976 12.6162 5.87679 12.2087 4.86328" stroke="white" stroke-width="0.8" stroke-linejoin="round"/>
<path d="M3.0466 26.5831H3.5493C3.62134 26.5831 3.69043 26.5545 3.74136 26.5036C3.7923 26.4526 3.82092 26.3835 3.82092 26.3115V24.771L13.8972 24.7608C13.9328 24.7608 13.968 24.7538 14.0008 24.7401C14.0337 24.7264 14.0635 24.7064 14.0885 24.6812C14.1136 24.6559 14.1334 24.6259 14.1468 24.593C14.1603 24.5601 14.167 24.5248 14.1668 24.4892V24.2865H16.2566C16.2922 24.2865 16.3274 24.2795 16.3603 24.2658C16.3931 24.2521 16.4229 24.2321 16.448 24.2068C16.473 24.1816 16.4929 24.1516 16.5063 24.1187C16.5197 24.0857 16.5265 24.0505 16.5262 24.0149V22.969C16.5262 22.8969 16.4976 22.8278 16.4467 22.7769C16.3957 22.726 16.3266 22.6973 16.2546 22.6973H14.1668V20.2649C14.1668 20.1929 14.1382 20.1238 14.0872 20.0729C14.0363 20.0219 13.9672 19.9933 13.8952 19.9933L3.81889 20.0034V18.4649C3.81889 18.4294 3.81185 18.3941 3.79818 18.3613C3.7845 18.3285 3.76447 18.2986 3.73922 18.2736C3.71397 18.2485 3.68401 18.2287 3.65106 18.2153C3.61812 18.2019 3.58285 18.1951 3.54727 18.1953H3.03039C2.99438 18.1948 2.95862 18.2014 2.9252 18.2148C2.89177 18.2283 2.86135 18.2482 2.8357 18.2735C2.81004 18.2987 2.78967 18.3289 2.77577 18.3621C2.76187 18.3953 2.75471 18.4309 2.75471 18.467V21.4548L1.28513 21.4649V20.5406C1.28516 20.4699 1.25766 20.4021 1.20846 20.3513C1.15926 20.3006 1.09224 20.2711 1.02162 20.269C0.949581 20.269 0.880494 20.2976 0.829555 20.3485C0.778617 20.3995 0.75 20.4686 0.75 20.5406V24.2622C0.751049 24.2979 0.759118 24.333 0.773746 24.3655C0.788375 24.3981 0.809276 24.4274 0.835254 24.4519C0.861232 24.4764 0.891779 24.4955 0.925148 24.5082C0.958517 24.5208 0.994054 24.5268 1.02973 24.5257C1.10179 24.5246 1.17057 24.4954 1.22133 24.4443C1.2721 24.3931 1.30082 24.3241 1.30135 24.252V23.3277H2.77093V26.3155C2.77119 26.3513 2.77856 26.3866 2.7926 26.4195C2.80665 26.4524 2.8271 26.4821 2.85275 26.507C2.8784 26.5319 2.90875 26.5515 2.94203 26.5645C2.97532 26.5776 3.01086 26.5839 3.0466 26.5831Z" stroke="white" stroke-width="0.8" stroke-linejoin="round"/>
<path d="M16.5242 23.5353L18.4802 23.5312" stroke="white" stroke-width="0.8" stroke-linejoin="round"/>
<path d="M12.4399 21.0324C12.4807 21.0321 12.5211 21.0399 12.5589 21.0554C12.5966 21.0709 12.6309 21.0937 12.6598 21.1226C12.6886 21.1514 12.7114 21.1857 12.7269 21.2235C12.7424 21.2612 12.7503 21.3017 12.75 21.3425V22.2121C12.7503 22.253 12.7424 22.2935 12.727 22.3314C12.7115 22.3692 12.6887 22.4037 12.6599 22.4327C12.6311 22.4617 12.5968 22.4847 12.559 22.5004C12.5213 22.5161 12.4808 22.5242 12.4399 22.5242C12.3991 22.5245 12.3586 22.5167 12.3209 22.5012C12.2831 22.4857 12.2488 22.4628 12.22 22.434C12.1911 22.4051 12.1683 22.3709 12.1528 22.3331C12.1373 22.2954 12.1295 22.2549 12.1297 22.2141V21.6546H9.12975V22.2141C9.12975 22.2965 9.09714 22.3756 9.03904 22.4341C8.98094 22.4926 8.90206 22.5257 8.81962 22.5263C8.73753 22.5257 8.65896 22.4929 8.60091 22.4348C8.54286 22.3768 8.51002 22.2982 8.50949 22.2161V21.6567H5.51154V22.2161C5.51154 22.2984 5.47886 22.3773 5.4207 22.4354C5.36254 22.4936 5.28366 22.5263 5.20141 22.5263C5.11897 22.5263 5.03987 22.4937 4.98139 22.4356C4.92291 22.3774 4.88978 22.2986 4.88925 22.2161C4.88925 22.2161 4.88925 21.381 4.88925 21.3465C4.89222 21.2683 4.92451 21.194 4.9797 21.1384C5.0349 21.0828 5.10897 21.05 5.18722 21.0465L12.4318 21.0324M12.4318 20.627L5.18722 20.6411C5.09308 20.6411 4.99987 20.6597 4.91292 20.6958C4.82598 20.7319 4.74701 20.7848 4.68054 20.8514C4.61407 20.9181 4.56141 20.9972 4.52557 21.0843C4.48973 21.1713 4.47142 21.2646 4.47168 21.3587V22.2303C4.47275 22.4199 4.54883 22.6014 4.68328 22.7351C4.81773 22.8688 4.99963 22.9438 5.18924 22.9438C5.28338 22.9438 5.37659 22.9253 5.46354 22.8892C5.55048 22.8531 5.62945 22.8002 5.69592 22.7335C5.76239 22.6669 5.81505 22.5878 5.85089 22.5007C5.88673 22.4137 5.90505 22.3204 5.90478 22.2263V22.0722H8.09395V22.2263C8.08877 22.3236 8.10347 22.4209 8.13714 22.5123C8.17081 22.6038 8.22275 22.6874 8.2898 22.7581C8.35685 22.8288 8.43759 22.8851 8.52711 22.9236C8.61663 22.9621 8.71306 22.9819 8.8105 22.9819C8.90794 22.9819 9.00436 22.9621 9.09388 22.9236C9.1834 22.8851 9.26415 22.8288 9.33119 22.7581C9.39824 22.6874 9.45018 22.6038 9.48386 22.5123C9.51753 22.4209 9.53222 22.3236 9.52705 22.2263V22.0722H11.7142V22.2283C11.7142 22.4181 11.7896 22.6001 11.9238 22.7343C12.058 22.8684 12.24 22.9438 12.4297 22.9438C12.6195 22.9438 12.8015 22.8684 12.9357 22.7343C13.0699 22.6001 13.1453 22.4181 13.1453 22.2283C13.1453 22.2283 13.1453 21.3932 13.1453 21.3587C13.1447 21.1691 13.0692 20.9874 12.9351 20.8533C12.801 20.7193 12.6193 20.6437 12.4297 20.6432L12.4318 20.627Z" fill="white"/>
<path d="M24.7235 23.4258L25.2789 25.0291L26.8822 25.5845L25.2789 26.1399L24.7235 27.7433L24.1681 26.1399L22.5647 25.5845L24.1681 25.0291L24.7235 23.4258Z" stroke="white" stroke-width="0.8" stroke-linejoin="round"/>
<path d="M21.5877 26.4121L21.9525 27.4662L23.0066 27.831L21.9525 28.1959L21.5877 29.2499L21.2208 28.1959L20.1667 27.831L21.2208 27.4662L21.5877 26.4121Z" stroke="white" stroke-width="0.8" stroke-linejoin="round"/>
<path d="M5.92306 11.2422L6.28995 12.2962L7.34399 12.6611L6.28995 13.028L5.92306 14.082L5.5582 13.028L4.50415 12.6611L5.5582 12.2962L5.92306 11.2422Z" stroke="white" stroke-width="0.8" stroke-linejoin="round"/>
</g>
<defs>
<clipPath id="clip0_279_214">
<rect width="30" height="30" fill="white"/>
</clipPath>
</defs>
</svg>
