<svg width="40" height="40" viewBox="0 0 40 40" fill="none" xmlns="http://www.w3.org/2000/svg">
<g clip-path="url(#clip0_403_841)">
<path d="M20.5506 9.04346H17.9035C15.3706 9.05208 12.9164 9.9252 10.9472 11.5183C8.97793 13.1115 7.61159 15.3292 7.07422 17.8045C7.30587 17.8532 7.51387 17.9797 7.6636 18.163C7.81333 18.3463 7.89575 18.5754 7.89713 18.8121V31.6877C8.86728 33.8602 10.4445 35.7061 12.4389 37.0034C14.4334 38.3006 16.7602 38.994 19.1395 39.0001H19.3147C21.7882 38.9933 24.2028 38.244 26.2457 36.8494C28.2886 35.4547 29.8657 33.4789 30.7729 31.1777L29.3837 30.6332C29.3046 30.6034 29.2338 30.5553 29.1769 30.4928C29.12 30.4303 29.0788 30.3553 29.0565 30.2738C29.0342 30.1923 29.0315 30.1066 29.0487 30.0239C29.0659 29.9412 29.1024 29.8637 29.1553 29.7978L30.1096 28.6151C30.1632 28.5497 30.2314 28.4979 30.3088 28.4638C30.3861 28.4297 30.4704 28.4144 30.5548 28.4189C30.6392 28.4235 30.7214 28.4479 30.7946 28.4901C30.8678 28.5323 30.9301 28.5912 30.9763 28.662L31.3518 29.2471C31.5342 28.403 31.6265 27.5419 31.6271 26.6782V20.1074C31.6148 17.1747 30.4434 14.3659 28.3685 12.2933C26.2935 10.2207 23.4833 9.05252 20.5506 9.04346Z" stroke="#C69459" stroke-linejoin="round"/>
<path d="M20.3061 1.00001H18.1471C15.7195 0.998077 13.3235 1.5507 11.142 2.61571C8.96045 3.68072 7.05101 5.22998 5.55936 7.14527V12.7524H7.04874V15.2837H2.26144C2.20384 15.8451 2.1746 16.409 2.17383 16.9733V17.7806H2.33653V15.6154H5.55936V17.7868H6.86413C6.93461 17.7863 7.00494 17.7936 7.07377 17.8088C7.61114 15.3334 8.97748 13.1157 10.9467 11.5226C12.916 9.92942 15.3701 9.0563 17.9031 9.04768H20.5502C23.4856 9.05676 26.2981 10.2271 28.3735 12.303C30.4489 14.379 31.6184 17.1919 31.6267 20.1273V27.1643C32.2387 27.1643 32.8448 27.0436 33.4101 26.809C33.9754 26.5744 34.4889 26.2305 34.9211 25.7971C35.3533 25.3638 35.6958 24.8494 35.9289 24.2834C36.1619 23.7175 36.2811 23.1111 36.2794 22.4991V16.9733C36.2815 14.8751 35.8697 12.7971 35.0677 10.8582C34.2657 8.91926 33.0892 7.15756 31.6055 5.67389C30.1219 4.19022 28.3602 3.01372 26.4213 2.21171C24.4824 1.40971 22.4043 0.99795 20.3061 1.00001Z" stroke="#C69459" stroke-linejoin="round"/>
<path d="M2.17383 16.9721V17.7794H2.33653V15.6142H4.50803C4.54245 15.5078 4.57061 15.3983 4.60503 15.3013H2.26144C2.20447 15.8564 2.17523 16.4141 2.17383 16.9721Z" stroke="#C69459" stroke-linejoin="round"/>
<path d="M20.3073 1.00001H18.1483C15.7207 0.998077 13.3247 1.5507 11.1432 2.61571C8.96164 3.68072 7.0522 5.22998 5.56055 7.14527V12.7524H5.63251C8.05432 7.88058 12.5976 4.49818 18.1483 4.49818H20.3386C29.2749 4.49818 35.6267 13.2999 34.6504 22.9809L34.3125 26.3101C34.9234 25.8805 35.4214 25.3096 35.7641 24.646C36.1067 23.9824 36.284 23.2459 36.2806 22.4991V16.9733C36.2827 14.8751 35.8709 12.7971 35.0689 10.8582C34.2669 8.91926 33.0904 7.15756 31.6067 5.67389C30.1231 4.19022 28.3614 3.01372 26.4225 2.21171C24.4836 1.40971 22.4055 0.99795 20.3073 1.00001Z" stroke="#C69459" stroke-linejoin="round"/>
<path d="M9.09766 18.9747C9.09766 18.9747 12.5395 15.8708 16.7573 18.9747" stroke="#C69459" stroke-linejoin="round"/>
<path d="M29.416 18.976C29.416 18.976 25.073 16.0473 21.5279 18.976C20.5892 19.7551 19.4472 21.1162 20.0354 24.4798C20.22 25.553 21.0273 29.1357 21.0273 29.1357C21.0273 29.1357 20.0542 30.2996 18.5898 30.2996" stroke="#C69459" stroke-linejoin="round"/>
<path d="M9.80469 21.6084C9.80469 21.6084 12.5394 24.0646 15.8623 21.6084" stroke="#C69459" stroke-linejoin="round"/>
<path d="M28.6676 21.6084C28.6676 21.6084 25.2258 23.9238 22.4316 21.6084" stroke="#C69459" stroke-linejoin="round"/>
<path d="M16.5234 33.0083C16.5234 33.0083 16.708 34.4695 19.4459 34.4695" stroke="#C69459" stroke-linejoin="round"/>
<path d="M21.9869 33.0083C21.9869 33.0083 21.8023 34.4695 19.0645 34.4695" stroke="#C69459" stroke-linejoin="round"/>
<path d="M9.09839 22.2807C9.09839 22.2807 10.6629 23.9203 13.7073 24.0423C14.8702 24.0718 16.0264 23.8587 17.1023 23.4165C17.1023 25.1875 17.3213 27.0962 14.8338 27.6344C13.6828 27.8359 12.4979 27.6938 11.4272 27.2258C10.3565 26.7578 9.44743 25.9846 8.81365 25.0029C8.52266 24.2551 8.3537 21.7863 9.09839 22.2807Z" stroke="#C69459" stroke-linejoin="round"/>
<path d="M40.0039 37.0615L39.2824 37.9548L30.7941 31.0988L31.5155 30.2055L40.0039 37.0615Z" stroke="#C69459" stroke-linejoin="round"/>
<path d="M29.1523 29.8069L30.1067 28.6242C30.1603 28.5588 30.2285 28.507 30.3059 28.4729C30.3832 28.4388 30.4675 28.4235 30.5519 28.428C30.6363 28.4326 30.7185 28.457 30.7917 28.4992C30.8649 28.5415 30.9272 28.6003 30.9734 28.6711L31.8276 29.9978L30.8545 31.1993L29.3839 30.633C29.3061 30.603 29.2364 30.5554 29.1803 30.4937C29.1243 30.4321 29.0834 30.3583 29.0609 30.278C29.0384 30.1978 29.0349 30.1134 29.0508 30.0316C29.0667 29.9499 29.1015 29.8729 29.1523 29.8069Z" stroke="#C69459" stroke-linejoin="round"/>
<path d="M30.9011 28.5774L28.7734 26.8564" stroke="#C69459" stroke-linejoin="round"/>
<path d="M29.9056 28.8812L28.2285 27.5264" stroke="#C69459" stroke-linejoin="round"/>
<path d="M29.3615 29.5511L27.6875 28.1963" stroke="#C69459" stroke-linejoin="round"/>
<path d="M29.2742 30.5906L27.1465 28.8696" stroke="#C69459" stroke-linejoin="round"/>
<path d="M6.86805 17.7798H1.02943C0.460889 17.7798 0 18.2407 0 18.8092V37.1136C0 37.6821 0.460889 38.143 1.02943 38.143H6.86805C7.43659 38.143 7.89748 37.6821 7.89748 37.1136V18.8092C7.89748 18.2407 7.43659 17.7798 6.86805 17.7798Z" stroke="#C69459" stroke-linejoin="round"/>
<path d="M5.56032 5.28811C5.56032 5.06283 5.18797 4.88135 4.73427 4.88135H3.16979C2.71297 4.88135 2.34375 5.06283 2.34375 5.28811V12.7507H5.56032V5.28811Z" stroke="#C69459" stroke-linejoin="round"/>
<path d="M2.33594 15.6079H5.55876V17.7794H2.33594V15.6079Z" stroke="#C69459" stroke-linejoin="round"/>
<path d="M0.845703 12.7534H7.05042V15.2847H0.845703V12.7534Z" stroke="#C69459" stroke-linejoin="round"/>
<path d="M3.10352 17.7798H4.79315V24.2692H3.10352V17.7798Z" stroke="#C69459" stroke-linejoin="round"/>
<path d="M3.10352 29.9556V31.4387C3.10352 32.3242 3.48212 32.5933 3.94833 32.5933C4.41455 32.5933 4.79002 32.3242 4.79002 31.4387V29.9556H3.10352Z" stroke="#C69459" stroke-linejoin="round"/>
<path d="M0 24.2686H7.89748V29.9539H0V24.2686Z" stroke="#C69459" stroke-linejoin="round"/>
<path d="M2.13718 25.8313C2.13904 25.9359 2.10964 26.0387 2.05275 26.1265C1.99585 26.2143 1.91405 26.2831 1.81781 26.3241C1.72157 26.3652 1.61526 26.3766 1.51251 26.3568C1.40976 26.3371 1.31523 26.2872 1.24103 26.2134C1.16682 26.1397 1.11631 26.0454 1.09597 25.9428C1.07563 25.8402 1.08637 25.7338 1.12683 25.6373C1.16729 25.5408 1.23563 25.4586 1.32309 25.4012C1.41055 25.3438 1.51316 25.3137 1.61778 25.315C1.75449 25.3166 1.88521 25.3714 1.98218 25.4678C2.07915 25.5642 2.13475 25.6946 2.13718 25.8313ZM3.94885 25.315C3.84488 25.315 3.74325 25.3458 3.6568 25.4036C3.57036 25.4613 3.50298 25.5434 3.4632 25.6395C3.42341 25.7355 3.413 25.8412 3.43328 25.9432C3.45357 26.0452 3.50363 26.1388 3.57715 26.2123C3.65066 26.2859 3.74433 26.3359 3.8463 26.3562C3.94826 26.3765 4.05396 26.3661 4.15001 26.3263C4.24606 26.2865 4.32816 26.2191 4.38592 26.1327C4.44368 26.0462 4.47451 25.9446 4.47451 25.8406C4.47369 25.7015 4.41805 25.5683 4.31964 25.4698C4.22124 25.3714 4.08801 25.3158 3.94885 25.315ZM6.28305 25.315C6.17922 25.3156 6.07789 25.3469 5.99186 25.4051C5.90583 25.4632 5.83894 25.5455 5.79963 25.6416C5.76033 25.7377 5.75036 25.8433 5.771 25.9451C5.79163 26.0469 5.84194 26.1402 5.91558 26.2134C5.98922 26.2866 6.08289 26.3364 6.18477 26.3564C6.28665 26.3765 6.39218 26.3659 6.48805 26.326C6.58392 26.2861 6.66584 26.2187 6.72346 26.1324C6.78109 26.046 6.81184 25.9445 6.81184 25.8406C6.81184 25.7713 6.79814 25.7027 6.77153 25.6388C6.74492 25.5748 6.70592 25.5167 6.65677 25.4678C6.60763 25.419 6.54931 25.3803 6.48517 25.3541C6.42103 25.3279 6.35234 25.3146 6.28305 25.315Z" fill="#C69459"/>
<path d="M29.415 22.2765C29.415 22.2765 27.8506 23.9192 24.803 24.0413C23.6411 24.0712 22.4858 23.8581 21.4112 23.4155C21.4112 25.1865 21.1921 27.0951 23.6765 27.6333C23.8712 27.6659 24.0676 27.6868 24.2648 27.6959C24.4245 27.6995 24.5781 27.7581 24.6997 27.8617C24.8266 27.9655 24.9228 28.1019 24.9779 28.2563C25.0331 28.4106 25.0451 28.5771 25.0126 28.7378C24.8499 29.5607 23.9268 31.0783 25.216 31.0783C26.4269 31.0783 26.1328 29.5732 25.9701 28.7503C25.9137 28.4719 25.8668 28.2622 25.8512 28.0933C25.8362 27.9704 25.8659 27.8463 25.9348 27.7434C26.0037 27.6406 26.1073 27.566 26.2266 27.5332C27.6641 27.1548 28.9077 26.2517 29.7123 25.0018C29.9876 24.254 30.1566 21.7853 29.415 22.2765Z" stroke="#C69459" stroke-linejoin="round"/>
</g>
<defs>
<clipPath id="clip0_403_841">
<rect width="40" height="40" fill="white"/>
</clipPath>
</defs>
</svg>
