<svg width="30" height="30" viewBox="0 0 30 30" fill="none" xmlns="http://www.w3.org/2000/svg">
<path d="M16.4756 15.5859C16.752 15.9526 17.3567 16.206 18.0592 16.206C18.7618 16.206 19.3665 15.9526 19.6429 15.5859" stroke="white" stroke-linejoin="round"/>
<path d="M13.7476 12.9673C13.7476 12.9673 12.8186 12.2609 12.0853 12.1841C11.352 12.1073 10.421 12.3396 9.29419 12.9653" stroke="white" stroke-linejoin="round"/>
<path d="M16.2527 12.9668C16.2527 12.9668 17.1818 12.2603 17.915 12.1855C18.6483 12.1106 19.5793 12.341 20.7042 12.9668" stroke="white" stroke-linejoin="round"/>
<path d="M16.4756 15.5859C16.752 15.9526 17.3567 16.206 18.0592 16.206C18.7618 16.206 19.3665 15.9526 19.6429 15.5859" stroke="white" stroke-linejoin="round"/>
<path d="M10.3574 15.5859C10.6338 15.9526 11.2385 16.206 11.9411 16.206C12.6436 16.206 13.2483 15.9526 13.5247 15.5859" stroke="white" stroke-linejoin="round"/>
<path d="M11.0754 5.27345C11.0754 5.27345 12.9067 5.24849 12.9067 7.45986" stroke="white" stroke-linejoin="round"/>
<path d="M13.1797 20.5762C13.4791 20.9754 14.1817 21.2557 14.9995 21.2557C15.8172 21.2557 16.5217 20.9754 16.8211 20.5762" stroke="white" stroke-linejoin="round"/>
<path d="M5.00024 26.9037V11.5873C5.00024 6.5772 9.48632 2.5 14.9994 2.5C20.5124 2.5 25.0004 6.5772 25.0004 11.5873V26.9037" stroke="white" stroke-linejoin="round"/>
<path d="M7.9948 14.5911C7.97304 14.1854 7.96217 13.7701 7.96217 13.3453C7.96217 9.94569 11.1141 7.193 14.9975 7.193C18.8808 7.193 22.0366 9.94953 22.0366 13.3491C22.0366 13.7791 22.0251 14.1918 22.0078 14.5949H22.05V10.7673C22.05 7.12006 18.8769 4.1543 14.9975 4.1543C11.118 4.1543 7.94873 7.12966 7.94873 10.7673V14.5968L7.9948 14.5911Z" stroke="white" stroke-linejoin="round"/>
<path d="M22.0095 14.5914C22.0268 14.1883 22.0383 13.7756 22.0383 13.3456C22.0383 9.94605 18.8863 7.19336 14.9972 7.19336C11.1082 7.19336 7.96196 9.94605 7.96196 13.3456C7.96196 13.7718 7.97283 14.1871 7.99459 14.5914C7.18068 14.6989 6.65088 15.0368 6.65088 16.0542C6.66031 16.6565 6.84755 17.2426 7.18909 17.7389C7.53063 18.2351 8.01121 18.6194 8.57047 18.8433C8.90786 18.3953 9.34317 18.0302 9.84315 17.776C10.3118 17.5159 10.831 17.3601 11.3654 17.3192C11.5371 17.3091 11.7094 17.3213 11.8779 17.3557C11.8988 17.3606 11.9184 17.37 11.9353 17.3832C11.9522 17.3965 11.9661 17.4133 11.9758 17.4324L12.4768 18.373C12.4863 18.3925 12.4913 18.4138 12.4913 18.4354C12.4913 18.457 12.4863 18.4784 12.4768 18.4978C12.2849 19.0007 11.7359 19.5555 10.993 19.9509C10.4745 20.241 9.892 20.3974 9.29799 20.4059C9.96104 21.6694 10.8983 22.7686 12.0411 23.6231C11.9099 23.2831 11.8009 22.9349 11.7147 22.5808L12.7628 22.0049C13.3849 22.6897 13.9136 23.454 14.335 24.2777C14.4444 24.4869 14.5404 24.6789 14.6287 24.8651C14.7509 24.8876 14.8749 24.8998 14.9992 24.9015C16.4753 24.9015 20.3107 23.0453 21.4144 18.8395C21.9771 18.6177 22.4614 18.2339 22.8058 17.7367C23.1503 17.2395 23.3394 16.6513 23.3494 16.0465C23.3494 15.0387 22.8215 14.7009 22.0095 14.5914ZM12.736 22.0164L11.757 22.5366C11.7437 22.5439 11.729 22.5485 11.7139 22.55C11.6988 22.5515 11.6836 22.55 11.6691 22.5456C11.6546 22.5411 11.6411 22.5337 11.6295 22.524C11.6179 22.5142 11.6084 22.5022 11.6015 22.4886L11.35 22.001C11.2704 21.8446 11.2553 21.6632 11.3081 21.4957C11.3608 21.3283 11.4772 21.1883 11.6322 21.1058C11.7871 21.0232 11.9683 21.0049 12.1366 21.0545C12.305 21.1042 12.4472 21.218 12.5325 21.3714L12.7936 21.8609C12.8 21.8749 12.8036 21.89 12.8042 21.9054C12.8048 21.9208 12.8024 21.9362 12.797 21.9506C12.7917 21.9651 12.7835 21.9783 12.7731 21.9896C12.7626 22.0009 12.75 22.01 12.736 22.0164Z" stroke="white" stroke-linejoin="round"/>
<path d="M11.9857 17.4311L12.4848 18.3717C12.4943 18.3912 12.4992 18.4125 12.4992 18.4341C12.4992 18.4557 12.4943 18.4771 12.4848 18.4965C12.2928 18.9994 11.7438 19.5542 11.0009 19.9496C10.258 20.3451 9.49596 20.4852 8.96616 20.3681C8.94516 20.3634 8.9254 20.3543 8.90819 20.3414C8.89098 20.3285 8.87671 20.3121 8.86634 20.2932L8.36725 19.3526C8.35789 19.3332 8.35303 19.3119 8.35303 19.2903C8.35303 19.2687 8.35789 19.2473 8.36725 19.2279C8.55921 18.723 9.10821 18.1702 9.85109 17.7747C10.3197 17.5146 10.8389 17.3588 11.3733 17.3179C11.545 17.3078 11.7173 17.32 11.8858 17.3544C11.9069 17.3595 11.9267 17.369 11.9439 17.3822C11.9611 17.3954 11.9753 17.4121 11.9857 17.4311Z" stroke="white" stroke-linejoin="round"/>
<path d="M14.3006 27.4037C13.6831 26.719 13.1602 25.9546 12.7458 25.1309C12.302 24.3267 11.9621 23.4695 11.7341 22.5798L12.7822 22.0039C13.3976 22.6899 13.9197 23.4541 14.3352 24.2767C14.7861 25.0799 15.1276 25.9398 15.3506 26.8336L14.3006 27.4037Z" stroke="white" stroke-linejoin="round"/>
<path d="M11.6171 21.0943C11.4619 21.1795 11.3468 21.3225 11.2968 21.4923C11.2468 21.6621 11.266 21.8447 11.3502 22.0003L11.6113 22.4879C11.6182 22.5015 11.6277 22.5135 11.6393 22.5233C11.6509 22.533 11.6644 22.5404 11.6789 22.5449C11.6934 22.5493 11.7086 22.5508 11.7237 22.5493C11.7388 22.5478 11.7535 22.5432 11.7668 22.5359L12.7458 22.0157C12.7724 22.0011 12.7922 21.9767 12.8012 21.9477C12.8102 21.9187 12.8075 21.8873 12.7938 21.8602L12.5327 21.3707C12.4914 21.2918 12.4347 21.222 12.3661 21.1653C12.2974 21.1085 12.2182 21.066 12.1329 21.0403C12.0477 21.0146 11.9581 21.0061 11.8696 21.0154C11.781 21.0246 11.6951 21.0515 11.6171 21.0943Z" stroke="white" stroke-linejoin="round"/>
<path d="M15.4637 28.3228C15.3069 28.4062 15.1233 28.424 14.9534 28.3722C14.7835 28.3203 14.6411 28.2031 14.5576 28.0464L14.2966 27.5569C14.2829 27.5298 14.2802 27.4984 14.2891 27.4694C14.2981 27.4404 14.318 27.416 14.3446 27.4014L15.3235 26.8812C15.3369 26.8739 15.3515 26.8693 15.3666 26.8678C15.3817 26.8662 15.397 26.8677 15.4115 26.8722C15.426 26.8767 15.4394 26.884 15.451 26.8938C15.4626 26.9036 15.4722 26.9156 15.479 26.9292L15.7401 27.4167C15.8236 27.5735 15.8413 27.7571 15.7895 27.927C15.7377 28.0969 15.6205 28.2393 15.4637 28.3228Z" stroke="white" stroke-linejoin="round"/>
<path d="M8.67224 19.9121C8.67224 19.9121 8.12899 20.1041 8.22689 20.5763C8.32479 21.0485 8.94098 22.7761 11.2694 21.7837" stroke="white" stroke-linejoin="round"/>
<path d="M12.3098 17.9438C12.3098 17.9438 12.759 17.5868 13.1084 17.9246C13.4577 18.2625 14.5845 19.7041 12.4999 21.1399" stroke="white" stroke-linejoin="round"/>
</svg>
