<svg width="30" height="30" viewBox="0 0 30 30" fill="none" xmlns="http://www.w3.org/2000/svg">
<path d="M11.8303 0.75V5.50706L10.4695 6.17447C9.37248 6.73116 8.20893 7.14553 7.00701 7.40752C5.66578 7.68785 4.46147 8.42025 3.59556 9.48219C2.72964 10.5441 2.25464 11.8712 2.25 13.2414V29.2143" stroke="white" stroke-linejoin="round"/>
<path d="M26.7143 22.5236V13.2414C26.7099 11.9218 26.2691 10.6406 25.4604 9.59778C24.6517 8.55492 23.5207 7.80894 22.2437 7.47616C20.8576 7.14137 19.5095 6.66555 18.2203 6.05614L17.1222 5.5189V0.75" stroke="white" stroke-linejoin="round"/>
<path d="M7.62708 14.9785V29.2142" stroke="white" stroke-linejoin="round"/>
<path d="M16.6749 25.922C20.5948 25.922 23.7726 22.7443 23.7726 18.8243C23.7726 14.9043 20.5948 11.7266 16.6749 11.7266C12.755 11.7266 9.57727 14.9043 9.57727 18.8243C9.57727 22.7443 12.755 25.922 16.6749 25.922Z" stroke="white" stroke-linejoin="round"/>
<path d="M16.6749 23.8709C19.4616 23.8709 21.7206 21.6118 21.7206 18.8251C21.7206 16.0384 19.4616 13.7793 16.6749 13.7793C13.8882 13.7793 11.6292 16.0384 11.6292 18.8251C11.6292 21.6118 13.8882 23.8709 16.6749 23.8709Z" stroke="white" stroke-linejoin="round"/>
<path d="M26.7119 26.8851L22.9253 23.0983C22.8105 22.983 22.6747 22.8906 22.5253 22.8262C22.0278 23.5513 21.4003 24.178 20.6746 24.6746C20.7407 24.823 20.8329 24.9585 20.9467 25.0745L24.7334 28.8613C24.9855 29.1104 25.3256 29.2502 25.6801 29.2502C26.0345 29.2502 26.3747 29.1104 26.6267 28.8613L26.7001 28.7855C26.953 28.5347 27.0962 28.1939 27.0985 27.8377C27.1007 27.4816 26.9617 27.139 26.7119 26.8851Z" stroke="white" stroke-linejoin="round"/>
<path d="M22.6035 11.0872C22.9943 11.0872 23.3111 10.7703 23.3111 10.3795C23.3111 9.9887 22.9943 9.67188 22.6035 9.67188C22.2127 9.67188 21.8959 9.9887 21.8959 10.3795C21.8959 10.7703 22.2127 11.0872 22.6035 11.0872Z" stroke="white" stroke-linejoin="round"/>
<path d="M17.8086 9.32739C18.1994 9.32739 18.5162 9.01057 18.5162 8.61975C18.5162 8.22893 18.1994 7.91211 17.8086 7.91211C17.4178 7.91211 17.101 8.22893 17.101 8.61975C17.101 9.01057 17.4178 9.32739 17.8086 9.32739Z" stroke="white" stroke-linejoin="round"/>
<path d="M9.93456 10.3821C10.3254 10.3821 10.6422 10.0653 10.6422 9.67444C10.6422 9.28362 10.3254 8.9668 9.93456 8.9668C9.54375 8.9668 9.22693 9.28362 9.22693 9.67444C9.22693 10.0653 9.54375 10.3821 9.93456 10.3821Z" stroke="white" stroke-linejoin="round"/>
<path d="M15.1081 18.4251C15.499 18.4251 15.8158 18.1082 15.8158 17.7174C15.8158 17.3266 15.499 17.0098 15.1081 17.0098C14.7173 17.0098 14.4005 17.3266 14.4005 17.7174C14.4005 18.1082 14.7173 18.4251 15.1081 18.4251Z" stroke="white" stroke-linejoin="round"/>
<path d="M18.0547 17.8723C18.4455 17.8723 18.7623 17.5555 18.7623 17.1647C18.7623 16.7739 18.4455 16.457 18.0547 16.457C17.6639 16.457 17.347 16.7739 17.347 17.1647C17.347 17.5555 17.6639 17.8723 18.0547 17.8723Z" stroke="white" stroke-linejoin="round"/>
<path d="M17.3826 21.5305C17.7734 21.5305 18.0902 21.2137 18.0902 20.8229C18.0902 20.4321 17.7734 20.1152 17.3826 20.1152C16.9917 20.1152 16.6749 20.4321 16.6749 20.8229C16.6749 21.2137 16.9917 21.5305 17.3826 21.5305Z" stroke="white" stroke-linejoin="round"/>
<path d="M5.61547 14.2415C6.00629 14.2415 6.32311 13.9246 6.32311 13.5338C6.32311 13.143 6.00629 12.8262 5.61547 12.8262C5.22466 12.8262 4.90784 13.143 4.90784 13.5338C4.90784 13.9246 5.22466 14.2415 5.61547 14.2415Z" stroke="white" stroke-linejoin="round"/>
<path d="M4.90783 24.5754C5.29865 24.5754 5.61547 24.2586 5.61547 23.8678C5.61547 23.477 5.29865 23.1602 4.90783 23.1602C4.51701 23.1602 4.2002 23.477 4.2002 23.8678C4.2002 24.2586 4.51701 24.5754 4.90783 24.5754Z" stroke="white" stroke-linejoin="round"/>
<path d="M5.61547 20.4348C6.00629 20.4348 6.32311 20.118 6.32311 19.7272C6.32311 19.3364 6.00629 19.0195 5.61547 19.0195C5.22466 19.0195 4.90784 19.3364 4.90784 19.7272C4.90784 20.118 5.22466 20.4348 5.61547 20.4348Z" stroke="white" stroke-linejoin="round"/>
<path d="M13.5225 26.4805C14.3799 26.8357 15.2914 27.043 16.2181 27.0934" stroke="white" stroke-linejoin="round"/>
<path d="M8.64014 20.8379C9.13279 22.7772 10.3095 24.4733 11.9535 25.6139" stroke="white" stroke-linejoin="round"/>
</svg>
