<svg width="30" height="30" viewBox="0 0 30 30" fill="none" xmlns="http://www.w3.org/2000/svg">
<path d="M11.8303 0.75V5.50706L10.4695 6.17447C9.37248 6.73116 8.20893 7.14553 7.00701 7.40752C5.66578 7.68785 4.46147 8.42025 3.59556 9.48219C2.72964 10.5441 2.25464 11.8712 2.25 13.2414V29.2143" stroke="white" stroke-width="0.8" stroke-linejoin="round"/>
<path d="M26.7142 22.5236V13.2414C26.7098 11.9218 26.2689 10.6406 25.4603 9.59778C24.6516 8.55492 23.5206 7.80894 22.2435 7.47616C20.8575 7.14137 19.5093 6.66555 18.2202 6.05614L17.1221 5.5189V0.75" stroke="white" stroke-width="0.8" stroke-linejoin="round"/>
<path d="M7.62695 14.9775V29.2132" stroke="white" stroke-width="0.8" stroke-linejoin="round"/>
<path d="M16.6748 25.923C20.5947 25.923 23.7725 22.7452 23.7725 18.8253C23.7725 14.9053 20.5947 11.7275 16.6748 11.7275C12.7549 11.7275 9.57715 14.9053 9.57715 18.8253C9.57715 22.7452 12.7549 25.923 16.6748 25.923Z" stroke="white" stroke-width="0.8" stroke-linejoin="round"/>
<path d="M16.6747 23.8699C19.4613 23.8699 21.7204 21.6108 21.7204 18.8241C21.7204 16.0374 19.4613 13.7783 16.6747 13.7783C13.888 13.7783 11.6289 16.0374 11.6289 18.8241C11.6289 21.6108 13.888 23.8699 16.6747 23.8699Z" stroke="white" stroke-width="0.8" stroke-linejoin="round"/>
<path d="M26.7122 26.8851L22.9255 23.0983C22.8107 22.983 22.675 22.8906 22.5255 22.8262C22.028 23.5513 21.4005 24.178 20.6748 24.6746C20.741 24.823 20.8331 24.9585 20.947 25.0745L24.7337 28.8613C24.9857 29.1104 25.3259 29.2502 25.6803 29.2502C26.0348 29.2502 26.3749 29.1104 26.627 28.8613L26.7004 28.7855C26.9533 28.5347 27.0965 28.1939 27.0987 27.8377C27.1009 27.4816 26.9619 27.139 26.7122 26.8851Z" stroke="white" stroke-width="0.8" stroke-linejoin="round"/>
<path d="M22.6031 11.0877C22.994 11.0877 23.3108 10.7708 23.3108 10.38C23.3108 9.98919 22.994 9.67236 22.6031 9.67236C22.2123 9.67236 21.8955 9.98919 21.8955 10.38C21.8955 10.7708 22.2123 11.0877 22.6031 11.0877Z" stroke="white" stroke-width="0.8" stroke-linejoin="round"/>
<path d="M17.8082 9.32788C18.199 9.32788 18.5159 9.01106 18.5159 8.62024C18.5159 8.22942 18.199 7.9126 17.8082 7.9126C17.4174 7.9126 17.1006 8.22942 17.1006 8.62024C17.1006 9.01106 17.4174 9.32788 17.8082 9.32788Z" stroke="white" stroke-width="0.8" stroke-linejoin="round"/>
<path d="M9.9342 10.3816C10.325 10.3816 10.6418 10.0648 10.6418 9.67395C10.6418 9.28313 10.325 8.96631 9.9342 8.96631C9.54338 8.96631 9.22656 9.28313 9.22656 9.67395C9.22656 10.0648 9.54338 10.3816 9.9342 10.3816Z" stroke="white" stroke-width="0.8" stroke-linejoin="round"/>
<path d="M15.108 18.4251C15.4988 18.4251 15.8157 18.1082 15.8157 17.7174C15.8157 17.3266 15.4988 17.0098 15.108 17.0098C14.7172 17.0098 14.4004 17.3266 14.4004 17.7174C14.4004 18.1082 14.7172 18.4251 15.108 18.4251Z" stroke="white" stroke-width="0.8" stroke-linejoin="round"/>
<path d="M18.0543 17.8733C18.4451 17.8733 18.762 17.5565 18.762 17.1657C18.762 16.7748 18.4451 16.458 18.0543 16.458C17.6635 16.458 17.3467 16.7748 17.3467 17.1657C17.3467 17.5565 17.6635 17.8733 18.0543 17.8733Z" stroke="white" stroke-width="0.8" stroke-linejoin="round"/>
<path d="M17.3824 21.53C17.7733 21.53 18.0901 21.2132 18.0901 20.8224C18.0901 20.4316 17.7733 20.1147 17.3824 20.1147C16.9916 20.1147 16.6748 20.4316 16.6748 20.8224C16.6748 21.2132 16.9916 21.53 17.3824 21.53Z" stroke="white" stroke-width="0.8" stroke-linejoin="round"/>
<path d="M5.61486 14.241C6.00568 14.241 6.3225 13.9241 6.3225 13.5333C6.3225 13.1425 6.00568 12.8257 5.61486 12.8257C5.22405 12.8257 4.90723 13.1425 4.90723 13.5333C4.90723 13.9241 5.22405 14.241 5.61486 14.241Z" stroke="white" stroke-width="0.8" stroke-linejoin="round"/>
<path d="M4.90783 24.5759C5.29865 24.5759 5.61547 24.2591 5.61547 23.8683C5.61547 23.4775 5.29865 23.1606 4.90783 23.1606C4.51701 23.1606 4.2002 23.4775 4.2002 23.8683C4.2002 24.2591 4.51701 24.5759 4.90783 24.5759Z" stroke="white" stroke-width="0.8" stroke-linejoin="round"/>
<path d="M5.61486 20.4338C6.00568 20.4338 6.3225 20.117 6.3225 19.7262C6.3225 19.3354 6.00568 19.0186 5.61486 19.0186C5.22405 19.0186 4.90723 19.3354 4.90723 19.7262C4.90723 20.117 5.22405 20.4338 5.61486 20.4338Z" stroke="white" stroke-width="0.8" stroke-linejoin="round"/>
<path d="M13.5225 26.4814C14.3799 26.8367 15.2914 27.044 16.2181 27.0944" stroke="white" stroke-width="0.8" stroke-linejoin="round"/>
<path d="M8.63965 20.8389C9.1323 22.7782 10.309 24.4743 11.953 25.6149" stroke="white" stroke-width="0.8" stroke-linejoin="round"/>
</svg>
