<svg width="31" height="31" viewBox="0 0 31 31" fill="none" xmlns="http://www.w3.org/2000/svg">
<path d="M28.3391 13.4767C28.8085 11.6945 29.1138 9.87295 29.251 8.03501C29.2959 7.45371 29.2196 6.86942 29.0269 6.31916C28.8342 5.7689 28.5293 5.26466 28.1315 4.83839C27.7337 4.41212 27.2518 4.07311 26.7162 3.84283C26.1805 3.61255 25.6029 3.49603 25.0199 3.50065H24.925C24.109 3.49688 23.2941 3.44044 22.4854 3.33168C19.2634 2.91967 17.1617 1.90123 16.0044 1.15824C15.6717 0.945235 15.2849 0.832031 14.8899 0.832031C14.4948 0.832031 14.1081 0.945235 13.7754 1.15824C12.6181 1.89892 10.5094 2.91967 7.2944 3.33168C6.48489 3.44037 5.66922 3.49681 4.85246 3.50065H4.75987C4.1755 3.49377 3.5961 3.60862 3.05854 3.8379C2.52098 4.06717 2.03704 4.40585 1.63751 4.83237C1.23799 5.25889 0.931638 5.76391 0.737953 6.31529C0.544267 6.86667 0.467492 7.45234 0.512512 8.03501C0.94072 13.7267 3.21601 22.6589 12.4422 29.0982C13.1581 29.5965 14.0095 29.8636 14.8818 29.8636C15.7541 29.8636 16.6055 29.5965 17.3214 29.0982C18.0683 28.5751 18.7719 28.035 19.4324 27.4779" stroke="white" stroke-linejoin="round"/>
<path d="M18.4994 25.5922C17.7532 26.2383 16.9737 26.8448 16.164 27.4092C15.7882 27.6715 15.341 27.8122 14.8828 27.8122C14.4246 27.8122 13.9774 27.6715 13.6017 27.4092C8.2942 23.6989 4.82225 18.6993 3.30153 12.5169C2.93174 11.0151 2.68709 9.48533 2.5701 7.94316C2.54865 7.6356 2.59118 7.32693 2.69499 7.03663C2.79879 6.74632 2.96164 6.48068 3.17325 6.25646C3.38486 6.03224 3.64064 5.8543 3.92445 5.73388C4.20827 5.61345 4.51396 5.55315 4.82225 5.55678H4.85002C5.75416 5.55334 6.65716 5.49226 7.55352 5.37392C9.7564 5.12356 11.897 4.4824 13.8748 3.48055C14.1895 3.31626 14.5393 3.23047 14.8944 3.23047C15.2494 3.23047 15.5992 3.31626 15.914 3.48055C17.8918 4.4824 20.0324 5.12356 22.2353 5.37392C23.1309 5.4921 24.0331 5.55318 24.9364 5.55678H24.9596C25.2663 5.55572 25.57 5.61791 25.8516 5.73947C26.1332 5.86103 26.3867 6.03936 26.5964 6.2633C26.806 6.48724 26.9671 6.752 27.0698 7.04103C27.1725 7.33007 27.2145 7.63717 27.1932 7.94316C27.0758 9.48299 26.8312 11.0105 26.4618 12.5099" stroke="white" stroke-linejoin="round"/>
<path d="M24.4897 14.3359V26.2933" stroke="white" stroke-linejoin="round"/>
<path d="M23.2097 14.1621L24.4897 14.9514L25.8137 14.1621" stroke="white" stroke-linejoin="round"/>
<path d="M23.2097 17.0508L24.4897 17.8424L25.8137 17.0508" stroke="white" stroke-linejoin="round"/>
<path d="M22.5247 15.3027L24.4805 16.5087L26.4989 15.3027" stroke="white" stroke-linejoin="round"/>
<path d="M25.8137 26.5318L24.5337 25.7402L23.2097 26.5318" stroke="white" stroke-linejoin="round"/>
<path d="M25.8137 23.6432L24.5337 22.8516L23.2097 23.6432" stroke="white" stroke-linejoin="round"/>
<path d="M26.4989 25.3915L24.5453 24.1855L22.5247 25.3915" stroke="white" stroke-linejoin="round"/>
<path d="M29.5427 17.3594L19.2056 23.3705" stroke="white" stroke-linejoin="round"/>
<path d="M29.0496 16.1641L29.0103 17.6686L30.3597 18.4139" stroke="white" stroke-linejoin="round"/>
<path d="M26.552 17.6152L26.5127 19.1197L27.8598 19.8674" stroke="white" stroke-linejoin="round"/>
<path d="M27.7186 16.1465L27.6584 18.4426L29.7162 19.5814" stroke="white" stroke-linejoin="round"/>
<path d="M19.666 24.6346L19.7054 23.1301L18.356 22.3848" stroke="white" stroke-linejoin="round"/>
<path d="M22.1636 23.1818L22.2029 21.6773L20.8535 20.9297" stroke="white" stroke-linejoin="round"/>
<path d="M20.997 24.6517L21.0572 22.3556L18.9995 21.2168" stroke="white" stroke-linejoin="round"/>
<path d="M29.6584 23.2746L19.2888 17.3145" stroke="white" stroke-linejoin="round"/>
<path d="M30.4453 22.25L29.1213 22.9675L29.1491 24.5091" stroke="white" stroke-linejoin="round"/>
<path d="M27.9409 20.8105L26.6169 21.5281L26.6424 23.0696" stroke="white" stroke-linejoin="round"/>
<path d="M29.7972 21.0879L27.7788 22.1804L27.8182 24.5344" stroke="white" stroke-linejoin="round"/>
<path d="M18.4231 18.3427L19.7471 17.6275L19.7216 16.0859" stroke="white" stroke-linejoin="round"/>
<path d="M20.9277 19.7822L22.2517 19.0669L22.2262 17.5254" stroke="white" stroke-linejoin="round"/>
<path d="M19.0713 19.5047L21.092 18.4122L21.0526 16.0605" stroke="white" stroke-linejoin="round"/>
<path d="M7.93095 25.4414L3.01929 30.3531" stroke="white" stroke-linejoin="round"/>
<path d="M30.4732 2.90039L28.2952 5.07615" stroke="white" stroke-linejoin="round"/>
<path d="M24.8276 3.45281L27.9269 0.353516" stroke="white" stroke-linejoin="round"/>
<path d="M0.473145 27.807L5.62784 22.6523" stroke="white" stroke-linejoin="round"/>
</svg>
