<svg width="50" height="50" viewBox="0 0 50 50" fill="none" xmlns="http://www.w3.org/2000/svg">
<path d="M27.4592 25.9766C27.9199 26.5876 28.9277 27.0099 30.0987 27.0099C31.2696 27.0099 32.2774 26.5876 32.7381 25.9766" stroke="white" stroke-linejoin="round"/>
<path d="M22.9126 21.6141C22.9126 21.6141 21.3642 20.4367 20.142 20.3087C18.9199 20.1808 17.3682 20.5679 15.4902 21.6109" stroke="white" stroke-linejoin="round"/>
<path d="M27.0879 21.61C27.0879 21.61 28.6364 20.4326 29.8585 20.3078C31.0806 20.1831 32.6323 20.567 34.5071 21.61" stroke="white" stroke-linejoin="round"/>
<path d="M27.4592 25.9766C27.9199 26.5876 28.9277 27.0099 30.0987 27.0099C31.2696 27.0099 32.2774 26.5876 32.7381 25.9766" stroke="white" stroke-linejoin="round"/>
<path d="M17.2625 25.9766C17.7232 26.5876 18.7309 27.0099 19.9019 27.0099C21.0728 27.0099 22.0806 26.5876 22.5413 25.9766" stroke="white" stroke-linejoin="round"/>
<path d="M18.4592 8.78908C18.4592 8.78908 21.5114 8.74749 21.5114 12.4331" stroke="white" stroke-linejoin="round"/>
<path d="M21.9661 34.293C22.4652 34.9584 23.6361 35.4255 24.999 35.4255C26.3619 35.4255 27.5361 34.9584 28.0352 34.293" stroke="white" stroke-linejoin="round"/>
<path d="M8.3335 44.8408V19.3135C8.3335 10.9633 15.8103 4.16797 24.9987 4.16797C34.1871 4.16797 41.6671 10.9633 41.6671 19.3135V44.8408" stroke="white" stroke-linejoin="round"/>
<path d="M13.3248 24.3204C13.2886 23.6443 13.2704 22.9522 13.2704 22.2441C13.2704 16.5781 18.5237 11.9903 24.9959 11.9903C31.4681 11.9903 36.7278 16.5845 36.7278 22.2505C36.7278 22.9671 36.7086 23.655 36.6798 24.3268H36.7502V17.9474C36.7502 11.8687 31.4617 6.92578 24.9959 6.92578C18.5301 6.92578 13.248 11.8847 13.248 17.9474V24.33L13.3248 24.3204Z" stroke="white" stroke-linejoin="round"/>
<path d="M36.6824 24.3184C36.7112 23.6466 36.7304 22.9587 36.7304 22.2421C36.7304 16.5761 31.4771 11.9883 24.9953 11.9883C18.5135 11.9883 13.2698 16.5761 13.2698 22.2421C13.2698 22.9523 13.288 23.6444 13.3242 24.3184C11.9677 24.4976 11.0847 25.0607 11.0847 26.7563C11.1004 27.7602 11.4125 28.7371 11.9817 29.5642C12.551 30.3913 13.3519 31.0317 14.284 31.4049C14.8464 30.6581 15.5719 30.0497 16.4052 29.6261C17.1862 29.1926 18.0516 28.9328 18.9422 28.8646C19.2284 28.8478 19.5155 28.8682 19.7964 28.9254C19.8313 28.9336 19.864 28.9493 19.8921 28.9714C19.9203 28.9935 19.9433 29.0215 19.9596 29.0534L20.7946 30.6211C20.8105 30.6534 20.8187 30.689 20.8187 30.725C20.8187 30.7611 20.8105 30.7966 20.7946 30.829C20.4747 31.6672 19.5597 32.5918 18.3216 33.2509C17.4575 33.7344 16.4866 33.995 15.4966 34.0091C16.6017 36.115 18.1637 37.9471 20.0684 39.3712C19.8498 38.8044 19.6681 38.2242 19.5245 37.634L21.2713 36.6742C22.3082 37.8156 23.1892 39.0893 23.8916 40.4621C24.0739 40.8109 24.2339 41.1308 24.3811 41.4411C24.5848 41.4787 24.7914 41.499 24.9985 41.5019C27.4588 41.5019 33.851 38.4082 35.6906 31.3985C36.6285 31.0288 37.4356 30.3892 38.0096 29.5605C38.5837 28.7318 38.899 27.7515 38.9155 26.7435C38.9155 25.0639 38.0357 24.5008 36.6824 24.3184ZM21.2265 36.6934L19.5949 37.5604C19.5727 37.5725 19.5483 37.5801 19.5231 37.5827C19.498 37.5853 19.4725 37.5827 19.4484 37.5753C19.4242 37.5678 19.4018 37.5556 19.3824 37.5393C19.3631 37.523 19.3472 37.5029 19.3357 37.4804L18.9166 36.6678C18.7839 36.407 18.7588 36.1046 18.8467 35.8256C18.9347 35.5465 19.1286 35.3131 19.3869 35.1756C19.6451 35.0381 19.947 35.0074 20.2277 35.0903C20.5083 35.1731 20.7452 35.3627 20.8874 35.6184L21.3225 36.4342C21.3333 36.4575 21.3393 36.4827 21.3403 36.5084C21.3413 36.534 21.3372 36.5596 21.3283 36.5837C21.3194 36.6078 21.3058 36.6298 21.2883 36.6487C21.2709 36.6675 21.2499 36.6827 21.2265 36.6934Z" stroke="white" stroke-linejoin="round"/>
<path d="M19.976 29.0538L20.8079 30.6215C20.8237 30.6539 20.8319 30.6894 20.8319 30.7255C20.8319 30.7615 20.8237 30.7971 20.8079 30.8295C20.4879 31.6677 19.5729 32.5923 18.3348 33.2513C17.0967 33.9104 15.8265 34.1439 14.9435 33.9488C14.9085 33.941 14.8756 33.9258 14.8469 33.9043C14.8182 33.8828 14.7944 33.8554 14.7771 33.824L13.9453 32.2564C13.9297 32.2239 13.9216 32.1884 13.9216 32.1524C13.9216 32.1164 13.9297 32.0808 13.9453 32.0484C14.2653 31.207 15.1803 30.2856 16.4184 29.6265C17.1994 29.193 18.0648 28.9333 18.9555 28.8651C19.2416 28.8482 19.5288 28.8687 19.8097 28.9259C19.8448 28.9344 19.8777 28.9502 19.9064 28.9723C19.935 28.9943 19.9588 29.0221 19.976 29.0538Z" stroke="white" stroke-linejoin="round"/>
<path d="M23.8341 45.6715C22.8049 44.5303 21.9334 43.2563 21.2427 41.8835C20.5031 40.5433 19.9366 39.1146 19.5566 37.6317L21.3035 36.6719C22.329 37.8152 23.1993 39.0889 23.8917 40.4599C24.6433 41.7986 25.2125 43.2318 25.5841 44.7213L23.8341 45.6715Z" stroke="white" stroke-linejoin="round"/>
<path d="M19.3619 35.1572C19.1034 35.2991 18.9115 35.5376 18.8282 35.8205C18.7449 36.1034 18.7769 36.4078 18.9172 36.6672L19.3523 37.4799C19.3638 37.5024 19.3797 37.5225 19.399 37.5388C19.4184 37.5551 19.4408 37.5673 19.465 37.5748C19.4891 37.5822 19.5146 37.5847 19.5397 37.5822C19.5649 37.5796 19.5893 37.572 19.6115 37.5599L21.2431 36.6928C21.2875 36.6684 21.3206 36.6278 21.3355 36.5794C21.3504 36.5311 21.346 36.4788 21.3231 36.4337L20.888 35.6179C20.8191 35.4864 20.7247 35.37 20.6103 35.2754C20.4959 35.1809 20.3638 35.1101 20.2217 35.0672C20.0796 35.0243 19.9304 35.0101 19.7827 35.0256C19.6351 35.0411 19.4921 35.0858 19.3619 35.1572Z" stroke="white" stroke-linejoin="round"/>
<path d="M25.7729 47.2033C25.5115 47.3424 25.2056 47.372 24.9225 47.2856C24.6393 47.1993 24.402 47.0039 24.2628 46.7426L23.8277 45.9268C23.8048 45.8817 23.8004 45.8294 23.8153 45.7811C23.8302 45.7327 23.8634 45.6921 23.9077 45.6677L25.5393 44.8006C25.5615 44.7885 25.5859 44.7809 25.6111 44.7783C25.6362 44.7758 25.6617 44.7783 25.6858 44.7857C25.71 44.7932 25.7324 44.8054 25.7518 44.8217C25.7711 44.838 25.787 44.8581 25.7985 44.8806L26.2336 45.6933C26.3727 45.9546 26.4023 46.2605 26.3159 46.5437C26.2295 46.8269 26.0342 47.0641 25.7729 47.2033Z" stroke="white" stroke-linejoin="round"/>
<path d="M14.4536 33.1875C14.4536 33.1875 13.5482 33.5074 13.7113 34.2945C13.8745 35.0815 14.9015 37.9609 18.7822 36.3068" stroke="white" stroke-linejoin="round"/>
<path d="M20.5164 29.907C20.5164 29.907 21.265 29.312 21.8473 29.875C22.4295 30.4381 24.3075 32.8408 20.8331 35.2339" stroke="white" stroke-linejoin="round"/>
</svg>
