<svg width="40" height="40" viewBox="0 0 40 40" fill="none" xmlns="http://www.w3.org/2000/svg">
<path d="M33.931 14.5848C34.0081 14.5854 34.0818 14.6163 34.1363 14.6708C34.1908 14.7253 34.2217 14.799 34.2223 14.8761V15.4486C34.223 15.494 34.2413 15.5375 34.2735 15.5696C34.3057 15.6018 34.3491 15.6202 34.3946 15.6208H34.9671C35.0459 15.619 35.1223 15.6481 35.1799 15.7019C35.2313 15.7599 35.2601 15.8346 35.2609 15.9121C35.2603 15.9899 35.2291 16.0642 35.1741 16.1192C35.1192 16.1741 35.0448 16.2053 34.9671 16.206H34.3946C34.3491 16.2066 34.3057 16.225 34.2735 16.2571C34.2413 16.2893 34.223 16.3327 34.2223 16.3782V16.9507C34.2155 17.0236 34.1818 17.0914 34.1277 17.1407C34.0735 17.19 34.003 17.2173 33.9297 17.2173C33.8565 17.2173 33.786 17.19 33.7318 17.1407C33.6777 17.0914 33.644 17.0236 33.6372 16.9507V16.3782C33.6365 16.3327 33.6182 16.2893 33.586 16.2571C33.5538 16.225 33.5104 16.2066 33.4649 16.206H32.895C32.8162 16.2078 32.7398 16.1787 32.6822 16.1249C32.6303 16.0661 32.6015 15.9905 32.6011 15.9121C32.6024 15.8348 32.6339 15.7611 32.6888 15.7067C32.7437 15.6523 32.8177 15.6215 32.895 15.6208H33.4649C33.5104 15.6202 33.5538 15.6018 33.586 15.5696C33.6182 15.5375 33.6365 15.494 33.6372 15.4486V14.8761C33.6385 14.7988 33.67 14.7251 33.7248 14.6706C33.7797 14.6162 33.8537 14.5854 33.931 14.5848ZM33.931 14.0781C33.7192 14.0781 33.5159 14.1621 33.3659 14.3117C33.2158 14.4613 33.1312 14.6642 33.1305 14.8761V15.1142H32.895C32.6831 15.1142 32.4799 15.1982 32.3298 15.3477C32.1798 15.4973 32.0952 15.7003 32.0945 15.9121C32.095 16.1052 32.1621 16.2922 32.2845 16.4416L32.3225 16.4846C32.4761 16.6325 32.6817 16.7144 32.895 16.7126H33.1305V16.9507C33.142 17.1549 33.2313 17.3469 33.3799 17.4874C33.5285 17.6279 33.7252 17.7062 33.9297 17.7062C34.1343 17.7062 34.331 17.6279 34.4796 17.4874C34.6282 17.3469 34.7175 17.1549 34.729 16.9507V16.7126H34.9671C35.1792 16.7119 35.3824 16.6274 35.5324 16.4774C35.6823 16.3274 35.7669 16.1242 35.7676 15.9121C35.767 15.7194 35.6989 15.5329 35.575 15.3852C35.5645 15.3691 35.5517 15.3546 35.537 15.3422C35.3844 15.1942 35.1797 15.1122 34.9671 15.1142H34.729V14.8761C34.729 14.7713 34.7083 14.6675 34.6682 14.5707C34.6281 14.4739 34.5693 14.3859 34.4952 14.3118C34.4212 14.2377 34.3332 14.179 34.2364 14.1389C34.1396 14.0988 34.0358 14.0781 33.931 14.0781Z" fill="#C69459"/>
<path d="M27.4284 29.7063C27.5061 29.707 27.5804 29.7382 27.6354 29.7931C27.6904 29.8481 27.7215 29.9225 27.7222 30.0002V30.5701C27.7229 30.6156 27.7412 30.6591 27.7734 30.6912C27.8055 30.7234 27.849 30.7417 27.8945 30.7424H28.467C28.5457 30.7408 28.622 30.7699 28.6797 30.8235C28.7309 30.8825 28.7588 30.9581 28.7583 31.0362C28.7576 31.1133 28.7267 31.187 28.6722 31.2415C28.6177 31.296 28.544 31.3269 28.467 31.3276H27.8945C27.849 31.3282 27.8055 31.3466 27.7734 31.3787C27.7412 31.4109 27.7229 31.4543 27.7222 31.4998V32.0723C27.7154 32.1452 27.6817 32.2129 27.6275 32.2623C27.5734 32.3116 27.5028 32.3389 27.4296 32.3389C27.3564 32.3389 27.2858 32.3116 27.2317 32.2623C27.1776 32.2129 27.1438 32.1452 27.137 32.0723V31.4998C27.1358 31.4545 27.1172 31.4115 27.0852 31.3794C27.0532 31.3474 27.0101 31.3288 26.9648 31.3276H26.3923C26.3139 31.3298 26.2377 31.3017 26.1795 31.249C26.1292 31.1895 26.1014 31.1142 26.101 31.0362C26.1016 30.9589 26.1325 30.885 26.1869 30.8301C26.2413 30.7752 26.315 30.7437 26.3923 30.7424H26.9648C27.0103 30.7417 27.0537 30.7234 27.0859 30.6912C27.118 30.6591 27.1364 30.6156 27.137 30.5701V30.0002C27.1377 29.9229 27.1685 29.8489 27.2229 29.794C27.2774 29.7391 27.3511 29.7077 27.4284 29.7063ZM27.4284 29.1997C27.2165 29.2004 27.0135 29.285 26.864 29.4351C26.7144 29.5851 26.6304 29.7883 26.6304 30.0002V30.2358H26.3923C26.1804 30.2364 25.9775 30.3211 25.8279 30.4711C25.6783 30.6212 25.5944 30.8244 25.5944 31.0362C25.5944 31.2294 25.6616 31.4165 25.7843 31.5657L25.8223 31.6062C25.9749 31.7542 26.1797 31.8361 26.3923 31.8342H26.6304V32.0723C26.6419 32.2765 26.7311 32.4685 26.8798 32.609C27.0284 32.7495 27.2251 32.8278 27.4296 32.8278C27.6341 32.8278 27.8309 32.7495 27.9795 32.609C28.1281 32.4685 28.2173 32.2765 28.2288 32.0723V31.8342H28.467C28.6786 31.8342 28.8815 31.7501 29.0312 31.6005C29.1808 31.4508 29.2649 31.2479 29.2649 31.0362C29.2653 30.843 29.1981 30.6557 29.0749 30.5068L29.0369 30.4637C28.8843 30.3157 28.6795 30.2338 28.467 30.2358H28.2288V30.0002C28.2282 29.7881 28.1436 29.5849 27.9936 29.4349C27.8437 29.2849 27.6405 29.2004 27.4284 29.1997Z" fill="#C69459"/>
<path d="M4.35137 9.47184C4.42671 9.47242 4.49896 9.50192 4.55318 9.55425C4.60739 9.60658 4.63943 9.67774 4.64268 9.75302V10.3356C4.64333 10.3811 4.66169 10.4246 4.69385 10.4567C4.72602 10.4889 4.76945 10.5072 4.81493 10.5079H5.38743C5.46618 10.5063 5.54246 10.5354 5.60021 10.589C5.65135 10.648 5.67926 10.7236 5.67874 10.8017C5.67808 10.8788 5.64717 10.9525 5.59268 11.007C5.53819 11.0615 5.46448 11.0924 5.38743 11.0931H4.81493C4.76965 11.0943 4.72658 11.1129 4.69454 11.1449C4.66251 11.177 4.64396 11.22 4.64268 11.2653V11.8378C4.63589 11.9107 4.60213 11.9784 4.54801 12.0278C4.49389 12.0771 4.42331 12.1044 4.3501 12.1044C4.27688 12.1044 4.20631 12.0771 4.15219 12.0278C4.09807 11.9784 4.06431 11.9107 4.05752 11.8378V11.2729C4.05687 11.2274 4.03851 11.184 4.00634 11.1518C3.97418 11.1197 3.93075 11.1013 3.88527 11.1007H3.31277C3.23437 11.1029 3.15813 11.0748 3.09999 11.0221C3.04963 10.9626 3.02183 10.8873 3.02146 10.8093C3.02145 10.7316 3.05198 10.657 3.10647 10.6015C3.16096 10.5461 3.23505 10.5143 3.31277 10.513H3.88527C3.93075 10.5123 3.97418 10.494 4.00634 10.4618C4.03851 10.4296 4.05687 10.3862 4.05752 10.3407V9.75302C4.05884 9.67574 4.0903 9.60202 4.14519 9.5476C4.20009 9.49318 4.27407 9.46236 4.35137 9.46171M4.35137 8.95508C4.1395 8.95508 3.93628 9.03907 3.78624 9.18864C3.63619 9.33821 3.55156 9.54116 3.55089 9.75302V10.0063H3.31277C3.10267 10.0083 2.90177 10.0928 2.75343 10.2417C2.6051 10.3905 2.52122 10.5916 2.5199 10.8017C2.51996 10.9949 2.58712 11.1821 2.70988 11.3312L2.74788 11.3717C2.90048 11.5197 3.10526 11.6016 3.31784 11.5997H3.55596V11.8378C3.56746 12.042 3.65667 12.234 3.80529 12.3745C3.95391 12.515 4.15066 12.5933 4.35517 12.5933C4.55967 12.5933 4.75643 12.515 4.90504 12.3745C5.05366 12.234 5.14288 12.042 5.15438 11.8378V11.5997H5.39249C5.60412 11.5997 5.80708 11.5156 5.95672 11.366C6.10637 11.2163 6.19043 11.0134 6.19043 10.8017C6.1908 10.6085 6.12359 10.4212 6.00045 10.2723L5.96245 10.2293C5.80985 10.0812 5.60507 9.99934 5.39249 10.0013H5.15438V9.75302C5.15371 9.5416 5.06942 9.33903 4.91992 9.18953C4.77043 9.04003 4.56785 8.95575 4.35643 8.95508H4.35137Z" fill="#C69459"/>
<path d="M6.17015 28.5843C6.24744 28.5856 6.32115 28.617 6.37557 28.6719C6.42999 28.7268 6.46082 28.8008 6.46147 28.8781V29.4481C6.46277 29.4938 6.48168 29.5372 6.51425 29.5693C6.54682 29.6014 6.59053 29.6197 6.63625 29.6203H7.20621C7.28501 29.6185 7.36139 29.6476 7.419 29.7014C7.47085 29.7602 7.49965 29.8358 7.50006 29.9142C7.49874 29.9915 7.46728 30.0652 7.41238 30.1196C7.35749 30.174 7.28351 30.2048 7.20621 30.2055H6.63625C6.59053 30.2061 6.54682 30.2244 6.51425 30.2565C6.48168 30.2886 6.46277 30.332 6.46147 30.3777V30.9502C6.45468 31.0231 6.42091 31.0909 6.3668 31.1402C6.31268 31.1895 6.2421 31.2168 6.16889 31.2168C6.09567 31.2168 6.02509 31.1895 5.97098 31.1402C5.91686 31.0909 5.8831 31.0231 5.87631 30.9502V30.3777C5.87565 30.3323 5.85729 30.2888 5.82513 30.2567C5.79297 30.2245 5.74953 30.2061 5.70405 30.2055H5.13409C5.0556 30.2083 4.97917 30.1801 4.92131 30.127C4.86985 30.0679 4.84111 29.9925 4.84025 29.9142C4.84091 29.8364 4.87208 29.7621 4.92705 29.7071C4.98201 29.6522 5.05637 29.621 5.13409 29.6203H5.70405C5.74953 29.6197 5.79297 29.6013 5.82513 29.5692C5.85729 29.537 5.87565 29.4936 5.87631 29.4481V28.8781C5.87697 28.8004 5.90814 28.726 5.9631 28.6711C6.01807 28.6161 6.09242 28.5849 6.17015 28.5843ZM6.17015 28.0776C5.95806 28.0783 5.75484 28.1629 5.60487 28.3128C5.4549 28.4628 5.37035 28.666 5.36968 28.8781V29.1137H5.13409C4.922 29.1144 4.71878 29.1989 4.56881 29.3489C4.41884 29.4989 4.33429 29.7021 4.33362 29.9142C4.3346 30.1076 4.40264 30.2947 4.52614 30.4436L4.5616 30.4841C4.71543 30.6318 4.92084 30.7136 5.13409 30.7121H5.36968V30.9502C5.38118 31.1544 5.47039 31.3465 5.61901 31.4869C5.76763 31.6274 5.96438 31.7057 6.16889 31.7057C6.37339 31.7057 6.57015 31.6274 6.71876 31.4869C6.86738 31.3465 6.9566 31.1544 6.9681 30.9502V30.7121H7.20621C7.41807 30.7121 7.62129 30.6281 7.77134 30.4786C7.92139 30.329 8.00602 30.126 8.00669 29.9142C8.00612 29.7207 7.93804 29.5334 7.81417 29.3847C7.80297 29.3692 7.79024 29.3547 7.77617 29.3417C7.62357 29.1937 7.41879 29.1118 7.20621 29.1137H6.9681V28.8781C6.9681 28.6663 6.88411 28.463 6.73454 28.313C6.58497 28.1629 6.38201 28.0783 6.17015 28.0776Z" fill="#C69459"/>
<path d="M17.2932 20.3912C17.2932 20.3912 16.1888 19.497 15.3174 19.4032C14.446 19.3095 13.3415 19.5983 12.004 20.3912" stroke="#C69459" stroke-linejoin="round"/>
<path d="M20.2671 20.3912C20.2671 20.3912 21.369 19.497 22.2404 19.4032C23.1118 19.3095 24.2163 19.5983 25.5538 20.3912" stroke="#C69459" stroke-linejoin="round"/>
<path d="M20.5305 22.5464C20.8598 23.01 21.5767 23.3317 22.4126 23.3317C23.2486 23.3317 23.9655 23.01 24.2922 22.5464" stroke="#C69459" stroke-linejoin="round"/>
<path d="M13.2655 22.5464C13.5948 23.01 14.3117 23.3317 15.1476 23.3317C15.9836 23.3317 16.7005 23.01 17.0272 22.5464" stroke="#C69459" stroke-linejoin="round"/>
<path d="M16.475 29.4829C16.8524 29.9895 17.7416 30.3416 18.7801 30.3416C19.8187 30.3416 20.7053 29.987 21.0853 29.4829" stroke="#C69459" stroke-linejoin="round"/>
<path d="M11.4239 26.5313C4.83769 28.6718 2.54265 16.1656 7.17832 12.4343C7.17832 6.59285 12.3966 3.62906 17.2932 3.10723C25.0497 2.28142 24.305 6.49659 24.305 6.49659C31.2914 6.86896 29.4954 12.6192 29.4954 12.6192C29.4954 12.6192 21.7059 11.4793 16.2571 13.7819C10.8083 16.0846 10.4739 20.662 10.4739 20.662" stroke="#C69459" stroke-linejoin="round"/>
<path d="M23.1398 12.4372C22.8586 12.4372 22.5622 12.4372 22.2557 12.4524C22.5622 12.4397 22.8561 12.4346 23.1398 12.4372Z" stroke="#C69459" stroke-linejoin="round"/>
<path d="M26.0199 16.6323C25.2321 15.2518 22.9573 13.4152 21.7136 12.4805C21.8909 12.4805 22.0657 12.4602 22.2354 12.4526C20.1706 12.5323 18.137 12.9827 16.2318 13.7825C10.7957 16.0852 10.4613 20.6626 10.4613 20.6626L11.4239 26.5294C12.9134 31.1524 16.9968 33.7261 18.77 33.7261C20.5432 33.7261 25.0751 31.3753 26.3872 26.0531C26.3974 26.0531 27.1193 18.5651 26.0199 16.6323Z" stroke="#C69459" stroke-linejoin="round"/>
<path d="M7.17834 12.4347C7.17834 12.4347 10.702 8.73886 14.9045 7.94092" stroke="#C69459" stroke-linejoin="round"/>
<path d="M16.7054 7.64192C17.8609 7.48449 19.0308 7.46409 20.1911 7.58113" stroke="#C69459" stroke-linejoin="round"/>
<path d="M10.7856 21.9912C10.7856 21.9912 6.98588 25.1906 9.9674 28.1772C12.9489 31.1638 11.8673 32.8027 9.9674 32.8027" stroke="#C69459" stroke-linejoin="round"/>
<path d="M27.2358 11.1625C27.2358 11.1625 21.0574 10.438 14.9044 12.4519C8.75138 14.4657 7.29735 19.8841 7.74572 22.316" stroke="#C69459" stroke-linejoin="round"/>
<path d="M23.8414 17.2601C23.7264 17.1369 23.6037 17.021 23.4741 16.9131" stroke="#C69459" stroke-linejoin="round"/>
<path d="M22.6939 16.3902C21.4841 15.7693 20.1397 15.457 18.7802 15.4808C16.898 15.4808 15.2338 16.0153 14.1724 16.8436" stroke="#C69459" stroke-linejoin="round" stroke-dasharray="3.72 3.72"/>
<path d="M13.8202 17.1562C13.6994 17.2736 13.5884 17.4007 13.4884 17.5362" stroke="#C69459" stroke-linejoin="round"/>
<path d="M23.1094 29.9662L28.4087 26.6934" stroke="#C69459" stroke-linejoin="round"/>
<path d="M35.1372 20.6746L29.2418 24.3505C28.9053 24.5604 28.8026 25.0033 29.0124 25.3398L29.7911 26.5887C30.0009 26.9252 30.4438 27.0279 30.7804 26.8181L36.6758 23.1421C37.0123 22.9323 37.115 22.4893 36.9052 22.1528L36.1265 20.904C35.9167 20.5674 35.4737 20.4647 35.1372 20.6746Z" stroke="#C69459" stroke-linejoin="round"/>
<path d="M28.7354 25.2563C28.6054 25.322 28.4905 25.414 28.398 25.5264C28.3055 25.6389 28.2375 25.7694 28.1982 25.9097C28.1589 26.0499 28.1492 26.1968 28.1699 26.3409C28.1905 26.4851 28.2409 26.6234 28.3179 26.747C28.3948 26.8706 28.4967 26.9768 28.617 27.0589C28.7374 27.141 28.8734 27.1971 29.0166 27.2237C29.1598 27.2502 29.3069 27.2467 29.4487 27.2133C29.5904 27.1799 29.7237 27.1173 29.8399 27.0296L28.7354 25.2563Z" stroke="#C69459" stroke-linejoin="round"/>
<path d="M35.6848 19.1768L36.2776 18.811L38.9999 23.2238L38.4071 23.5895L35.6848 19.1768Z" stroke="#C69459" stroke-linejoin="round"/>
<path d="M36.0409 21.1914L36.6833 20.7951L37.4081 21.97L36.7657 22.3663L36.0409 21.1914Z" stroke="#C69459" stroke-linejoin="round"/>
<path d="M28.7355 25.2576L28.9026 25.5261C28.853 25.4462 28.8197 25.3572 28.8045 25.2643C28.7894 25.1715 28.7928 25.0765 28.8144 24.985C28.8361 24.8934 28.8756 24.807 28.9307 24.7308C28.9859 24.6545 29.0555 24.5899 29.1357 24.5407L31.6232 23.0031C32.2641 21.0424 31.9703 17.838 29.4802 12.6171C26.9121 12.2927 24.3163 12.2493 21.7389 12.4879C22.9751 13.4252 25.2346 15.2542 26.0199 16.6297C27.1193 18.5625 26.3974 26.0505 26.3974 26.0505C27.024 26.0953 27.6538 26.0483 28.2668 25.9111C28.3305 25.6399 28.499 25.4049 28.7355 25.2576Z" stroke="#C69459" stroke-linejoin="round"/>
<path d="M3.63959 26.2303C3.78037 26.2303 3.91799 26.272 4.03505 26.3502C4.15211 26.4284 4.24335 26.5396 4.29722 26.6697C4.3511 26.7997 4.36519 26.9429 4.33773 27.0809C4.31026 27.219 4.24247 27.3459 4.14292 27.4454C4.04337 27.545 3.91654 27.6128 3.77846 27.6402C3.64038 27.6677 3.49726 27.6536 3.36719 27.5997C3.23712 27.5458 3.12595 27.4546 3.04774 27.3375C2.96952 27.2205 2.92777 27.0829 2.92777 26.9421C2.92777 26.8486 2.94618 26.756 2.98196 26.6697C3.01773 26.5833 3.07016 26.5048 3.13626 26.4387C3.20236 26.3727 3.28083 26.3202 3.36719 26.2844C3.45355 26.2487 3.54611 26.2303 3.63959 26.2303ZM3.63959 25.7236C3.3986 25.7236 3.16303 25.7951 2.96266 25.929C2.76228 26.0629 2.60611 26.2532 2.51389 26.4758C2.42167 26.6984 2.39754 26.9434 2.44456 27.1798C2.49157 27.4161 2.60762 27.6332 2.77802 27.8037C2.94842 27.9741 3.16553 28.0901 3.40188 28.1371C3.63824 28.1841 3.88323 28.16 4.10587 28.0678C4.32851 27.9756 4.51881 27.8194 4.65269 27.619C4.78657 27.4186 4.85803 27.1831 4.85803 26.9421C4.85803 26.6189 4.72966 26.309 4.50116 26.0805C4.27266 25.852 3.96274 25.7236 3.63959 25.7236Z" fill="#C69459"/>
<path d="M32.2641 9.87382C32.405 9.87382 32.5427 9.91563 32.6598 9.99396C32.7769 10.0723 32.8682 10.1836 32.922 10.3138C32.9758 10.444 32.9897 10.5873 32.962 10.7254C32.9344 10.8636 32.8663 10.9904 32.7665 11.0899C32.6667 11.1893 32.5397 11.2569 32.4014 11.2841C32.2632 11.3113 32.12 11.2968 31.9899 11.2425C31.8599 11.1883 31.7489 11.0966 31.671 10.9793C31.5931 10.8619 31.5518 10.724 31.5523 10.5831C31.5523 10.4897 31.5707 10.3973 31.6065 10.3111C31.6423 10.2249 31.6948 10.1466 31.7609 10.0807C31.8271 10.0148 31.9055 9.96258 31.9919 9.92708C32.0782 9.89158 32.1707 9.87348 32.2641 9.87382ZM32.2641 9.36719C32.023 9.36719 31.7873 9.43871 31.5869 9.57271C31.3865 9.70671 31.2303 9.89715 31.1382 10.1199C31.046 10.3427 31.022 10.5879 31.0693 10.8243C31.1165 11.0607 31.2328 11.2778 31.4034 11.4481C31.5741 11.6184 31.7914 11.7343 32.0279 11.781C32.2645 11.8277 32.5095 11.8032 32.7321 11.7106C32.9547 11.618 33.1449 11.4614 33.2784 11.2607C33.412 11.06 33.483 10.8242 33.4825 10.5831C33.4819 10.2604 33.3532 9.95112 33.1248 9.72316C32.8963 9.49521 32.5868 9.36719 32.2641 9.36719Z" fill="#C69459"/>
<path d="M6.17023 5.9961C6.31079 5.9961 6.44821 6.03773 6.56516 6.11572C6.6821 6.19371 6.77334 6.30459 6.82736 6.43436C6.88138 6.56413 6.89577 6.70699 6.86871 6.84493C6.84166 6.98287 6.77436 7.10971 6.67532 7.20946C6.57628 7.30921 6.44992 7.3774 6.31217 7.40543C6.17443 7.43347 6.03147 7.42009 5.90132 7.36699C5.77117 7.31389 5.65965 7.22345 5.58083 7.10706C5.50201 6.99067 5.45941 6.85355 5.45841 6.71298C5.45841 6.61963 5.47684 6.52719 5.51264 6.44097C5.54845 6.35475 5.60092 6.27644 5.66705 6.21055C5.73318 6.14465 5.81167 6.09246 5.89802 6.05696C5.98436 6.02147 6.07687 6.00337 6.17023 6.0037M6.17023 5.49707C5.92913 5.49707 5.69346 5.5686 5.49303 5.70259C5.2926 5.83659 5.13643 6.02703 5.04429 6.24982C4.95214 6.47261 4.92816 6.71773 4.97538 6.95416C5.0226 7.19058 5.1389 7.40768 5.30955 7.57799C5.48021 7.74829 5.69755 7.86413 5.93408 7.91086C6.1706 7.95759 6.41567 7.9331 6.63826 7.84049C6.86086 7.74788 7.05098 7.59131 7.18456 7.39061C7.31814 7.1899 7.38917 6.95408 7.38867 6.71298C7.388 6.39027 7.25933 6.081 7.0309 5.85305C6.80247 5.62509 6.49294 5.49707 6.17023 5.49707Z" fill="#C69459"/>
<path d="M2.21591 6.93095C2.3568 6.93045 2.49467 6.97177 2.61207 7.04968C2.72946 7.12759 2.82108 7.23858 2.87535 7.3686C2.92961 7.49863 2.94407 7.64183 2.91689 7.78007C2.88971 7.91832 2.82212 8.04539 2.72267 8.14519C2.62323 8.24499 2.4964 8.31304 2.35825 8.34071C2.2201 8.36838 2.07685 8.35444 1.94663 8.30063C1.81642 8.24683 1.7051 8.1556 1.62677 8.03849C1.54844 7.92138 1.50663 7.78365 1.50663 7.64276C1.50663 7.45398 1.58163 7.27292 1.71512 7.13943C1.84861 7.00594 2.02966 6.93095 2.21845 6.93095M2.21845 6.42432C1.97746 6.42432 1.74189 6.49578 1.54151 6.62966C1.34114 6.76355 1.18497 6.95384 1.09275 7.17648C1.00053 7.39913 0.976399 7.64411 1.02341 7.88047C1.07043 8.11683 1.18647 8.33393 1.35688 8.50434C1.52728 8.67474 1.74438 8.79079 1.98074 8.8378C2.2171 8.88481 2.46208 8.86068 2.68473 8.76846C2.90737 8.67624 3.09766 8.52007 3.23155 8.3197C3.36543 8.11932 3.43689 7.88375 3.43689 7.64276C3.43622 7.31982 3.30764 7.01029 3.07928 6.78193C2.85092 6.55357 2.54139 6.42499 2.21845 6.42432Z" fill="#C69459"/>
<path d="M25.0472 32.8045C25.188 32.8045 25.3256 32.8462 25.4426 32.9244C25.5597 33.0027 25.6509 33.1138 25.7048 33.2439C25.7587 33.374 25.7728 33.5171 25.7453 33.6552C25.7179 33.7932 25.6501 33.9201 25.5505 34.0196C25.451 34.1192 25.3241 34.187 25.186 34.2144C25.048 34.2419 24.9048 34.2278 24.7748 34.1739C24.6447 34.1201 24.5335 34.0288 24.4553 33.9118C24.3771 33.7947 24.3354 33.6571 24.3354 33.5163C24.3354 33.3275 24.4104 33.1465 24.5439 33.013C24.6773 32.8795 24.8584 32.8045 25.0472 32.8045ZM25.0472 32.2979C24.8062 32.2979 24.5706 32.3693 24.3702 32.5032C24.1699 32.6371 24.0137 32.8274 23.9215 33.05C23.8293 33.2727 23.8051 33.5176 23.8521 33.754C23.8992 33.9904 24.0152 34.2075 24.1856 34.3779C24.356 34.5483 24.5731 34.6643 24.8095 34.7113C25.0458 34.7583 25.2908 34.7342 25.5135 34.642C25.7361 34.5498 25.9264 34.3936 26.0603 34.1932C26.1942 33.9929 26.2656 33.7573 26.2656 33.5163C26.265 33.1934 26.1364 32.8838 25.908 32.6555C25.6797 32.4271 25.3701 32.2985 25.0472 32.2979Z" fill="#C69459"/>
<path d="M31.9045 31.3807C32.0453 31.3807 32.1829 31.4224 32.2999 31.5006C32.417 31.5788 32.5082 31.69 32.5621 31.8201C32.616 31.9501 32.6301 32.0933 32.6026 32.2313C32.5752 32.3694 32.5074 32.4963 32.4078 32.5958C32.3083 32.6953 32.1814 32.7631 32.0433 32.7906C31.9053 32.8181 31.7621 32.804 31.6321 32.7501C31.502 32.6962 31.3908 32.605 31.3126 32.4879C31.2344 32.3709 31.1927 32.2333 31.1927 32.0925C31.1927 31.9037 31.2677 31.7226 31.4012 31.5891C31.5346 31.4556 31.7157 31.3807 31.9045 31.3807ZM31.9045 30.874C31.6635 30.874 31.4279 30.9455 31.2276 31.0794C31.0272 31.2133 30.871 31.4035 30.7788 31.6262C30.6866 31.8488 30.6624 32.0938 30.7094 32.3302C30.7565 32.5665 30.8725 32.7836 31.0429 32.954C31.2133 33.1244 31.4304 33.2405 31.6668 33.2875C31.9031 33.3345 32.1481 33.3104 32.3708 33.2182C32.5934 33.1259 32.7837 32.9698 32.9176 32.7694C33.0515 32.569 33.1229 32.3335 33.1229 32.0925C33.1223 31.7695 32.9937 31.46 32.7653 31.2316C32.537 31.0033 32.2274 30.8747 31.9045 30.874Z" fill="#C69459"/>
<path d="M16.3155 35.3523C16.4564 35.3518 16.5943 35.3932 16.7116 35.4711C16.829 35.549 16.9207 35.66 16.9749 35.79C17.0292 35.92 17.0436 36.0632 17.0165 36.2015C16.9893 36.3397 16.9217 36.4668 16.8223 36.5666C16.7228 36.6664 16.596 36.7344 16.4578 36.7621C16.3197 36.7898 16.1764 36.7758 16.0462 36.722C15.916 36.6682 15.8047 36.577 15.7264 36.4599C15.648 36.3428 15.6062 36.205 15.6062 36.0641C15.6062 35.8758 15.6809 35.6951 15.8138 35.5617C15.9467 35.4283 16.1271 35.353 16.3155 35.3523ZM16.3155 34.8457C16.0745 34.8457 15.8389 34.9172 15.6386 35.0511C15.4382 35.1849 15.282 35.3752 15.1898 35.5979C15.0976 35.8205 15.0734 36.0655 15.1205 36.3019C15.1675 36.5382 15.2835 36.7553 15.4539 36.9257C15.6243 37.0961 15.8414 37.2122 16.0778 37.2592C16.3141 37.3062 16.5591 37.2821 16.7818 37.1898C17.0044 37.0976 17.1947 36.9415 17.3286 36.7411C17.4625 36.5407 17.5339 36.3051 17.5339 36.0641C17.5339 35.741 17.4056 35.4311 17.1771 35.2026C16.9486 34.9741 16.6386 34.8457 16.3155 34.8457Z" fill="#C69459"/>
<path d="M11.2213 24.001L15.1477 25.4829L15.6062 27.3979" stroke="#C69459" stroke-linejoin="round" stroke-dasharray="4 4"/>
<path d="M26.3366 24.001L22.4127 25.4829L21.9542 27.3979" stroke="#C69459" stroke-linejoin="round" stroke-dasharray="4 4"/>
<path d="M17.9873 26.7686C18.238 26.964 18.5329 27.0949 18.8461 27.1497C19.1593 27.2045 19.4811 27.1815 19.7833 27.0827" stroke="#C69459" stroke-linejoin="round"/>
</svg>
