<svg width="40" height="40" viewBox="0 0 40 40" fill="none" xmlns="http://www.w3.org/2000/svg">
<g clip-path="url(#clip0_403_1382)">
<path d="M12.8617 16.5728C13.3872 16.1671 14.0254 15.9339 14.6887 15.9053V12.6161C16.7752 11.108 20.6346 10.0945 25.0508 10.0945C29.467 10.0945 33.3291 11.108 35.4156 12.6161V15.8972C36.0711 15.8958 36.7114 16.0948 37.2507 16.4674C41.6912 13.6567 37.6345 10.7324 37.6318 10.0161C37.6318 5.85672 33.1399 1.34865 27.5427 1.04324C25.8832 0.985586 24.2229 0.985586 22.5616 1.04324C16.9617 1.34865 12.4644 5.85672 12.4698 10.0161C12.4671 10.7378 8.62122 13.8945 12.8617 16.5728Z" stroke="#C69459" stroke-width="0.8" stroke-linejoin="round"/>
<path d="M35.4158 15.8969V12.6158C33.3293 11.1077 29.4699 10.0942 25.051 10.0942C20.6321 10.0942 16.7754 11.1077 14.6889 12.6158V15.905C13.8862 15.9821 13.1409 16.3556 12.5986 16.9525C12.0563 17.5494 11.7559 18.3269 11.7559 19.1334C11.7559 19.9398 12.0563 20.7173 12.5986 21.3142C13.1409 21.9111 13.8862 22.2846 14.6889 22.3617V23.8698C14.6894 24.8402 14.919 25.7968 15.3592 26.6617H18.5159C18.5635 26.6617 18.6106 26.671 18.6545 26.6892C18.6984 26.7074 18.7384 26.7341 18.772 26.7677C18.8056 26.8014 18.8323 26.8413 18.8505 26.8852C18.8687 26.9292 18.8781 26.9763 18.8781 27.0238V30.267H21.6618C21.7093 30.2667 21.7563 30.2757 21.8002 30.2936C21.8441 30.3115 21.8841 30.338 21.9178 30.3714C21.9514 30.4048 21.9781 30.4445 21.9964 30.4883C22.0146 30.5321 22.024 30.5791 22.024 30.6265V32.0211C22.0244 32.0687 22.0152 32.116 21.9972 32.1601C21.9791 32.2042 21.9524 32.2443 21.9187 32.278C21.885 32.3117 21.845 32.3383 21.8008 32.3564C21.7567 32.3745 21.7095 32.3836 21.6618 32.3832H21.5753C22.4407 32.8281 23.3996 33.0606 24.3726 33.0616H25.4104C26.8225 33.0621 28.1914 32.5752 29.2861 31.6832L33.1401 28.5481C33.85 27.9727 34.4227 27.2461 34.8163 26.4214C35.21 25.5966 35.4148 24.6945 35.4158 23.7806V22.3752C36.2759 22.3752 37.1008 22.0335 37.7091 21.4253C38.3173 20.8171 38.659 19.9922 38.659 19.132C38.659 18.2718 38.3173 17.4469 37.7091 16.8387C37.1008 16.2305 36.2759 15.8888 35.4158 15.8888V15.8969Z" stroke="#C69459" stroke-width="0.8" stroke-linejoin="round"/>
<path d="M15.7012 8.61389C15.7012 8.61389 24.72 4.65446 34.2875 8.78686" stroke="#C69459" stroke-width="0.8" stroke-linejoin="round"/>
<path d="M25.0488 6.84611V4.12451" stroke="#C69459" stroke-width="0.8" stroke-linejoin="round"/>
<path d="M27.9121 7.10935C27.9121 7.10935 29.577 6.66882 29.6553 4.91748" stroke="#C69459" stroke-width="0.8" stroke-linejoin="round"/>
<path d="M31.9043 7.73376C31.9043 7.73376 33.4827 7.84457 34.0286 6.48242" stroke="#C69459" stroke-width="0.8" stroke-linejoin="round"/>
<path d="M22.1761 6.84666C22.1761 6.84666 20.5112 6.40612 20.4355 4.65479" stroke="#C69459" stroke-width="0.8" stroke-linejoin="round"/>
<path d="M18.4009 7.7335C18.4009 7.7335 16.8225 7.8362 16.2793 6.48486" stroke="#C69459" stroke-width="0.8" stroke-linejoin="round"/>
<path d="M4.06214 35.444H4.7324C4.82845 35.444 4.92057 35.4058 4.98849 35.3379C5.0564 35.27 5.09456 35.1779 5.09456 35.0818V33.0278L18.5296 33.0143C18.577 33.0143 18.624 33.0049 18.6678 32.9867C18.7116 32.9684 18.7513 32.9417 18.7847 32.908C18.8181 32.8744 18.8446 32.8344 18.8625 32.7905C18.8804 32.7466 18.8894 32.6996 18.889 32.6521V32.3819H21.6755C21.7229 32.3819 21.7699 32.3725 21.8137 32.3542C21.8575 32.336 21.8972 32.3093 21.9306 32.2756C21.9641 32.2419 21.9905 32.202 22.0084 32.1581C22.0263 32.1142 22.0353 32.0671 22.035 32.0197V30.6251C22.035 30.5291 21.9968 30.4369 21.9289 30.369C21.861 30.3011 21.7689 30.2629 21.6728 30.2629H18.889V27.0197C18.889 26.9237 18.8509 26.8316 18.783 26.7636C18.715 26.6957 18.6229 26.6576 18.5269 26.6576L5.09186 26.6711V24.6198C5.09186 24.5723 5.08247 24.5254 5.06424 24.4816C5.04601 24.4378 5.01929 24.398 4.98562 24.3646C4.95196 24.3312 4.91201 24.3048 4.86809 24.2869C4.82416 24.269 4.77713 24.2599 4.7297 24.2603H4.04052C3.9925 24.2596 3.94483 24.2684 3.90026 24.2863C3.8557 24.3042 3.81513 24.3307 3.78093 24.3644C3.74672 24.3981 3.71956 24.4383 3.70103 24.4826C3.68249 24.5269 3.67295 24.5744 3.67295 24.6225V28.6062L1.71351 28.6197V27.3873C1.71355 27.2931 1.67688 27.2026 1.61128 27.135C1.54569 27.0673 1.45632 27.0279 1.36216 27.0251C1.26611 27.0251 1.17399 27.0633 1.10607 27.1312C1.03816 27.1991 1 27.2912 1 27.3873V32.3494C1.0014 32.397 1.01216 32.4438 1.03166 32.4872C1.05117 32.5306 1.07903 32.5698 1.11367 32.6024C1.14831 32.635 1.18904 32.6605 1.23353 32.6774C1.27802 32.6943 1.32541 32.7022 1.37297 32.7008C1.46905 32.6994 1.56075 32.6604 1.62845 32.5922C1.69614 32.524 1.73443 32.432 1.73513 32.3359V31.1035H3.69457V35.0872C3.69492 35.1349 3.70474 35.182 3.72347 35.2259C3.7422 35.2697 3.76946 35.3094 3.80367 35.3426C3.83787 35.3758 3.87834 35.4018 3.92271 35.4192C3.96709 35.4366 4.01448 35.4451 4.06214 35.444Z" stroke="#C69459" stroke-width="0.8" stroke-linejoin="round"/>
<path d="M22.0312 31.3819L24.6393 31.3765" stroke="#C69459" stroke-width="0.8" stroke-linejoin="round"/>
<path d="M16.5852 28.0425C16.6396 28.0421 16.6935 28.0526 16.7438 28.0732C16.7942 28.0939 16.8399 28.1243 16.8784 28.1628C16.9168 28.2013 16.9473 28.247 16.9679 28.2973C16.9886 28.3477 16.999 28.4016 16.9987 28.456V29.6154C16.999 29.67 16.9886 29.724 16.968 29.7745C16.9474 29.825 16.917 29.8709 16.8785 29.9096C16.8401 29.9483 16.7944 29.979 16.744 29.9999C16.6937 30.0209 16.6397 30.0317 16.5852 30.0317C16.5308 30.032 16.4768 30.0216 16.4265 30.0009C16.3762 29.9803 16.3305 29.9498 16.292 29.9113C16.2535 29.8729 16.2231 29.8271 16.2024 29.7768C16.1818 29.7265 16.1713 29.6726 16.1717 29.6182V28.8722H12.1717V29.6182C12.1717 29.7281 12.1282 29.8335 12.0508 29.9115C11.9733 29.9895 11.8681 30.0336 11.7582 30.0344C11.6487 30.0337 11.544 29.9899 11.4666 29.9125C11.3892 29.8351 11.3454 29.7303 11.3447 29.6209V28.8749H7.34742V29.6209C7.34742 29.7305 7.30385 29.8357 7.2263 29.9133C7.14875 29.9908 7.04358 30.0344 6.93391 30.0344C6.82399 30.0344 6.71853 29.9909 6.64055 29.9134C6.56257 29.8359 6.51841 29.7308 6.51769 29.6209C6.51769 29.6209 6.51769 28.5074 6.51769 28.4614C6.52166 28.357 6.56471 28.258 6.6383 28.1839C6.7119 28.1098 6.81066 28.0661 6.91499 28.0614L16.5744 28.0425M16.5744 27.502L6.91499 27.5209C6.78947 27.5209 6.66519 27.5456 6.54926 27.5938C6.43334 27.6419 6.32804 27.7124 6.23942 27.8013C6.15079 27.8901 6.08057 27.9956 6.03279 28.1117C5.985 28.2278 5.96059 28.3521 5.96094 28.4776V29.6398C5.96237 29.8926 6.0638 30.1345 6.24307 30.3128C6.42234 30.4911 6.66488 30.5911 6.91769 30.5911C7.0432 30.5911 7.16749 30.5664 7.28341 30.5182C7.39934 30.4701 7.50463 30.3996 7.59326 30.3107C7.68189 30.2218 7.7521 30.1164 7.79989 30.0003C7.84768 29.8842 7.87209 29.7599 7.87174 29.6344V29.429H10.7906V29.6344C10.7837 29.7641 10.8033 29.8939 10.8482 30.0158C10.8931 30.1377 10.9624 30.2492 11.0518 30.3435C11.1412 30.4378 11.2488 30.5129 11.3682 30.5642C11.4875 30.6155 11.6161 30.6419 11.746 30.6419C11.876 30.6419 12.0045 30.6155 12.1239 30.5642C12.2432 30.5129 12.3509 30.4378 12.4403 30.3435C12.5297 30.2492 12.5989 30.1377 12.6438 30.0158C12.6887 29.8939 12.7083 29.7641 12.7014 29.6344V29.429H15.6176V29.6371C15.6176 29.8901 15.7181 30.1328 15.8971 30.3117C16.076 30.4906 16.3186 30.5911 16.5717 30.5911C16.8247 30.5911 17.0674 30.4906 17.2463 30.3117C17.4252 30.1328 17.5257 29.8901 17.5257 29.6371C17.5257 29.6371 17.5257 28.5236 17.5257 28.4776C17.525 28.2248 17.4243 27.9826 17.2455 27.8038C17.0667 27.625 16.8245 27.5243 16.5717 27.5236L16.5744 27.502Z" fill="#C69459"/>
<path d="M32.9643 31.2339L33.7048 33.3717L35.8426 34.1122L33.7048 34.8528L32.9643 36.9906L32.2238 34.8528L30.0859 34.1122L32.2238 33.3717L32.9643 31.2339Z" stroke="#C69459" stroke-width="0.8" stroke-linejoin="round"/>
<path d="M28.7833 35.2163L29.2697 36.6217L30.6751 37.1082L29.2697 37.5947L28.7833 39.0001L28.2941 37.5947L26.8887 37.1082L28.2941 36.6217L28.7833 35.2163Z" stroke="#C69459" stroke-width="0.8" stroke-linejoin="round"/>
<path d="M7.89774 14.9893L8.38692 16.3947L9.79231 16.8811L8.38692 17.3703L7.89774 18.7757L7.41125 17.3703L6.00586 16.8811L7.41125 16.3947L7.89774 14.9893Z" stroke="#C69459" stroke-width="0.8" stroke-linejoin="round"/>
</g>
<defs>
<clipPath id="clip0_403_1382">
<rect width="40" height="40" fill="white"/>
</clipPath>
</defs>
</svg>
