<svg width="30" height="30" viewBox="0 0 30 30" fill="none" xmlns="http://www.w3.org/2000/svg">
<path d="M16.3501 22.4151C14.0943 23.1671 11.5376 23.1444 10.1841 21.6405C8.83054 20.1366 6.4222 20.0253 5.51985 20.6496C4.61749 21.2738 4.20958 21.3377 4.4465 20.1551C6.89604 13.7686 8.07239 11.762 8.07239 11.762C8.6618 11.5394 9.27855 11.3974 9.90594 11.3397C10.9175 11.2552 11.3893 10.804 11.3687 10.2663C11.3481 9.72862 10.0522 9.51437 9.08806 10.1365C9.08806 10.1365 10.9566 7.36355 11.2162 7.16989C11.4758 6.97624 13.0436 5.34253 15.6868 5.90083C18.33 6.45914 20.4087 9.99233 20.4107 12.3059C20.4107 13.7727 20.1347 15.9854 20.1347 15.9854" stroke="white" stroke-width="0.8" stroke-linejoin="round"/>
<path d="M13.365 11.4021C13.4412 10.9365 14.3106 10.3061 16.1813 10.8418C18.0519 11.3774 18.4165 13.2728 17.9221 13.6168C17.4277 13.9609 13.2352 12.1974 13.365 11.4021Z" stroke="white" stroke-width="0.8" stroke-linejoin="round"/>
<path d="M6.8507 17.5088C6.74563 16.6332 7.83134 16.0811 8.79962 15.9946C9.7679 15.9081 12.0526 16.3551 12.2895 17.96C12.5944 20.0078 9.93065 18.1186 9.11894 17.925C8.11976 17.686 6.98049 18.5842 6.8507 17.5088Z" stroke="white" stroke-width="0.8" stroke-linejoin="round"/>
<path d="M2.98373 13.2389C3.31938 13.2389 3.59148 12.9668 3.59148 12.6312C3.59148 12.2955 3.31938 12.0234 2.98373 12.0234C2.64807 12.0234 2.37598 12.2955 2.37598 12.6312C2.37598 12.9668 2.64807 13.2389 2.98373 13.2389Z" stroke="white" stroke-width="0.8" stroke-linejoin="round"/>
<path d="M13.2083 3.7155C13.544 3.7155 13.8161 3.4434 13.8161 3.10775C13.8161 2.7721 13.544 2.5 13.2083 2.5C12.8727 2.5 12.6006 2.7721 12.6006 3.10775C12.6006 3.4434 12.8727 3.7155 13.2083 3.7155Z" stroke="white" stroke-width="0.8" stroke-linejoin="round"/>
<path d="M21.167 7.38737C21.5026 7.38737 21.7747 7.11527 21.7747 6.77962C21.7747 6.44397 21.5026 6.17188 21.167 6.17188C20.8313 6.17188 20.5592 6.44397 20.5592 6.77962C20.5592 7.11527 20.8313 7.38737 21.167 7.38737Z" stroke="white" stroke-width="0.8" stroke-linejoin="round"/>
<path d="M27.2794 15.5475C27.615 15.5475 27.8871 15.2754 27.8871 14.9398C27.8871 14.6041 27.615 14.332 27.2794 14.332C26.9437 14.332 26.6716 14.6041 26.6716 14.9398C26.6716 15.2754 26.9437 15.5475 27.2794 15.5475Z" stroke="white" stroke-width="0.8" stroke-linejoin="round"/>
<path d="M24.4552 14.2702C24.7908 14.2702 25.0629 13.9981 25.0629 13.6624C25.0629 13.3268 24.7908 13.0547 24.4552 13.0547C24.1195 13.0547 23.8474 13.3268 23.8474 13.6624C23.8474 13.9981 24.1195 14.2702 24.4552 14.2702Z" stroke="white" stroke-width="0.8" stroke-linejoin="round"/>
<path d="M9.23237 3.30859L9.61145 4.40666L10.7095 4.78573L9.61145 5.16687L9.23237 6.26494L8.85124 5.16687L7.75317 4.78573L8.85124 4.40666L9.23237 3.30859Z" stroke="white" stroke-width="0.8" stroke-linejoin="round"/>
<path d="M23.5404 6.77734L23.9215 7.87541L25.0196 8.25448L23.9215 8.63561L23.5404 9.73369L23.1613 8.63561L22.0632 8.25448L23.1613 7.87541L23.5404 6.77734Z" stroke="white" stroke-width="0.8" stroke-linejoin="round"/>
<path d="M3.59163 7.23828L3.97276 8.33635L5.07083 8.71542L3.97276 9.09655L3.59163 10.1946L3.2105 9.09655L2.11243 8.71542L3.2105 8.33635L3.59163 7.23828Z" stroke="white" stroke-width="0.8" stroke-linejoin="round"/>
<path d="M17.3372 22.5H27.0199V23.6887C27.0199 24.6979 26.6191 25.6658 25.9055 26.3794C25.1919 27.093 24.224 27.4938 23.2148 27.4938H21.1423C20.1331 27.4938 19.1653 27.093 18.4517 26.3794C17.7381 25.6658 17.3372 24.6979 17.3372 23.6887V22.5Z" stroke="white" stroke-width="0.8" stroke-linejoin="round"/>
<path d="M17.7614 21.1094H26.3234V22.502H17.7614V21.1094Z" stroke="white" stroke-width="0.8" stroke-linejoin="round"/>
<path d="M18.2767 21.1101C18.2767 21.1101 17.2466 19.8946 18.3941 18.9037C18.3941 18.9037 18.1881 17.2555 19.6941 17.3256C20.1515 17.3462 21.1362 17.579 22.0427 17.0866C22.4321 16.8806 22.3229 16.2254 21.4411 16.0709C21.7728 15.4529 23.5899 15.3375 24.5788 17.0639C24.5788 17.0639 25.922 17.6284 25.6686 18.9037C25.6686 18.9037 27.3909 19.5217 26.3237 21.1101" stroke="white" stroke-width="0.8" stroke-linejoin="round"/>
<path d="M20.0997 19.3222C20.0997 19.3222 23.0932 19.8414 25.6498 18.9844" stroke="white" stroke-width="0.8" stroke-linejoin="round"/>
<path d="M20.5592 17.3594C20.5592 17.3594 22.2588 17.9589 23.5403 17.518" stroke="white" stroke-width="0.8" stroke-linejoin="round"/>
</svg>
