<svg width="30" height="30" viewBox="0 0 30 30" fill="none" xmlns="http://www.w3.org/2000/svg">
<path d="M16.4755 15.585C16.7519 15.9516 17.3566 16.205 18.0591 16.205C18.7617 16.205 19.3664 15.9516 19.6428 15.585" stroke="white" stroke-width="0.8" stroke-linejoin="round"/>
<path d="M13.7475 12.9673C13.7475 12.9673 12.8184 12.2609 12.0851 12.1841C11.3519 12.1073 10.4209 12.3396 9.29407 12.9653" stroke="white" stroke-width="0.8" stroke-linejoin="round"/>
<path d="M16.2528 12.9668C16.2528 12.9668 17.1819 12.2603 17.9152 12.1855C18.6485 12.1106 19.5795 12.341 20.7043 12.9668" stroke="white" stroke-width="0.8" stroke-linejoin="round"/>
<path d="M16.4755 15.585C16.7519 15.9516 17.3566 16.205 18.0591 16.205C18.7617 16.205 19.3664 15.9516 19.6428 15.585" stroke="white" stroke-width="0.8" stroke-linejoin="round"/>
<path d="M10.3575 15.585C10.634 15.9516 11.2386 16.205 11.9412 16.205C12.6438 16.205 13.2484 15.9516 13.5249 15.585" stroke="white" stroke-width="0.8" stroke-linejoin="round"/>
<path d="M11.0756 5.27345C11.0756 5.27345 12.9068 5.24849 12.9068 7.45986" stroke="white" stroke-width="0.8" stroke-linejoin="round"/>
<path d="M13.1797 20.5762C13.4791 20.9754 14.1817 21.2557 14.9995 21.2557C15.8172 21.2557 16.5217 20.9754 16.8211 20.5762" stroke="white" stroke-width="0.8" stroke-linejoin="round"/>
<path d="M5.00012 26.9037V11.5873C5.00012 6.5772 9.4862 2.5 14.9992 2.5C20.5123 2.5 25.0003 6.5772 25.0003 11.5873V26.9037" stroke="white" stroke-width="0.8" stroke-linejoin="round"/>
<path d="M7.99492 14.5921C7.97317 14.1864 7.96229 13.7711 7.96229 13.3463C7.96229 9.94667 11.1143 7.19398 14.9976 7.19398C18.8809 7.19398 22.0367 9.95051 22.0367 13.3501C22.0367 13.7801 22.0252 14.1928 22.0079 14.5959H22.0501V10.7682C22.0501 7.12104 18.8771 4.15527 14.9976 4.15527C11.1181 4.15527 7.94885 7.13063 7.94885 10.7682V14.5978L7.99492 14.5921Z" stroke="white" stroke-width="0.8" stroke-linejoin="round"/>
<path d="M22.0094 14.5905C22.0266 14.1874 22.0382 13.7746 22.0382 13.3447C22.0382 9.94507 18.8862 7.19238 14.9971 7.19238C11.108 7.19238 7.96183 9.94507 7.96183 13.3447C7.96183 13.7708 7.97271 14.1861 7.99447 14.5905C7.18056 14.698 6.65076 15.0358 6.65076 16.0532C6.66018 16.6555 6.84743 17.2417 7.18897 17.7379C7.5305 18.2342 8.01109 18.6184 8.57034 18.8424C8.90774 18.3943 9.34304 18.0292 9.84303 17.7751C10.3116 17.515 10.8309 17.3591 11.3653 17.3182C11.537 17.3081 11.7093 17.3204 11.8778 17.3547C11.8987 17.3596 11.9183 17.369 11.9352 17.3823C11.9521 17.3955 11.9659 17.4123 11.9757 17.4315L12.4767 18.3721C12.4862 18.3915 12.4911 18.4128 12.4911 18.4344C12.4911 18.4561 12.4862 18.4774 12.4767 18.4968C12.2847 18.9998 11.7357 19.5545 10.9929 19.95C10.4744 20.24 9.89188 20.3964 9.29787 20.4049C9.96092 21.6684 10.8982 22.7676 12.041 23.6221C11.9098 23.2821 11.8008 22.9339 11.7146 22.5798L12.7627 22.0039C13.3848 22.6888 13.9135 23.453 14.3349 24.2767C14.4443 24.4859 14.5403 24.6779 14.6286 24.8641C14.7508 24.8866 14.8747 24.8988 14.999 24.9006C16.4752 24.9006 20.3105 23.0443 21.4143 18.8385C21.977 18.6167 22.4613 18.2329 22.8057 17.7357C23.1502 17.2385 23.3393 16.6503 23.3492 16.0455C23.3492 15.0377 22.8214 14.6999 22.0094 14.5905ZM12.7358 22.0154L11.7569 22.5356C11.7436 22.5429 11.7289 22.5475 11.7138 22.549C11.6987 22.5506 11.6835 22.5491 11.6689 22.5446C11.6544 22.5401 11.641 22.5328 11.6294 22.523C11.6178 22.5132 11.6082 22.5012 11.6014 22.4876L11.3499 22.0001C11.2703 21.8436 11.2552 21.6622 11.308 21.4947C11.3607 21.3273 11.4771 21.1873 11.632 21.1048C11.787 21.0223 11.9681 21.0039 12.1365 21.0536C12.3049 21.1032 12.447 21.217 12.5324 21.3704L12.7934 21.8599C12.7999 21.8739 12.8035 21.8891 12.8041 21.9044C12.8047 21.9198 12.8023 21.9352 12.7969 21.9496C12.7916 21.9641 12.7834 21.9773 12.7729 21.9886C12.7625 21.9999 12.7499 22.009 12.7358 22.0154Z" stroke="white" stroke-width="0.8" stroke-linejoin="round"/>
<path d="M11.9855 17.4311L12.4846 18.3717C12.4941 18.3912 12.4991 18.4125 12.4991 18.4341C12.4991 18.4557 12.4941 18.4771 12.4846 18.4965C12.2927 18.9994 11.7437 19.5542 11.0008 19.9496C10.2579 20.3451 9.49584 20.4852 8.96604 20.3681C8.94504 20.3634 8.92528 20.3543 8.90807 20.3414C8.89086 20.3285 8.87659 20.3121 8.86622 20.2932L8.36712 19.3526C8.35776 19.3332 8.35291 19.3119 8.35291 19.2903C8.35291 19.2687 8.35776 19.2473 8.36712 19.2279C8.55908 18.723 9.10809 18.1702 9.85097 17.7747C10.3196 17.5146 10.8388 17.3588 11.3732 17.3179C11.5449 17.3078 11.7172 17.32 11.8857 17.3544C11.9068 17.3595 11.9266 17.369 11.9438 17.3822C11.9609 17.3954 11.9752 17.4121 11.9855 17.4311Z" stroke="white" stroke-width="0.8" stroke-linejoin="round"/>
<path d="M14.3005 27.4037C13.683 26.719 13.16 25.9546 12.7456 25.1309C12.3019 24.3267 11.962 23.4695 11.734 22.5798L12.7821 22.0039C13.3975 22.6899 13.9196 23.4541 14.335 24.2767C14.786 25.0799 15.1275 25.9398 15.3505 26.8336L14.3005 27.4037Z" stroke="white" stroke-width="0.8" stroke-linejoin="round"/>
<path d="M11.6171 21.0943C11.4619 21.1795 11.3468 21.3225 11.2968 21.4923C11.2468 21.6621 11.266 21.8447 11.3502 22.0003L11.6113 22.4879C11.6182 22.5015 11.6277 22.5135 11.6393 22.5233C11.6509 22.533 11.6644 22.5404 11.6789 22.5449C11.6934 22.5493 11.7086 22.5508 11.7237 22.5493C11.7388 22.5478 11.7535 22.5432 11.7668 22.5359L12.7458 22.0157C12.7724 22.0011 12.7922 21.9767 12.8012 21.9477C12.8102 21.9187 12.8075 21.8873 12.7938 21.8602L12.5327 21.3707C12.4914 21.2918 12.4347 21.222 12.3661 21.1653C12.2974 21.1085 12.2182 21.066 12.1329 21.0403C12.0477 21.0146 11.9581 21.0061 11.8696 21.0154C11.781 21.0246 11.6951 21.0515 11.6171 21.0943Z" stroke="white" stroke-width="0.8" stroke-linejoin="round"/>
<path d="M15.4638 28.3228C15.307 28.4062 15.1235 28.424 14.9535 28.3722C14.7836 28.3203 14.6413 28.2031 14.5578 28.0464L14.2967 27.5569C14.283 27.5298 14.2803 27.4984 14.2893 27.4694C14.2982 27.4404 14.3181 27.416 14.3447 27.4014L15.3237 26.8812C15.337 26.8739 15.3516 26.8693 15.3667 26.8678C15.3818 26.8662 15.3971 26.8677 15.4116 26.8722C15.4261 26.8767 15.4395 26.884 15.4512 26.8938C15.4628 26.9036 15.4723 26.9156 15.4792 26.9292L15.7402 27.4167C15.8237 27.5735 15.8415 27.7571 15.7896 27.927C15.7378 28.0969 15.6206 28.2393 15.4638 28.3228Z" stroke="white" stroke-width="0.8" stroke-linejoin="round"/>
<path d="M8.67211 19.9121C8.67211 19.9121 8.12887 20.1041 8.22677 20.5763C8.32467 21.0485 8.94086 22.7761 11.2693 21.7837" stroke="white" stroke-width="0.8" stroke-linejoin="round"/>
<path d="M12.3098 17.9438C12.3098 17.9438 12.759 17.5868 13.1084 17.9246C13.4577 18.2625 14.5845 19.7041 12.4999 21.1399" stroke="white" stroke-width="0.8" stroke-linejoin="round"/>
</svg>
