<svg width="30" height="30" viewBox="0 0 30 30" fill="none" xmlns="http://www.w3.org/2000/svg">
<path d="M16.4756 15.5854C16.752 15.9521 17.3567 16.2055 18.0592 16.2055C18.7618 16.2055 19.3665 15.9521 19.6429 15.5854" stroke="white" stroke-width="0.8" stroke-linejoin="round"/>
<path d="M13.7476 12.9673C13.7476 12.9673 12.8186 12.2609 12.0853 12.1841C11.352 12.1073 10.421 12.3396 9.29419 12.9653" stroke="white" stroke-width="0.8" stroke-linejoin="round"/>
<path d="M16.2527 12.9668C16.2527 12.9668 17.1818 12.2603 17.915 12.1855C18.6483 12.1106 19.5793 12.341 20.7042 12.9668" stroke="white" stroke-width="0.8" stroke-linejoin="round"/>
<path d="M16.4756 15.5854C16.752 15.9521 17.3567 16.2055 18.0592 16.2055C18.7618 16.2055 19.3665 15.9521 19.6429 15.5854" stroke="white" stroke-width="0.8" stroke-linejoin="round"/>
<path d="M10.3574 15.5854C10.6338 15.9521 11.2385 16.2055 11.9411 16.2055C12.6436 16.2055 13.2483 15.9521 13.5247 15.5854" stroke="white" stroke-width="0.8" stroke-linejoin="round"/>
<path d="M11.0754 5.27394C11.0754 5.27394 12.9067 5.24898 12.9067 7.46035" stroke="white" stroke-width="0.8" stroke-linejoin="round"/>
<path d="M13.1797 20.5767C13.4791 20.9759 14.1817 21.2562 14.9995 21.2562C15.8172 21.2562 16.5217 20.9759 16.8211 20.5767" stroke="white" stroke-width="0.8" stroke-linejoin="round"/>
<path d="M5.00024 26.9037V11.5873C5.00024 6.5772 9.48632 2.5 14.9994 2.5C20.5124 2.5 25.0004 6.5772 25.0004 11.5873V26.9037" stroke="white" stroke-width="0.8" stroke-linejoin="round"/>
<path d="M7.9948 14.5921C7.97304 14.1864 7.96217 13.7711 7.96217 13.3463C7.96217 9.94667 11.1141 7.19398 14.9975 7.19398C18.8808 7.19398 22.0366 9.95051 22.0366 13.3501C22.0366 13.7801 22.0251 14.1928 22.0078 14.5959H22.05V10.7682C22.05 7.12104 18.8769 4.15527 14.9975 4.15527C11.118 4.15527 7.94873 7.13063 7.94873 10.7682V14.5978L7.9948 14.5921Z" stroke="white" stroke-width="0.8" stroke-linejoin="round"/>
<path d="M22.0095 14.5905C22.0268 14.1874 22.0383 13.7746 22.0383 13.3447C22.0383 9.94507 18.8863 7.19238 14.9972 7.19238C11.1082 7.19238 7.96196 9.94507 7.96196 13.3447C7.96196 13.7708 7.97283 14.1861 7.99459 14.5905C7.18068 14.698 6.65088 15.0358 6.65088 16.0532C6.66031 16.6555 6.84755 17.2417 7.18909 17.7379C7.53063 18.2342 8.01121 18.6184 8.57047 18.8424C8.90786 18.3943 9.34317 18.0292 9.84315 17.7751C10.3118 17.515 10.831 17.3591 11.3654 17.3182C11.5371 17.3081 11.7094 17.3204 11.8779 17.3547C11.8988 17.3596 11.9184 17.369 11.9353 17.3823C11.9522 17.3955 11.9661 17.4123 11.9758 17.4315L12.4768 18.3721C12.4863 18.3915 12.4913 18.4128 12.4913 18.4344C12.4913 18.4561 12.4863 18.4774 12.4768 18.4968C12.2849 18.9998 11.7359 19.5545 10.993 19.95C10.4745 20.24 9.892 20.3964 9.29799 20.4049C9.96104 21.6684 10.8983 22.7676 12.0411 23.6221C11.9099 23.2821 11.8009 22.9339 11.7147 22.5798L12.7628 22.0039C13.3849 22.6888 13.9136 23.453 14.335 24.2767C14.4444 24.4859 14.5404 24.6779 14.6287 24.8641C14.7509 24.8866 14.8749 24.8988 14.9992 24.9006C16.4753 24.9006 20.3107 23.0443 21.4144 18.8385C21.9771 18.6167 22.4614 18.2329 22.8058 17.7357C23.1503 17.2385 23.3394 16.6503 23.3494 16.0455C23.3494 15.0377 22.8215 14.6999 22.0095 14.5905ZM12.736 22.0154L11.757 22.5356C11.7437 22.5429 11.729 22.5475 11.7139 22.549C11.6988 22.5506 11.6836 22.5491 11.6691 22.5446C11.6546 22.5401 11.6411 22.5328 11.6295 22.523C11.6179 22.5132 11.6084 22.5012 11.6015 22.4876L11.35 22.0001C11.2704 21.8436 11.2553 21.6622 11.3081 21.4947C11.3608 21.3273 11.4772 21.1873 11.6322 21.1048C11.7871 21.0223 11.9683 21.0039 12.1366 21.0536C12.305 21.1032 12.4472 21.217 12.5325 21.3704L12.7936 21.8599C12.8 21.8739 12.8036 21.8891 12.8042 21.9044C12.8048 21.9198 12.8024 21.9352 12.797 21.9496C12.7917 21.9641 12.7835 21.9773 12.7731 21.9886C12.7626 21.9999 12.75 22.009 12.736 22.0154Z" stroke="white" stroke-width="0.8" stroke-linejoin="round"/>
<path d="M11.9857 17.4316L12.4848 18.3722C12.4943 18.3916 12.4992 18.413 12.4992 18.4346C12.4992 18.4562 12.4943 18.4776 12.4848 18.497C12.2928 18.9999 11.7438 19.5547 11.0009 19.9501C10.258 20.3456 9.49596 20.4857 8.96616 20.3686C8.94516 20.3639 8.9254 20.3548 8.90819 20.3419C8.89098 20.329 8.87671 20.3126 8.86634 20.2937L8.36725 19.3531C8.35789 19.3337 8.35303 19.3123 8.35303 19.2907C8.35303 19.2691 8.35789 19.2478 8.36725 19.2284C8.55921 18.7235 9.10821 18.1707 9.85109 17.7752C10.3197 17.5151 10.8389 17.3593 11.3733 17.3184C11.545 17.3083 11.7173 17.3205 11.8858 17.3548C11.9069 17.36 11.9267 17.3694 11.9439 17.3827C11.9611 17.3959 11.9753 17.4126 11.9857 17.4316Z" stroke="white" stroke-width="0.8" stroke-linejoin="round"/>
<path d="M14.3006 27.4037C13.6831 26.719 13.1602 25.9546 12.7458 25.1309C12.302 24.3267 11.9621 23.4695 11.7341 22.5798L12.7822 22.0039C13.3976 22.6899 13.9197 23.4541 14.3352 24.2767C14.7861 25.0799 15.1276 25.9398 15.3506 26.8336L14.3006 27.4037Z" stroke="white" stroke-width="0.8" stroke-linejoin="round"/>
<path d="M11.6171 21.0948C11.4619 21.18 11.3468 21.323 11.2968 21.4928C11.2468 21.6626 11.266 21.8452 11.3502 22.0008L11.6113 22.4884C11.6182 22.5019 11.6277 22.514 11.6393 22.5237C11.6509 22.5335 11.6644 22.5409 11.6789 22.5453C11.6934 22.5498 11.7086 22.5513 11.7237 22.5498C11.7388 22.5483 11.7535 22.5437 11.7668 22.5364L12.7458 22.0162C12.7724 22.0016 12.7922 21.9772 12.8012 21.9481C12.8102 21.9191 12.8075 21.8878 12.7938 21.8607L12.5327 21.3712C12.4914 21.2923 12.4347 21.2225 12.3661 21.1657C12.2974 21.109 12.2182 21.0665 12.1329 21.0408C12.0477 21.0151 11.9581 21.0066 11.8696 21.0158C11.781 21.0251 11.6951 21.052 11.6171 21.0948Z" stroke="white" stroke-width="0.8" stroke-linejoin="round"/>
<path d="M15.4637 28.3228C15.3069 28.4062 15.1233 28.424 14.9534 28.3722C14.7835 28.3203 14.6411 28.2031 14.5576 28.0464L14.2966 27.5569C14.2829 27.5298 14.2802 27.4984 14.2891 27.4694C14.2981 27.4404 14.318 27.416 14.3446 27.4014L15.3235 26.8812C15.3369 26.8739 15.3515 26.8693 15.3666 26.8678C15.3817 26.8662 15.397 26.8677 15.4115 26.8722C15.426 26.8767 15.4394 26.884 15.451 26.8938C15.4626 26.9036 15.4722 26.9156 15.479 26.9292L15.7401 27.4167C15.8236 27.5735 15.8413 27.7571 15.7895 27.927C15.7377 28.0969 15.6205 28.2393 15.4637 28.3228Z" stroke="white" stroke-width="0.8" stroke-linejoin="round"/>
<path d="M8.67224 19.9116C8.67224 19.9116 8.12899 20.1036 8.22689 20.5758C8.32479 21.048 8.94098 22.7756 11.2694 21.7832" stroke="white" stroke-width="0.8" stroke-linejoin="round"/>
<path d="M12.3098 17.9433C12.3098 17.9433 12.759 17.5863 13.1084 17.9241C13.4577 18.262 14.5845 19.7036 12.4999 21.1394" stroke="white" stroke-width="0.8" stroke-linejoin="round"/>
</svg>
