<svg width="40" height="40" viewBox="0 0 40 40" fill="none" xmlns="http://www.w3.org/2000/svg">
<g clip-path="url(#clip0_257_1325)">
<path d="M20.5509 9.04346H17.9038C15.3708 9.05208 12.9167 9.9252 10.9474 11.5183C8.97818 13.1115 7.61184 15.3292 7.07446 17.8045C7.30611 17.8532 7.51411 17.9797 7.66384 18.163C7.81357 18.3463 7.89599 18.5754 7.89738 18.8121V31.6877C8.86752 33.8602 10.4447 35.7061 12.4392 37.0034C14.4336 38.3006 16.7605 38.994 19.1397 39.0001H19.3149C21.7885 38.9933 24.203 38.244 26.2459 36.8494C28.2888 35.4547 29.866 33.4789 30.7732 31.1777L29.3839 30.6332C29.3049 30.6034 29.234 30.5553 29.1771 30.4928C29.1203 30.4303 29.079 30.3553 29.0567 30.2738C29.0344 30.1923 29.0318 30.1066 29.0489 30.0239C29.0661 29.9412 29.1026 29.8637 29.1555 29.7978L30.1098 28.6151C30.1634 28.5497 30.2317 28.4979 30.309 28.4638C30.3864 28.4297 30.4707 28.4144 30.5551 28.4189C30.6395 28.4235 30.7216 28.4479 30.7948 28.4901C30.8681 28.5323 30.9303 28.5912 30.9765 28.662L31.352 29.2471C31.5344 28.403 31.6267 27.5419 31.6274 26.6782V20.1074C31.615 17.1747 30.4436 14.3659 28.3687 12.2933C26.2938 10.2207 23.4836 9.05252 20.5509 9.04346Z" stroke="#C69459" stroke-linejoin="round"/>
<path d="M20.307 1.00001H18.148C15.7204 0.998077 13.3244 1.5507 11.1428 2.61571C8.9613 3.68072 7.05186 5.22998 5.56021 7.14527V12.7524H7.04959V15.2837H2.26229C2.2047 15.8451 2.17546 16.409 2.17468 16.9733V17.7806H2.33739V15.6154H5.56021V17.7868H6.86498C6.93547 17.7863 7.00579 17.7936 7.07463 17.8088C7.612 15.3334 8.97834 13.1157 10.9476 11.5226C12.9168 9.92942 15.371 9.0563 17.9039 9.04768H20.551C23.4865 9.05676 26.299 10.2271 28.3744 12.303C30.4497 14.379 31.6193 17.1919 31.6275 20.1273V27.1643C32.2396 27.1643 32.8456 27.0436 33.411 26.809C33.9763 26.5744 34.4897 26.2305 34.922 25.7971C35.3542 25.3638 35.6966 24.8494 35.9297 24.2834C36.1628 23.7175 36.2819 23.1111 36.2803 22.4991V16.9733C36.2823 14.8751 35.8706 12.7971 35.0686 10.8582C34.2666 8.91926 33.0901 7.15756 31.6064 5.67389C30.1227 4.19022 28.361 3.01372 26.4221 2.21171C24.4832 1.40971 22.4052 0.99795 20.307 1.00001Z" stroke="#C69459" stroke-linejoin="round"/>
<path d="M2.17468 16.9721V17.7794H2.33739V15.6142H4.50888C4.5433 15.5078 4.57146 15.3983 4.60588 15.3013H2.26229C2.20533 15.8564 2.17608 16.4141 2.17468 16.9721Z" stroke="#C69459" stroke-linejoin="round"/>
<path d="M20.3069 1.00001H18.148C15.7203 0.998077 13.3244 1.5507 11.1428 2.61571C8.96127 3.68072 7.05183 5.22998 5.56018 7.14527V12.7524H5.63215C8.05396 7.88058 12.5972 4.49818 18.148 4.49818H20.3382C29.2745 4.49818 35.6263 13.2999 34.6501 22.9809L34.3121 26.3101C34.923 25.8805 35.421 25.3096 35.7637 24.646C36.1064 23.9824 36.2836 23.2459 36.2803 22.4991V16.9733C36.2823 14.8751 35.8706 12.7971 35.0685 10.8582C34.2665 8.91926 33.09 7.15756 31.6064 5.67389C30.1227 4.19022 28.361 3.01372 26.4221 2.21171C24.4832 1.40971 22.4052 0.99795 20.3069 1.00001Z" stroke="#C69459" stroke-linejoin="round"/>
<path d="M9.09888 18.9747C9.09888 18.9747 12.5407 15.8708 16.7586 18.9747" stroke="#C69459" stroke-linejoin="round"/>
<path d="M29.4154 18.976C29.4154 18.976 25.0724 16.0473 21.5273 18.976C20.5886 19.7551 19.4466 21.1162 20.0348 24.4798C20.2194 25.553 21.0267 29.1357 21.0267 29.1357C21.0267 29.1357 20.0536 30.2996 18.5892 30.2996" stroke="#C69459" stroke-linejoin="round"/>
<path d="M9.80603 21.6084C9.80603 21.6084 12.5407 24.0646 15.8637 21.6084" stroke="#C69459" stroke-linejoin="round"/>
<path d="M28.6674 21.6084C28.6674 21.6084 25.2256 23.9238 22.4314 21.6084" stroke="#C69459" stroke-linejoin="round"/>
<path d="M16.524 33.0083C16.524 33.0083 16.7087 34.4695 19.4465 34.4695" stroke="#C69459" stroke-linejoin="round"/>
<path d="M21.9871 33.0083C21.9871 33.0083 21.8025 34.4695 19.0647 34.4695" stroke="#C69459" stroke-linejoin="round"/>
<path d="M9.09888 22.2807C9.09888 22.2807 10.6634 23.9203 13.7078 24.0423C14.8706 24.0718 16.0269 23.8587 17.1027 23.4165C17.1027 25.1875 17.3218 27.0962 14.8342 27.6344C13.6832 27.8359 12.4984 27.6938 11.4277 27.2258C10.357 26.7578 9.44792 25.9846 8.81414 25.0029C8.52315 24.2551 8.35418 21.7863 9.09888 22.2807Z" stroke="#C69459" stroke-linejoin="round"/>
<path d="M40.0049 37.0615L39.2834 37.9548L30.7951 31.0988L31.5165 30.2055L40.0049 37.0615Z" stroke="#C69459" stroke-linejoin="round"/>
<path d="M29.1525 29.8069L30.1068 28.6242C30.1604 28.5588 30.2286 28.507 30.306 28.4729C30.3833 28.4388 30.4676 28.4235 30.552 28.428C30.6364 28.4326 30.7186 28.457 30.7918 28.4992C30.865 28.5415 30.9273 28.6003 30.9735 28.6711L31.8277 29.9978L30.8546 31.1993L29.384 30.633C29.3062 30.603 29.2365 30.5554 29.1805 30.4937C29.1244 30.4321 29.0835 30.3583 29.061 30.278C29.0385 30.1978 29.0351 30.1134 29.0509 30.0316C29.0668 29.9499 29.1016 29.8729 29.1525 29.8069Z" stroke="#C69459" stroke-linejoin="round"/>
<path d="M30.9015 28.5774L28.7738 26.8564" stroke="#C69459" stroke-linejoin="round"/>
<path d="M29.9065 28.8812L28.2294 27.5264" stroke="#C69459" stroke-linejoin="round"/>
<path d="M29.3621 29.5511L27.6881 28.1963" stroke="#C69459" stroke-linejoin="round"/>
<path d="M29.2745 30.5906L27.1469 28.8696" stroke="#C69459" stroke-linejoin="round"/>
<path d="M6.86805 17.7798H1.02943C0.460889 17.7798 0 18.2407 0 18.8092V37.1136C0 37.6821 0.460889 38.143 1.02943 38.143H6.86805C7.43659 38.143 7.89748 37.6821 7.89748 37.1136V18.8092C7.89748 18.2407 7.43659 17.7798 6.86805 17.7798Z" stroke="#C69459" stroke-linejoin="round"/>
<path d="M5.56019 5.28811C5.56019 5.06283 5.18785 4.88135 4.73415 4.88135H3.16967C2.71284 4.88135 2.34363 5.06283 2.34363 5.28811V12.7507H5.56019V5.28811Z" stroke="#C69459" stroke-linejoin="round"/>
<path d="M2.3374 15.6079H5.56023V17.7794H2.3374V15.6079Z" stroke="#C69459" stroke-linejoin="round"/>
<path d="M0.844727 12.7534H7.04944V15.2847H0.844727V12.7534Z" stroke="#C69459" stroke-linejoin="round"/>
<path d="M3.10388 17.7798H4.79352V24.2692H3.10388V17.7798Z" stroke="#C69459" stroke-linejoin="round"/>
<path d="M3.10388 29.9556V31.4387C3.10388 32.3242 3.48249 32.5933 3.9487 32.5933C4.41491 32.5933 4.79039 32.3242 4.79039 31.4387V29.9556H3.10388Z" stroke="#C69459" stroke-linejoin="round"/>
<path d="M0 24.2686H7.89748V29.9539H0V24.2686Z" stroke="#C69459" stroke-linejoin="round"/>
<path d="M2.13706 25.8313C2.13892 25.9359 2.10952 26.0387 2.05263 26.1265C1.99573 26.2143 1.91393 26.2831 1.81769 26.3241C1.72144 26.3652 1.61514 26.3766 1.51239 26.3568C1.40964 26.3371 1.31511 26.2872 1.2409 26.2134C1.1667 26.1397 1.11619 26.0454 1.09585 25.9428C1.0755 25.8402 1.08625 25.7338 1.12671 25.6373C1.16717 25.5408 1.23551 25.4586 1.32297 25.4012C1.41043 25.3438 1.51303 25.3137 1.61765 25.315C1.75437 25.3166 1.88508 25.3714 1.98206 25.4678C2.07903 25.5642 2.13463 25.6946 2.13706 25.8313ZM3.94873 25.315C3.84476 25.315 3.74313 25.3458 3.65668 25.4036C3.57024 25.4613 3.50286 25.5434 3.46307 25.6395C3.42329 25.7355 3.41288 25.8412 3.43316 25.9432C3.45344 26.0452 3.50351 26.1388 3.57702 26.2123C3.65054 26.2859 3.7442 26.3359 3.84617 26.3562C3.94814 26.3765 4.05384 26.3661 4.14989 26.3263C4.24594 26.2865 4.32804 26.2191 4.3858 26.1327C4.44356 26.0462 4.47439 25.9446 4.47439 25.8406C4.47357 25.7015 4.41792 25.5683 4.31952 25.4698C4.22112 25.3714 4.08789 25.3158 3.94873 25.315ZM6.28293 25.315C6.17909 25.3156 6.07777 25.3469 5.99174 25.4051C5.90571 25.4632 5.83882 25.5455 5.79951 25.6416C5.76021 25.7377 5.75024 25.8433 5.77087 25.9451C5.79151 26.0469 5.84182 26.1402 5.91546 26.2134C5.9891 26.2866 6.08277 26.3364 6.18465 26.3564C6.28653 26.3765 6.39206 26.3659 6.48793 26.326C6.5838 26.2861 6.66572 26.2187 6.72334 26.1324C6.78097 26.046 6.81172 25.9445 6.81172 25.8406C6.81172 25.7713 6.79802 25.7027 6.77141 25.6388C6.7448 25.5748 6.70579 25.5167 6.65665 25.4678C6.60751 25.419 6.54919 25.3803 6.48505 25.3541C6.42091 25.3279 6.35222 25.3146 6.28293 25.315Z" fill="#C69459"/>
<path d="M29.4154 22.2765C29.4154 22.2765 27.8509 23.9192 24.8033 24.0413C23.6415 24.0712 22.4862 23.8581 21.4115 23.4155C21.4115 25.1865 21.1925 27.0951 23.6769 27.6333C23.8716 27.6659 24.068 27.6868 24.2651 27.6959C24.4249 27.6995 24.5785 27.7581 24.7001 27.8617C24.827 27.9655 24.9232 28.1019 24.9783 28.2563C25.0334 28.4106 25.0454 28.5771 25.013 28.7378C24.8503 29.5607 23.9272 31.0783 25.2163 31.0783C26.4273 31.0783 26.1331 29.5732 25.9704 28.7503C25.9141 28.4719 25.8672 28.2622 25.8515 28.0933C25.8366 27.9704 25.8663 27.8463 25.9352 27.7434C26.0041 27.6406 26.1077 27.566 26.227 27.5332C27.6645 27.1548 28.9081 26.2517 29.7127 25.0018C29.988 24.254 30.157 21.7853 29.4154 22.2765Z" stroke="#C69459" stroke-linejoin="round"/>
</g>
<defs>
<clipPath id="clip0_257_1325">
<rect width="40" height="40" fill="white"/>
</clipPath>
</defs>
</svg>
