<svg width="30" height="30" viewBox="0 0 30 30" fill="none" xmlns="http://www.w3.org/2000/svg">
<path d="M11.8303 0.75V5.50706L10.4695 6.17447C9.37248 6.73116 8.20893 7.14553 7.00701 7.40752C5.66578 7.68785 4.46147 8.42025 3.59556 9.48219C2.72964 10.5441 2.25464 11.8712 2.25 13.2414V29.2143" stroke="white" stroke-width="0.8" stroke-linejoin="round"/>
<path d="M26.7142 22.5236V13.2414C26.7098 11.9218 26.2689 10.6406 25.4603 9.59778C24.6516 8.55492 23.5206 7.80894 22.2435 7.47616C20.8575 7.14137 19.5093 6.66555 18.2202 6.05614L17.1221 5.5189V0.75" stroke="white" stroke-width="0.8" stroke-linejoin="round"/>
<path d="M7.62695 14.9775V29.2132" stroke="white" stroke-width="0.8" stroke-linejoin="round"/>
<path d="M16.6748 25.923C20.5947 25.923 23.7725 22.7452 23.7725 18.8253C23.7725 14.9053 20.5947 11.7275 16.6748 11.7275C12.7549 11.7275 9.57715 14.9053 9.57715 18.8253C9.57715 22.7452 12.7549 25.923 16.6748 25.923Z" stroke="white" stroke-width="0.8" stroke-linejoin="round"/>
<path d="M16.6749 23.8699C19.4616 23.8699 21.7206 21.6108 21.7206 18.8241C21.7206 16.0374 19.4616 13.7783 16.6749 13.7783C13.8882 13.7783 11.6292 16.0374 11.6292 18.8241C11.6292 21.6108 13.8882 23.8699 16.6749 23.8699Z" stroke="white" stroke-width="0.8" stroke-linejoin="round"/>
<path d="M26.7119 26.8851L22.9253 23.0983C22.8105 22.983 22.6747 22.8906 22.5253 22.8262C22.0278 23.5513 21.4003 24.178 20.6746 24.6746C20.7407 24.823 20.8329 24.9585 20.9467 25.0745L24.7334 28.8613C24.9855 29.1104 25.3256 29.2502 25.6801 29.2502C26.0345 29.2502 26.3747 29.1104 26.6267 28.8613L26.7001 28.7855C26.953 28.5347 27.0962 28.1939 27.0985 27.8377C27.1007 27.4816 26.9617 27.139 26.7119 26.8851Z" stroke="white" stroke-width="0.8" stroke-linejoin="round"/>
<path d="M22.6034 11.0877C22.9942 11.0877 23.311 10.7708 23.311 10.38C23.311 9.98919 22.9942 9.67236 22.6034 9.67236C22.2126 9.67236 21.8958 9.98919 21.8958 10.38C21.8958 10.7708 22.2126 11.0877 22.6034 11.0877Z" stroke="white" stroke-width="0.8" stroke-linejoin="round"/>
<path d="M17.8085 9.32788C18.1993 9.32788 18.5161 9.01106 18.5161 8.62024C18.5161 8.22942 18.1993 7.9126 17.8085 7.9126C17.4177 7.9126 17.1008 8.22942 17.1008 8.62024C17.1008 9.01106 17.4177 9.32788 17.8085 9.32788Z" stroke="white" stroke-width="0.8" stroke-linejoin="round"/>
<path d="M9.93444 10.3816C10.3253 10.3816 10.6421 10.0648 10.6421 9.67395C10.6421 9.28313 10.3253 8.96631 9.93444 8.96631C9.54363 8.96631 9.22681 9.28313 9.22681 9.67395C9.22681 10.0648 9.54363 10.3816 9.93444 10.3816Z" stroke="white" stroke-width="0.8" stroke-linejoin="round"/>
<path d="M15.108 18.4251C15.4988 18.4251 15.8157 18.1082 15.8157 17.7174C15.8157 17.3266 15.4988 17.0098 15.108 17.0098C14.7172 17.0098 14.4004 17.3266 14.4004 17.7174C14.4004 18.1082 14.7172 18.4251 15.108 18.4251Z" stroke="white" stroke-width="0.8" stroke-linejoin="round"/>
<path d="M18.0546 17.8733C18.4454 17.8733 18.7622 17.5565 18.7622 17.1657C18.7622 16.7748 18.4454 16.458 18.0546 16.458C17.6637 16.458 17.3469 16.7748 17.3469 17.1657C17.3469 17.5565 17.6637 17.8733 18.0546 17.8733Z" stroke="white" stroke-width="0.8" stroke-linejoin="round"/>
<path d="M17.3824 21.53C17.7733 21.53 18.0901 21.2132 18.0901 20.8224C18.0901 20.4316 17.7733 20.1147 17.3824 20.1147C16.9916 20.1147 16.6748 20.4316 16.6748 20.8224C16.6748 21.2132 16.9916 21.53 17.3824 21.53Z" stroke="white" stroke-width="0.8" stroke-linejoin="round"/>
<path d="M5.61535 14.241C6.00617 14.241 6.32299 13.9241 6.32299 13.5333C6.32299 13.1425 6.00617 12.8257 5.61535 12.8257C5.22453 12.8257 4.90771 13.1425 4.90771 13.5333C4.90771 13.9241 5.22453 14.241 5.61535 14.241Z" stroke="white" stroke-width="0.8" stroke-linejoin="round"/>
<path d="M4.90759 24.5759C5.2984 24.5759 5.61522 24.2591 5.61522 23.8683C5.61522 23.4775 5.2984 23.1606 4.90759 23.1606C4.51677 23.1606 4.19995 23.4775 4.19995 23.8683C4.19995 24.2591 4.51677 24.5759 4.90759 24.5759Z" stroke="white" stroke-width="0.8" stroke-linejoin="round"/>
<path d="M5.61535 20.4338C6.00617 20.4338 6.32299 20.117 6.32299 19.7262C6.32299 19.3354 6.00617 19.0186 5.61535 19.0186C5.22453 19.0186 4.90771 19.3354 4.90771 19.7262C4.90771 20.117 5.22453 20.4338 5.61535 20.4338Z" stroke="white" stroke-width="0.8" stroke-linejoin="round"/>
<path d="M13.5225 26.4814C14.3799 26.8367 15.2914 27.044 16.2181 27.0944" stroke="white" stroke-width="0.8" stroke-linejoin="round"/>
<path d="M8.63989 20.8389C9.13255 22.7782 10.3092 24.4743 11.9532 25.6149" stroke="white" stroke-width="0.8" stroke-linejoin="round"/>
</svg>
