<svg width="30" height="30" viewBox="0 0 30 30" fill="none" xmlns="http://www.w3.org/2000/svg">
<g clip-path="url(#clip0_257_1656)">
<path d="M9.64654 12.4296C10.0407 12.1253 10.5193 11.9504 11.0168 11.929V9.46209C12.5816 8.33102 15.4762 7.57089 18.7884 7.57089C22.1005 7.57089 24.9971 8.33102 26.5619 9.46209V11.9229C27.0536 11.9219 27.5338 12.0711 27.9383 12.3506C31.2687 10.2425 28.2261 8.04926 28.2241 7.51211C28.2241 4.39254 24.8552 1.01148 20.6573 0.782432C19.4127 0.739189 18.1674 0.739189 16.9215 0.782432C12.7215 1.01148 9.34857 4.39254 9.35262 7.51211C9.3506 8.05332 6.46616 10.4209 9.64654 12.4296Z" stroke="white" stroke-width="0.8" stroke-linejoin="round"/>
<path d="M26.5599 11.9228V9.462C24.995 8.33093 22.1005 7.5708 18.7863 7.5708C15.4721 7.5708 12.5796 8.33093 11.0147 9.462V11.9289C10.4127 11.9867 9.85374 12.2668 9.44701 12.7145C9.04029 13.1621 8.81494 13.7453 8.81494 14.3501C8.81494 14.955 9.04029 15.5381 9.44701 15.9858C9.85374 16.4335 10.4127 16.7136 11.0147 16.7714V17.9025C11.0151 18.6303 11.1873 19.3477 11.5174 19.9964H13.885C13.9207 19.9964 13.956 20.0034 13.9889 20.017C14.0219 20.0307 14.0518 20.0507 14.077 20.0759C14.1023 20.1011 14.1223 20.1311 14.1359 20.164C14.1496 20.197 14.1566 20.2323 14.1566 20.268V22.7004H16.2444C16.28 22.7001 16.3153 22.7069 16.3482 22.7203C16.3812 22.7338 16.4111 22.7536 16.4364 22.7786C16.4616 22.8037 16.4817 22.8335 16.4953 22.8664C16.509 22.8992 16.516 22.9344 16.516 22.97V24.0159C16.5163 24.0517 16.5095 24.0871 16.4959 24.1202C16.4824 24.1533 16.4624 24.1833 16.4371 24.2086C16.4118 24.2339 16.3818 24.2539 16.3487 24.2674C16.3156 24.281 16.2802 24.2878 16.2444 24.2876H16.1796C16.8286 24.6212 17.5477 24.7956 18.2775 24.7963H19.0559C20.1149 24.7967 21.1416 24.4315 21.9626 23.7626L24.8531 21.4112C25.3856 20.9796 25.815 20.4347 26.1103 19.8161C26.4055 19.1976 26.5591 18.521 26.5599 17.8356V16.7815C27.205 16.7815 27.8237 16.5253 28.2798 16.0691C28.736 15.6129 28.9923 14.9942 28.9923 14.3491C28.9923 13.704 28.736 13.0853 28.2798 12.6291C27.8237 12.173 27.205 11.9167 26.5599 11.9167V11.9228Z" stroke="white" stroke-width="0.8" stroke-linejoin="round"/>
<path d="M11.7749 6.46042C11.7749 6.46042 18.539 3.49085 25.7147 6.59015" stroke="white" stroke-width="0.8" stroke-linejoin="round"/>
<path d="M18.7864 5.13446V3.09326" stroke="white" stroke-width="0.8" stroke-linejoin="round"/>
<path d="M20.9329 5.33189C20.9329 5.33189 22.1815 5.00149 22.2403 3.68799" stroke="white" stroke-width="0.8" stroke-linejoin="round"/>
<path d="M23.9268 5.80032C23.9268 5.80032 25.1105 5.88343 25.52 4.86182" stroke="white" stroke-width="0.8" stroke-linejoin="round"/>
<path d="M16.6316 5.13512C16.6316 5.13512 15.3829 4.80471 15.3262 3.49121" stroke="white" stroke-width="0.8" stroke-linejoin="round"/>
<path d="M13.7999 5.80025C13.7999 5.80025 12.6162 5.87727 12.2087 4.86377" stroke="white" stroke-width="0.8" stroke-linejoin="round"/>
<path d="M3.0466 26.5831H3.5493C3.62134 26.5831 3.69043 26.5545 3.74137 26.5036C3.7923 26.4526 3.82092 26.3835 3.82092 26.3115V24.771L13.8972 24.7608C13.9328 24.7608 13.968 24.7538 14.0008 24.7401C14.0337 24.7264 14.0635 24.7064 14.0885 24.6812C14.1136 24.6559 14.1334 24.6259 14.1468 24.593C14.1603 24.5601 14.167 24.5248 14.1668 24.4892V24.2865H16.2566C16.2922 24.2865 16.3274 24.2795 16.3603 24.2658C16.3931 24.2521 16.4229 24.2321 16.448 24.2068C16.473 24.1816 16.4929 24.1516 16.5063 24.1187C16.5197 24.0857 16.5265 24.0505 16.5262 24.0149V22.969C16.5262 22.8969 16.4976 22.8278 16.4467 22.7769C16.3957 22.726 16.3266 22.6973 16.2546 22.6973H14.1668V20.2649C14.1668 20.1929 14.1382 20.1238 14.0872 20.0729C14.0363 20.0219 13.9672 19.9933 13.8952 19.9933L3.81889 20.0034V18.4649C3.81889 18.4294 3.81185 18.3941 3.79818 18.3613C3.78451 18.3285 3.76447 18.2986 3.73922 18.2736C3.71397 18.2485 3.68401 18.2287 3.65106 18.2153C3.61812 18.2019 3.58285 18.1951 3.54727 18.1953H3.03039C2.99438 18.1948 2.95862 18.2014 2.9252 18.2148C2.89177 18.2283 2.86135 18.2482 2.8357 18.2735C2.81004 18.2987 2.78967 18.3289 2.77577 18.3621C2.76187 18.3953 2.75471 18.4309 2.75471 18.467V21.4548L1.28513 21.4649V20.5406C1.28516 20.4699 1.25766 20.4021 1.20846 20.3513C1.15926 20.3006 1.09224 20.2711 1.02162 20.269C0.949581 20.269 0.880494 20.2976 0.829555 20.3485C0.778617 20.3995 0.75 20.4686 0.75 20.5406V24.2622C0.751049 24.2979 0.759118 24.333 0.773746 24.3655C0.788375 24.3981 0.809276 24.4274 0.835254 24.4519C0.861232 24.4764 0.891779 24.4955 0.925148 24.5082C0.958517 24.5208 0.994054 24.5268 1.02973 24.5257C1.10179 24.5246 1.17057 24.4954 1.22133 24.4443C1.2721 24.3931 1.30082 24.3241 1.30135 24.252V23.3277H2.77093V26.3155C2.77119 26.3513 2.77856 26.3866 2.7926 26.4195C2.80665 26.4524 2.8271 26.4821 2.85275 26.507C2.8784 26.5319 2.90875 26.5515 2.94204 26.5645C2.97532 26.5776 3.01086 26.5839 3.0466 26.5831Z" stroke="white" stroke-width="0.8" stroke-linejoin="round"/>
<path d="M16.5242 23.5363L18.4802 23.5322" stroke="white" stroke-width="0.8" stroke-linejoin="round"/>
<path d="M12.4399 21.0319C12.4807 21.0316 12.5211 21.0394 12.5589 21.0549C12.5966 21.0704 12.6309 21.0932 12.6598 21.1221C12.6886 21.151 12.7114 21.1852 12.7269 21.223C12.7424 21.2607 12.7503 21.3012 12.75 21.342V22.2116C12.7503 22.2525 12.7424 22.293 12.727 22.3309C12.7115 22.3688 12.6887 22.4032 12.6599 22.4322C12.6311 22.4612 12.5968 22.4842 12.559 22.4999C12.5213 22.5157 12.4808 22.5237 12.4399 22.5237C12.3991 22.524 12.3586 22.5162 12.3209 22.5007C12.2831 22.4852 12.2488 22.4624 12.22 22.4335C12.1911 22.4047 12.1683 22.3704 12.1528 22.3326C12.1373 22.2949 12.1295 22.2544 12.1297 22.2136V21.6542H9.12975V22.2136C9.12975 22.2961 9.09714 22.3751 9.03904 22.4336C8.98094 22.4921 8.90206 22.5252 8.81962 22.5258C8.73753 22.5252 8.65896 22.4924 8.60091 22.4344C8.54286 22.3763 8.51002 22.2977 8.50949 22.2156V21.6562H5.51154V22.2156C5.51154 22.2979 5.47886 22.3768 5.4207 22.4349C5.36254 22.4931 5.28366 22.5258 5.20141 22.5258C5.11897 22.5258 5.03987 22.4932 4.98139 22.4351C4.92291 22.377 4.88978 22.2981 4.88925 22.2156C4.88925 22.2156 4.88925 21.3805 4.88925 21.3461C4.89222 21.2678 4.92451 21.1935 4.9797 21.1379C5.0349 21.0824 5.10897 21.0496 5.18722 21.0461L12.4318 21.0319M12.4318 20.6265L5.18722 20.6407C5.09308 20.6407 4.99987 20.6592 4.91292 20.6953C4.82598 20.7314 4.74701 20.7843 4.68054 20.8509C4.61407 20.9176 4.56141 20.9967 4.52557 21.0838C4.48973 21.1708 4.47142 21.2641 4.47168 21.3582V22.2298C4.47275 22.4194 4.54883 22.6009 4.68328 22.7346C4.81773 22.8683 4.99963 22.9433 5.18924 22.9433C5.28338 22.9433 5.37659 22.9248 5.46354 22.8887C5.55048 22.8526 5.62945 22.7997 5.69592 22.733C5.76239 22.6664 5.81506 22.5873 5.85089 22.5002C5.88673 22.4132 5.90505 22.3199 5.90478 22.2258V22.0717H8.09395V22.2258C8.08877 22.3231 8.10347 22.4204 8.13714 22.5119C8.17081 22.6033 8.22275 22.6869 8.2898 22.7576C8.35685 22.8283 8.43759 22.8847 8.52711 22.9231C8.61663 22.9616 8.71306 22.9815 8.8105 22.9815C8.90794 22.9815 9.00436 22.9616 9.09388 22.9231C9.1834 22.8847 9.26415 22.8283 9.33119 22.7576C9.39824 22.6869 9.45018 22.6033 9.48386 22.5119C9.51753 22.4204 9.53222 22.3231 9.52705 22.2258V22.0717H11.7142V22.2278C11.7142 22.4176 11.7896 22.5996 11.9238 22.7338C12.058 22.868 12.24 22.9433 12.4297 22.9433C12.6195 22.9433 12.8015 22.868 12.9357 22.7338C13.0699 22.5996 13.1453 22.4176 13.1453 22.2278C13.1453 22.2278 13.1453 21.3927 13.1453 21.3582C13.1447 21.1686 13.0692 20.9869 12.9351 20.8528C12.801 20.7188 12.6193 20.6432 12.4297 20.6427L12.4318 20.6265Z" fill="white"/>
<path d="M24.7235 23.4253L25.2789 25.0287L26.8822 25.5841L25.2789 26.1395L24.7235 27.7428L24.1681 26.1395L22.5647 25.5841L24.1681 25.0287L24.7235 23.4253Z" stroke="white" stroke-width="0.8" stroke-linejoin="round"/>
<path d="M21.5877 26.4121L21.9525 27.4662L23.0066 27.831L21.9525 28.1959L21.5877 29.2499L21.2208 28.1959L20.1667 27.831L21.2208 27.4662L21.5877 26.4121Z" stroke="white" stroke-width="0.8" stroke-linejoin="round"/>
<path d="M5.92306 11.2422L6.28995 12.2962L7.34399 12.6611L6.28995 13.028L5.92306 14.082L5.5582 13.028L4.50415 12.6611L5.5582 12.2962L5.92306 11.2422Z" stroke="white" stroke-width="0.8" stroke-linejoin="round"/>
</g>
<defs>
<clipPath id="clip0_257_1656">
<rect width="30" height="30" fill="white"/>
</clipPath>
</defs>
</svg>
