<svg width="28" height="28" viewBox="0 0 28 28" fill="none" xmlns="http://www.w3.org/2000/svg">
<path d="M15.481 14.1328C15.7585 14.5009 16.3655 14.7553 17.0708 14.7553C17.7761 14.7553 18.3832 14.5009 18.6607 14.1328" stroke="white" stroke-width="0.8" stroke-linejoin="round"/>
<path d="M12.7426 11.5075C12.7426 11.5075 11.8099 10.7983 11.0737 10.7212C10.3376 10.6442 9.40294 10.8773 8.27173 11.5056" stroke="white" stroke-width="0.8" stroke-linejoin="round"/>
<path d="M15.2574 11.505C15.2574 11.505 16.1902 10.7959 16.9263 10.7207C17.6625 10.6455 18.5971 10.8768 19.7264 11.505" stroke="white" stroke-width="0.8" stroke-linejoin="round"/>
<path d="M15.481 14.1328C15.7585 14.5009 16.3655 14.7553 17.0708 14.7553C17.7761 14.7553 18.3832 14.5009 18.6607 14.1328" stroke="white" stroke-width="0.8" stroke-linejoin="round"/>
<path d="M9.33923 14.1328C9.61674 14.5009 10.2238 14.7553 10.9291 14.7553C11.6344 14.7553 12.2415 14.5009 12.519 14.1328" stroke="white" stroke-width="0.8" stroke-linejoin="round"/>
<path d="M10.0601 3.77736C10.0601 3.77736 11.8985 3.7523 11.8985 5.97233" stroke="white" stroke-width="0.8" stroke-linejoin="round"/>
<path d="M12.1721 19.1484C12.4727 19.5493 13.1781 19.8306 13.999 19.8306C14.82 19.8306 15.5272 19.5493 15.8278 19.1484" stroke="white" stroke-width="0.8" stroke-linejoin="round"/>
<path d="M3.96082 25.4954V10.119C3.96082 5.08927 8.46447 0.996094 13.9991 0.996094C19.5338 0.996094 24.0394 5.08927 24.0394 10.119V25.4954" stroke="white" stroke-width="0.8" stroke-linejoin="round"/>
<path d="M6.96703 13.1339C6.94519 12.7267 6.93427 12.3098 6.93427 11.8832C6.93427 8.47034 10.0986 5.70686 13.9971 5.70686C17.8957 5.70686 21.0638 8.47419 21.0638 11.8871C21.0638 12.3188 21.0523 12.7331 21.0349 13.1378H21.0773V9.29514C21.0773 5.63363 17.8918 2.65625 13.9971 2.65625C10.1024 2.65625 6.92078 5.64327 6.92078 9.29514V13.1397L6.96703 13.1339Z" stroke="white" stroke-width="0.8" stroke-linejoin="round"/>
<path d="M21.0368 13.1341C21.0542 12.7294 21.0657 12.3151 21.0657 11.8834C21.0657 8.47051 17.9014 5.70703 13.9971 5.70703C10.0928 5.70703 6.93426 8.47051 6.93426 11.8834C6.93426 12.3112 6.94518 12.7281 6.96702 13.1341C6.14992 13.242 5.61804 13.5812 5.61804 14.6026C5.62751 15.2073 5.81549 15.7957 6.15836 16.2939C6.50124 16.7921 6.98371 17.1778 7.54515 17.4027C7.88387 16.9528 8.32088 16.5864 8.82282 16.3312C9.29326 16.0701 9.81454 15.9136 10.351 15.8725C10.5234 15.8624 10.6964 15.8747 10.8656 15.9091C10.8866 15.9141 10.9062 15.9235 10.9232 15.9368C10.9402 15.9502 10.954 15.967 10.9638 15.9862L11.4668 16.9305C11.4764 16.95 11.4813 16.9714 11.4813 16.9931C11.4813 17.0148 11.4764 17.0363 11.4668 17.0558C11.2741 17.5607 10.723 18.1176 9.97716 18.5146C9.45669 18.8058 8.87187 18.9628 8.27552 18.9713C8.94118 20.2398 9.88209 21.3433 11.0294 22.2012C10.8977 21.8598 10.7883 21.5102 10.7018 21.1547L11.754 20.5766C12.3785 21.2641 12.9092 22.0314 13.3323 22.8583C13.4421 23.0684 13.5385 23.2611 13.6271 23.448C13.7498 23.4706 13.8743 23.4829 13.999 23.4846C15.481 23.4846 19.3313 21.6211 20.4394 17.3988C21.0044 17.1761 21.4905 16.7908 21.8363 16.2917C22.1821 15.7925 22.372 15.202 22.382 14.5949C22.382 13.5831 21.852 13.244 21.0368 13.1341ZM11.727 20.5882L10.7442 21.1104C10.7308 21.1177 10.7161 21.1223 10.7009 21.1239C10.6858 21.1254 10.6705 21.1239 10.6559 21.1194C10.6413 21.1149 10.6278 21.1075 10.6162 21.0977C10.6045 21.0879 10.595 21.0758 10.5881 21.0622L10.3356 20.5727C10.2556 20.4157 10.2405 20.2335 10.2935 20.0654C10.3465 19.8974 10.4633 19.7568 10.6189 19.6739C10.7744 19.5911 10.9563 19.5727 11.1253 19.6225C11.2943 19.6724 11.437 19.7866 11.5227 19.9407L11.7848 20.4321C11.7913 20.4461 11.7949 20.4613 11.7955 20.4767C11.7961 20.4922 11.7936 20.5076 11.7883 20.5221C11.7829 20.5366 11.7747 20.5499 11.7642 20.5612C11.7537 20.5726 11.741 20.5817 11.727 20.5882Z" stroke="white" stroke-width="0.8" stroke-linejoin="round"/>
<path d="M10.9735 15.9882L11.4746 16.9325C11.4841 16.952 11.4891 16.9734 11.4891 16.9951C11.4891 17.0169 11.4841 17.0383 11.4746 17.0578C11.2819 17.5627 10.7307 18.1196 9.98493 18.5166C9.23914 18.9136 8.47408 19.0543 7.94219 18.9367C7.92111 18.932 7.90128 18.9229 7.884 18.9099C7.86672 18.897 7.8524 18.8805 7.84198 18.8616L7.34093 17.9173C7.33154 17.8977 7.32666 17.8763 7.32666 17.8546C7.32666 17.833 7.33154 17.8115 7.34093 17.792C7.53365 17.2852 8.0848 16.7302 8.83059 16.3332C9.30103 16.0721 9.82231 15.9156 10.3588 15.8745C10.5312 15.8644 10.7041 15.8767 10.8733 15.9111C10.8945 15.9163 10.9143 15.9258 10.9316 15.9391C10.9488 15.9524 10.9631 15.9691 10.9735 15.9882Z" stroke="white" stroke-width="0.8" stroke-linejoin="round"/>
<path d="M13.2976 25.9952C12.6777 25.3078 12.1527 24.5404 11.7367 23.7135C11.2912 22.9062 10.9499 22.0456 10.7211 21.1524L11.7733 20.5742C12.391 21.2629 12.9152 22.0301 13.3323 22.8559C13.785 23.6623 14.1279 24.5256 14.3517 25.4228L13.2976 25.9952Z" stroke="white" stroke-width="0.8" stroke-linejoin="round"/>
<path d="M10.6035 19.6649C10.4478 19.7504 10.3322 19.8941 10.282 20.0645C10.2318 20.2349 10.2511 20.4183 10.3357 20.5745L10.5978 21.064C10.6047 21.0776 10.6142 21.0897 10.6259 21.0995C10.6375 21.1093 10.651 21.1167 10.6656 21.1212C10.6802 21.1257 10.6955 21.1272 10.7106 21.1256C10.7258 21.1241 10.7405 21.1195 10.7538 21.1122L11.7367 20.59C11.7634 20.5753 11.7833 20.5508 11.7923 20.5216C11.8013 20.4925 11.7986 20.461 11.7849 20.4339L11.5228 19.9424C11.4813 19.8633 11.4244 19.7931 11.3555 19.7362C11.2866 19.6792 11.207 19.6366 11.1214 19.6107C11.0358 19.5849 10.9459 19.5764 10.857 19.5857C10.7681 19.595 10.6819 19.6219 10.6035 19.6649Z" stroke="white" stroke-width="0.8" stroke-linejoin="round"/>
<path d="M14.4654 26.9222C14.3079 27.006 14.1237 27.0239 13.9531 26.9718C13.7825 26.9198 13.6396 26.8021 13.5558 26.6447L13.2937 26.1533C13.2799 26.1261 13.2772 26.0947 13.2862 26.0655C13.2952 26.0364 13.3152 26.0119 13.3419 25.9972L14.3247 25.475C14.3381 25.4676 14.3527 25.4631 14.3679 25.4615C14.3831 25.46 14.3984 25.4615 14.4129 25.466C14.4275 25.4705 14.441 25.4779 14.4527 25.4877C14.4643 25.4975 14.4739 25.5096 14.4808 25.5231L14.7429 26.0126C14.8267 26.1701 14.8445 26.3543 14.7925 26.5249C14.7404 26.6955 14.6228 26.8384 14.4654 26.9222Z" stroke="white" stroke-width="0.8" stroke-linejoin="round"/>
<path d="M7.64729 18.4805C7.64729 18.4805 7.10192 18.6732 7.2002 19.1472C7.29849 19.6213 7.91709 21.3557 10.2547 20.3594" stroke="white" stroke-width="0.8" stroke-linejoin="round"/>
<path d="M11.2993 16.5011C11.2993 16.5011 11.7503 16.1427 12.101 16.4818C12.4517 16.821 13.5829 18.2683 11.4901 19.7097" stroke="white" stroke-width="0.8" stroke-linejoin="round"/>
</svg>
