<svg width="16" height="16" viewBox="0 0 16 16" fill="none" xmlns="http://www.w3.org/2000/svg">
<g clip-path="url(#clip0_141_10343)">
<path d="M15.1469 7.00078C14.8782 6.73203 14.525 6.58516 14.1469 6.58516C12.7157 6.58516 11.3032 6.81641 9.94692 7.27578L9.31567 7.48828C9.27817 7.50078 9.2563 7.44766 9.29067 7.43203L9.89067 7.13516C11.175 6.50078 12.3375 5.66641 13.35 4.65391C13.6157 4.38828 13.7625 4.04141 13.7657 3.67266C13.775 2.89766 13.1438 2.25078 12.3688 2.23828C11.9844 2.23203 11.6219 2.38203 11.35 2.65391C10.3375 3.66641 9.50317 4.82891 8.8688 6.11328L8.57192 6.71328C8.55317 6.74766 8.50317 6.72578 8.51567 6.68828L8.72817 6.05703C9.18755 4.70078 9.4188 3.28828 9.4188 1.85703C9.4188 1.47891 9.27192 1.12266 9.00317 0.857031C8.73442 0.588281 8.3813 0.441406 8.00317 0.441406C7.62505 0.441406 7.2688 0.588281 7.00317 0.857031C6.73442 1.12578 6.58755 1.47891 6.58755 1.85703C6.58755 3.28828 6.8188 4.70078 7.27817 6.05703L7.49067 6.68828C7.50317 6.72578 7.45005 6.74766 7.43442 6.71328L7.13755 6.11328C6.50317 4.82891 5.6688 3.66641 4.6563 2.65391C4.39067 2.38828 4.0438 2.24141 3.67505 2.23828C2.89692 2.22891 2.25005 2.86016 2.24067 3.63516C2.23442 4.01953 2.38442 4.38203 2.6563 4.65391C3.6688 5.66641 4.8313 6.50078 6.11567 7.13516L6.71567 7.43203C6.75005 7.45078 6.72817 7.50078 6.69067 7.48828L6.05942 7.27578C4.70317 6.81641 3.29067 6.58516 1.85942 6.58516C1.4813 6.58516 1.12505 6.73203 0.859424 7.00078C0.306299 7.55391 0.306299 8.45078 0.859424 9.00391C1.12817 9.27266 1.4813 9.41953 1.85942 9.41953C3.29067 9.41953 4.70317 9.18828 6.05942 8.72891L6.69067 8.51641C6.72817 8.50391 6.75005 8.55703 6.71567 8.57266L6.11567 8.86953C4.8313 9.50391 3.6688 10.3383 2.6563 11.3508C2.39067 11.6164 2.2438 11.9633 2.24067 12.332C2.2313 13.107 2.86255 13.7539 3.63755 13.7664C4.02192 13.7727 4.38442 13.6227 4.6563 13.3508C5.6688 12.3383 6.50317 11.1758 7.13755 9.89141L7.43442 9.29141C7.45317 9.25703 7.50317 9.27891 7.49067 9.31641L7.27817 9.94766C6.8188 11.3039 6.58755 12.7164 6.58755 14.1477C6.58755 14.5258 6.73442 14.882 7.00317 15.1477C7.27192 15.4164 7.62505 15.5633 8.00317 15.5633C8.3813 15.5633 8.73755 15.4164 9.00317 15.1477C9.27192 14.8789 9.4188 14.5258 9.4188 14.1477C9.4188 12.7164 9.18755 11.3039 8.72817 9.94766L8.51567 9.31641C8.50317 9.27891 8.5563 9.25703 8.57192 9.29141L8.8688 9.89141C9.50317 11.1758 10.3375 12.3383 11.35 13.3508C11.6157 13.6164 11.9625 13.7633 12.3313 13.7664C13.1063 13.7758 13.7532 13.1445 13.7657 12.3695C13.7719 11.9852 13.6219 11.6227 13.35 11.3508C12.3375 10.3383 11.175 9.50391 9.89067 8.86953L9.29067 8.57266C9.2563 8.55391 9.27817 8.50391 9.31567 8.51641L9.94692 8.72891C11.3032 9.18828 12.7157 9.41953 14.1469 9.41953C14.525 9.41953 14.8813 9.27266 15.1469 9.00391C15.7 8.45078 15.7 7.55078 15.1469 7.00078Z" fill="#C69459"/>
</g>
<defs>
<clipPath id="clip0_141_10343">
<rect width="16" height="16" fill="white"/>
</clipPath>
</defs>
</svg>
