<svg width="40" height="40" viewBox="0 0 40 40" fill="none" xmlns="http://www.w3.org/2000/svg">
<path d="M21.8017 29.8842C18.7938 30.8869 15.3849 30.8567 13.5802 28.8514C11.7755 26.8462 8.5644 26.6979 7.36126 27.5302C6.15812 28.3625 5.61424 28.4476 5.93013 26.8709C9.19618 18.3555 10.7647 15.6801 10.7647 15.6801C11.5505 15.3833 12.3729 15.1939 13.2094 15.117C14.5581 15.0043 15.1872 14.4028 15.1597 13.6858C15.1322 12.9689 13.4044 12.6832 12.1189 13.5128C12.1189 13.5128 14.6103 9.81546 14.9564 9.55726C15.3025 9.29905 17.3929 7.12076 20.9172 7.86517C24.4414 8.60958 27.213 13.3205 27.2158 16.4053C27.2158 18.361 26.8477 21.3112 26.8477 21.3112" stroke="#C69459" stroke-width="0.8" stroke-linejoin="round"/>
<path d="M17.8223 15.2051C17.9239 14.5843 19.0831 13.7438 21.5773 14.458C24.0715 15.1722 24.5577 17.6993 23.8984 18.158C23.2392 18.6168 17.6492 16.2654 17.8223 15.2051Z" stroke="#C69459" stroke-width="0.8" stroke-linejoin="round"/>
<path d="M9.13443 23.3451C8.99433 22.1777 10.4419 21.4415 11.733 21.3261C13.024 21.2107 16.0703 21.8068 16.3862 23.9467C16.7928 26.6771 13.241 24.1582 12.1588 23.9C10.8265 23.5813 9.30748 24.779 9.13443 23.3451Z" stroke="#C69459" stroke-width="0.8" stroke-linejoin="round"/>
<path d="M3.98025 17.65C4.42779 17.65 4.79059 17.2872 4.79059 16.8396C4.79059 16.3921 4.42779 16.0293 3.98025 16.0293C3.53272 16.0293 3.16992 16.3921 3.16992 16.8396C3.16992 17.2872 3.53272 17.65 3.98025 17.65Z" stroke="#C69459" stroke-width="0.8" stroke-linejoin="round"/>
<path d="M17.6131 4.95416C18.0606 4.95416 18.4234 4.59136 18.4234 4.14383C18.4234 3.69629 18.0606 3.3335 17.6131 3.3335C17.1655 3.3335 16.8027 3.69629 16.8027 4.14383C16.8027 4.59136 17.1655 4.95416 17.6131 4.95416Z" stroke="#C69459" stroke-width="0.8" stroke-linejoin="round"/>
<path d="M28.2244 9.84869C28.6719 9.84869 29.0347 9.48589 29.0347 9.03836C29.0347 8.59082 28.6719 8.22803 28.2244 8.22803C27.7769 8.22803 27.4141 8.59082 27.4141 9.03836C27.4141 9.48589 27.7769 9.84869 28.2244 9.84869Z" stroke="#C69459" stroke-width="0.8" stroke-linejoin="round"/>
<path d="M36.3728 20.7291C36.8204 20.7291 37.1832 20.3663 37.1832 19.9187C37.1832 19.4712 36.8204 19.1084 36.3728 19.1084C35.9253 19.1084 35.5625 19.4712 35.5625 19.9187C35.5625 20.3663 35.9253 20.7291 36.3728 20.7291Z" stroke="#C69459" stroke-width="0.8" stroke-linejoin="round"/>
<path d="M32.6072 19.0264C33.0547 19.0264 33.4175 18.6636 33.4175 18.2161C33.4175 17.7686 33.0547 17.4058 32.6072 17.4058C32.1597 17.4058 31.7969 17.7686 31.7969 18.2161C31.7969 18.6636 32.1597 19.0264 32.6072 19.0264Z" stroke="#C69459" stroke-width="0.8" stroke-linejoin="round"/>
<path d="M12.3121 4.4126L12.8175 5.87669L14.2816 6.38212L12.8175 6.89029L12.3121 8.35439L11.8039 6.89029L10.3398 6.38212L11.8039 5.87669L12.3121 4.4126Z" stroke="#C69459" stroke-width="0.8" stroke-linejoin="round"/>
<path d="M31.3894 9.03906L31.8976 10.5032L33.3617 11.0086L31.8976 11.5168L31.3894 12.9809L30.884 11.5168L29.4199 11.0086L30.884 10.5032L31.3894 9.03906Z" stroke="#C69459" stroke-width="0.8" stroke-linejoin="round"/>
<path d="M4.79063 9.65234L5.2988 11.1164L6.76289 11.6219L5.2988 12.13L4.79063 13.5941L4.28245 12.13L2.81836 11.6219L4.28245 11.1164L4.79063 9.65234Z" stroke="#C69459" stroke-width="0.8" stroke-linejoin="round"/>
<path d="M23.1172 30.0029H36.0276V31.5879C36.0276 32.9335 35.493 34.2239 34.5416 35.1754C33.5901 36.1269 32.2996 36.6614 30.9541 36.6614H28.1907C26.8451 36.6614 25.5547 36.1269 24.6032 35.1754C23.6517 34.2239 23.1172 32.9335 23.1172 31.5879V30.0029Z" stroke="#C69459" stroke-width="0.8" stroke-linejoin="round"/>
<path d="M23.6836 28.146H35.0997V30.0029H23.6836V28.146Z" stroke="#C69459" stroke-width="0.8" stroke-linejoin="round"/>
<path d="M24.3712 28.1478C24.3712 28.1478 22.9978 26.5271 24.5278 25.2058C24.5278 25.2058 24.2531 23.0083 26.2611 23.1017C26.8709 23.1292 28.1839 23.4396 29.3925 22.7831C29.9117 22.5084 29.7661 21.6349 28.5905 21.4289C29.0327 20.6048 31.4555 20.451 32.774 22.7529C32.774 22.7529 34.5649 23.5055 34.2271 25.2058C34.2271 25.2058 36.5235 26.0299 35.1006 28.1478" stroke="#C69459" stroke-width="0.8" stroke-linejoin="round"/>
<path d="M26.8008 25.764C26.8008 25.764 30.792 26.4562 34.2009 25.3135" stroke="#C69459" stroke-width="0.8" stroke-linejoin="round"/>
<path d="M27.4141 23.1479C27.4141 23.1479 29.6802 23.9473 31.3888 23.3595" stroke="#C69459" stroke-width="0.8" stroke-linejoin="round"/>
</svg>
