<svg width="24" height="24" viewBox="0 0 24 24" fill="none" xmlns="http://www.w3.org/2000/svg">
<g clip-path="url(#clip0_108_3881)">
<path d="M2.57146 10.2852H4.28575C4.51308 10.2852 4.73109 10.3755 4.89184 10.5362C5.05259 10.697 5.14289 10.915 5.14289 11.1423V15.428C5.14289 15.6553 5.05259 15.8734 4.89184 16.0341C4.73109 16.1949 4.51308 16.2852 4.28575 16.2852H2.57146C2.11681 16.2852 1.68077 16.1045 1.35928 15.7831C1.03779 15.4616 0.857178 15.0255 0.857178 14.5709V11.9994C0.857178 11.5448 1.03779 11.1088 1.35928 10.7873C1.68077 10.4658 2.11681 10.2852 2.57146 10.2852V10.2852Z" stroke="white" stroke-width="1.5" stroke-linecap="round" stroke-linejoin="round"/>
<path d="M21.4287 16.2852H19.7144C19.487 16.2852 19.269 16.1949 19.1083 16.0341C18.9475 15.8734 18.8572 15.6553 18.8572 15.428V11.1423C18.8572 10.915 18.9475 10.697 19.1083 10.5362C19.269 10.3755 19.487 10.2852 19.7144 10.2852H21.4287C21.8833 10.2852 22.3194 10.4658 22.6408 10.7873C22.9623 11.1088 23.1429 11.5448 23.1429 11.9994V14.5709C23.1429 15.0255 22.9623 15.4616 22.6408 15.7831C22.3194 16.1045 21.8833 16.2852 21.4287 16.2852V16.2852Z" stroke="white" stroke-width="1.5" stroke-linecap="round" stroke-linejoin="round"/>
<path d="M16.2858 20.9994C17.1951 20.9994 18.0672 20.6382 18.7101 19.9952C19.3531 19.3523 19.7143 18.4802 19.7143 17.5709V16.2852" stroke="white" stroke-width="1.5" stroke-linecap="round" stroke-linejoin="round"/>
<path d="M14.1429 18.8574C14.7112 18.8574 15.2562 19.0832 15.6581 19.4851C16.06 19.8869 16.2857 20.432 16.2857 21.0003C16.2857 21.5686 16.06 22.1136 15.6581 22.5155C15.2562 22.9174 14.7112 23.1431 14.1429 23.1431H11.5714C11.0031 23.1431 10.4581 22.9174 10.0562 22.5155C9.65435 22.1136 9.42859 21.5686 9.42859 21.0003C9.42859 20.432 9.65435 19.8869 10.0562 19.4851C10.4581 19.0832 11.0031 18.8574 11.5714 18.8574H14.1429Z" stroke="white" stroke-width="1.5" stroke-linecap="round" stroke-linejoin="round"/>
<path d="M4.28577 10.286V8.57171C4.28577 6.52575 5.09852 4.56359 6.54523 3.11688C7.99194 1.67017 9.9541 0.857422 12.0001 0.857422C14.046 0.857422 16.0082 1.67017 17.4549 3.11688C18.9016 4.56359 19.7143 6.52575 19.7143 8.57171V10.286" stroke="white" stroke-width="1.5" stroke-linecap="round" stroke-linejoin="round"/>
<path d="M9.42859 6.85742V9.42885" stroke="white" stroke-width="1.5" stroke-linecap="round" stroke-linejoin="round"/>
<path d="M14.5714 6.85742V9.42885" stroke="white" stroke-width="1.5" stroke-linecap="round" stroke-linejoin="round"/>
<path d="M9.42859 12.8574C9.42859 15.1374 14.5714 15.1374 14.5714 12.8574" stroke="white" stroke-width="1.5" stroke-linecap="round" stroke-linejoin="round"/>
</g>
<defs>
<clipPath id="clip0_108_3881">
<rect width="24" height="24" fill="white"/>
</clipPath>
</defs>
</svg>
