<svg width="30" height="30" viewBox="0 0 30 30" fill="none" xmlns="http://www.w3.org/2000/svg">
<path d="M16.3501 22.4132C14.0943 23.1651 11.5376 23.1425 10.1841 21.6386C8.83054 20.1346 6.4222 20.0234 5.51985 20.6476C4.61749 21.2719 4.20958 21.3357 4.4465 20.1532C6.89604 13.7667 8.07239 11.7601 8.07239 11.7601C8.6618 11.5375 9.27855 11.3954 9.90594 11.3377C10.9175 11.2533 11.3893 10.8021 11.3687 10.2644C11.3481 9.72667 10.0522 9.51241 9.08806 10.1346C9.08806 10.1346 10.9566 7.3616 11.2162 7.16794C11.4758 6.97429 13.0436 5.34057 15.6868 5.89888C18.33 6.45718 20.4087 9.99037 20.4107 12.3039C20.4107 13.7708 20.1347 15.9834 20.1347 15.9834" stroke="white" stroke-width="0.8" stroke-linejoin="round"/>
<path d="M13.365 11.4041C13.4412 10.9385 14.3106 10.3081 16.1813 10.8437C18.0519 11.3794 18.4165 13.2747 17.9221 13.6188C17.4277 13.9628 13.2352 12.1993 13.365 11.4041Z" stroke="white" stroke-width="0.8" stroke-linejoin="round"/>
<path d="M6.8507 17.5088C6.74563 16.6332 7.83134 16.0811 8.79962 15.9946C9.7679 15.9081 12.0526 16.3551 12.2895 17.96C12.5944 20.0078 9.93065 18.1186 9.11894 17.925C8.11976 17.686 6.98049 18.5842 6.8507 17.5088Z" stroke="white" stroke-width="0.8" stroke-linejoin="round"/>
<path d="M2.98373 13.237C3.31938 13.237 3.59148 12.9649 3.59148 12.6292C3.59148 12.2936 3.31938 12.0215 2.98373 12.0215C2.64807 12.0215 2.37598 12.2936 2.37598 12.6292C2.37598 12.9649 2.64807 13.237 2.98373 13.237Z" stroke="white" stroke-width="0.8" stroke-linejoin="round"/>
<path d="M13.2083 3.7155C13.544 3.7155 13.8161 3.4434 13.8161 3.10775C13.8161 2.7721 13.544 2.5 13.2083 2.5C12.8727 2.5 12.6006 2.7721 12.6006 3.10775C12.6006 3.4434 12.8727 3.7155 13.2083 3.7155Z" stroke="white" stroke-width="0.8" stroke-linejoin="round"/>
<path d="M21.167 7.3864C21.5026 7.3864 21.7747 7.1143 21.7747 6.77865C21.7747 6.443 21.5026 6.1709 21.167 6.1709C20.8313 6.1709 20.5592 6.443 20.5592 6.77865C20.5592 7.1143 20.8313 7.3864 21.167 7.3864Z" stroke="white" stroke-width="0.8" stroke-linejoin="round"/>
<path d="M27.2794 15.5466C27.615 15.5466 27.8871 15.2745 27.8871 14.9388C27.8871 14.6032 27.615 14.3311 27.2794 14.3311C26.9437 14.3311 26.6716 14.6032 26.6716 14.9388C26.6716 15.2745 26.9437 15.5466 27.2794 15.5466Z" stroke="white" stroke-width="0.8" stroke-linejoin="round"/>
<path d="M24.4552 14.2692C24.7908 14.2692 25.0629 13.9971 25.0629 13.6615C25.0629 13.3258 24.7908 13.0537 24.4552 13.0537C24.1195 13.0537 23.8474 13.3258 23.8474 13.6615C23.8474 13.9971 24.1195 14.2692 24.4552 14.2692Z" stroke="white" stroke-width="0.8" stroke-linejoin="round"/>
<path d="M9.23237 3.30957L9.61145 4.40764L10.7095 4.78671L9.61145 5.16784L9.23237 6.26591L8.85124 5.16784L7.75317 4.78671L8.85124 4.40764L9.23237 3.30957Z" stroke="white" stroke-width="0.8" stroke-linejoin="round"/>
<path d="M23.5404 6.7793L23.9215 7.87737L25.0196 8.25644L23.9215 8.63757L23.5404 9.73564L23.1613 8.63757L22.0632 8.25644L23.1613 7.87737L23.5404 6.7793Z" stroke="white" stroke-width="0.8" stroke-linejoin="round"/>
<path d="M3.59163 7.23926L3.97276 8.33733L5.07083 8.7164L3.97276 9.09753L3.59163 10.1956L3.2105 9.09753L2.11243 8.7164L3.2105 8.33733L3.59163 7.23926Z" stroke="white" stroke-width="0.8" stroke-linejoin="round"/>
<path d="M17.3372 22.502H27.0199V23.6907C27.0199 24.6999 26.6191 25.6677 25.9055 26.3813C25.1919 27.0949 24.224 27.4958 23.2148 27.4958H21.1423C20.1331 27.4958 19.1653 27.0949 18.4517 26.3813C17.7381 25.6677 17.3372 24.6999 17.3372 23.6907V22.502Z" stroke="white" stroke-width="0.8" stroke-linejoin="round"/>
<path d="M17.7614 21.1094H26.3234V22.502H17.7614V21.1094Z" stroke="white" stroke-width="0.8" stroke-linejoin="round"/>
<path d="M18.2767 21.1101C18.2767 21.1101 17.2466 19.8946 18.3941 18.9037C18.3941 18.9037 18.1881 17.2555 19.6941 17.3256C20.1515 17.3462 21.1362 17.579 22.0427 17.0866C22.4321 16.8806 22.3229 16.2254 21.4411 16.0709C21.7728 15.4529 23.5899 15.3375 24.5788 17.0639C24.5788 17.0639 25.922 17.6284 25.6686 18.9037C25.6686 18.9037 27.3909 19.5217 26.3237 21.1101" stroke="white" stroke-width="0.8" stroke-linejoin="round"/>
<path d="M20.0997 19.3232C20.0997 19.3232 23.0932 19.8424 25.6498 18.9854" stroke="white" stroke-width="0.8" stroke-linejoin="round"/>
<path d="M20.5592 17.3604C20.5592 17.3604 22.2588 17.9599 23.5403 17.519" stroke="white" stroke-width="0.8" stroke-linejoin="round"/>
</svg>
