<svg width="30" height="30" viewBox="0 0 30 30" fill="none" xmlns="http://www.w3.org/2000/svg">
<path d="M16.35 22.4132C14.0941 23.1651 11.5375 23.1425 10.1839 21.6386C8.83041 20.1346 6.42208 20.0234 5.51972 20.6476C4.61737 21.2719 4.20946 21.3357 4.44638 20.1532C6.89592 13.7667 8.07227 11.7601 8.07227 11.7601C8.66168 11.5375 9.27843 11.3954 9.90582 11.3377C10.9174 11.2533 11.3891 10.8021 11.3685 10.2644C11.3479 9.72667 10.0521 9.51241 9.08793 10.1346C9.08793 10.1346 10.9565 7.3616 11.2161 7.16794C11.4757 6.97429 13.0435 5.34057 15.6867 5.89888C18.3298 6.45718 20.4086 9.99037 20.4106 12.3039C20.4106 13.7708 20.1346 15.9834 20.1346 15.9834" stroke="white" stroke-linejoin="round"/>
<path d="M13.365 11.4041C13.4412 10.9385 14.3106 10.3081 16.1813 10.8437C18.0519 11.3794 18.4165 13.2747 17.9221 13.6188C17.4277 13.9628 13.2352 12.1993 13.365 11.4041Z" stroke="white" stroke-linejoin="round"/>
<path d="M6.85058 17.5088C6.74551 16.6332 7.83122 16.0811 8.79949 15.9946C9.76777 15.9081 12.0525 16.3551 12.2894 17.96C12.5943 20.0078 9.93053 18.1186 9.11882 17.925C8.11964 17.686 6.98037 18.5842 6.85058 17.5088Z" stroke="white" stroke-linejoin="round"/>
<path d="M2.98348 13.237C3.31913 13.237 3.59123 12.9649 3.59123 12.6292C3.59123 12.2936 3.31913 12.0215 2.98348 12.0215C2.64783 12.0215 2.37573 12.2936 2.37573 12.6292C2.37573 12.9649 2.64783 13.237 2.98348 13.237Z" stroke="white" stroke-linejoin="round"/>
<path d="M13.2081 3.7155C13.5437 3.7155 13.8158 3.4434 13.8158 3.10775C13.8158 2.7721 13.5437 2.5 13.2081 2.5C12.8724 2.5 12.6003 2.7721 12.6003 3.10775C12.6003 3.4434 12.8724 3.7155 13.2081 3.7155Z" stroke="white" stroke-linejoin="round"/>
<path d="M21.1668 7.38542C21.5025 7.38542 21.7746 7.11332 21.7746 6.77767C21.7746 6.44202 21.5025 6.16992 21.1668 6.16992C20.8312 6.16992 20.5591 6.44202 20.5591 6.77767C20.5591 7.11332 20.8312 7.38542 21.1668 7.38542Z" stroke="white" stroke-linejoin="round"/>
<path d="M27.2791 15.5456C27.6148 15.5456 27.8869 15.2735 27.8869 14.9378C27.8869 14.6022 27.6148 14.3301 27.2791 14.3301C26.9435 14.3301 26.6714 14.6022 26.6714 14.9378C26.6714 15.2735 26.9435 15.5456 27.2791 15.5456Z" stroke="white" stroke-linejoin="round"/>
<path d="M24.4552 14.2702C24.7908 14.2702 25.0629 13.9981 25.0629 13.6624C25.0629 13.3268 24.7908 13.0547 24.4552 13.0547C24.1195 13.0547 23.8474 13.3268 23.8474 13.6624C23.8474 13.9981 24.1195 14.2702 24.4552 14.2702Z" stroke="white" stroke-linejoin="round"/>
<path d="M9.23213 3.30859L9.6112 4.40666L10.7093 4.78573L9.6112 5.16687L9.23213 6.26494L8.851 5.16687L7.75293 4.78573L8.851 4.40666L9.23213 3.30859Z" stroke="white" stroke-linejoin="round"/>
<path d="M23.5401 6.7793L23.9213 7.87737L25.0193 8.25644L23.9213 8.63757L23.5401 9.73564L23.1611 8.63757L22.063 8.25644L23.1611 7.87737L23.5401 6.7793Z" stroke="white" stroke-linejoin="round"/>
<path d="M3.59151 7.23828L3.97264 8.33635L5.07071 8.71542L3.97264 9.09655L3.59151 10.1946L3.21037 9.09655L2.1123 8.71542L3.21037 8.33635L3.59151 7.23828Z" stroke="white" stroke-linejoin="round"/>
<path d="M17.3369 22.502H27.0197V23.6907C27.0197 24.6999 26.6188 25.6677 25.9052 26.3813C25.1916 27.0949 24.2238 27.4958 23.2146 27.4958H21.142C20.1329 27.4958 19.165 27.0949 18.4514 26.3813C17.7378 25.6677 17.3369 24.6999 17.3369 23.6907V22.502Z" stroke="white" stroke-linejoin="round"/>
<path d="M17.7612 21.1094H26.3233V22.502H17.7612V21.1094Z" stroke="white" stroke-linejoin="round"/>
<path d="M18.2767 21.1101C18.2767 21.1101 17.2466 19.8946 18.3941 18.9037C18.3941 18.9037 18.1881 17.2555 19.6941 17.3256C20.1515 17.3462 21.1362 17.579 22.0427 17.0866C22.4321 16.8806 22.3229 16.2254 21.4411 16.0709C21.7728 15.4529 23.5899 15.3375 24.5788 17.0639C24.5788 17.0639 25.922 17.6284 25.6686 18.9037C25.6686 18.9037 27.3909 19.5217 26.3237 21.1101" stroke="white" stroke-linejoin="round"/>
<path d="M20.0996 19.3222C20.0996 19.3222 23.093 19.8414 25.6497 18.9844" stroke="white" stroke-linejoin="round"/>
<path d="M20.5591 17.3613C20.5591 17.3613 22.2587 17.9608 23.5401 17.52" stroke="white" stroke-linejoin="round"/>
</svg>
