<svg width="30" height="30" viewBox="0 0 30 30" fill="none" xmlns="http://www.w3.org/2000/svg">
<g clip-path="url(#clip0_257_1585)">
<path d="M15.4132 6.78271H13.4279C11.5282 6.78918 9.68756 7.44402 8.21063 8.63888C6.73369 9.83374 5.70894 11.497 5.30591 13.3535C5.47964 13.39 5.63565 13.4849 5.74794 13.6224C5.86024 13.7598 5.92205 13.9316 5.92309 14.1092V23.7659C6.6507 25.3953 7.83358 26.7797 9.32944 27.7526C10.8253 28.7256 12.5704 29.2456 14.3548 29.2502H14.4863C16.3414 29.2451 18.1523 28.6831 19.6845 27.6371C21.2167 26.5911 22.3995 25.1093 23.0799 23.3834L22.038 22.9751C21.9787 22.9527 21.9256 22.9166 21.8829 22.8697C21.8403 22.8229 21.8093 22.7666 21.7926 22.7054C21.7759 22.6443 21.7739 22.5801 21.7868 22.5181C21.7996 22.456 21.827 22.3979 21.8667 22.3485L22.5824 21.4614C22.6226 21.4124 22.6738 21.3735 22.7318 21.348C22.7898 21.3224 22.8531 21.3109 22.9164 21.3143C22.9797 21.3177 23.0413 21.336 23.0962 21.3677C23.1511 21.3994 23.1978 21.4435 23.2325 21.4966L23.5141 21.9355C23.6509 21.3024 23.7201 20.6565 23.7206 20.0088V15.0807C23.7113 12.8812 22.8328 10.7745 21.2766 9.22008C19.7204 7.66564 17.6128 6.78951 15.4132 6.78271Z" stroke="white" stroke-width="0.8" stroke-linejoin="round"/>
<path d="M15.2302 0.750006H13.611C11.7902 0.748558 9.99326 1.16302 8.3571 1.96178C6.72095 2.76054 5.28887 3.92249 4.17013 5.35896V9.56427H5.28717V11.4628H1.69669C1.65349 11.8838 1.63156 12.3067 1.63098 12.73V13.3354H1.75301V11.7115H4.17013V13.3401H5.14871C5.20157 13.3397 5.25431 13.3452 5.30594 13.3566C5.70897 11.5001 6.73372 9.83679 8.21066 8.64192C9.68759 7.44706 11.5282 6.79223 13.4279 6.78576H15.4132C17.6148 6.79257 19.7242 7.67032 21.2807 9.22729C22.8373 10.7843 23.7144 12.8939 23.7206 15.0955V20.3732C24.1797 20.3732 24.6342 20.2827 25.0582 20.1067C25.4822 19.9308 25.8673 19.6729 26.1914 19.3479C26.5156 19.0228 26.7724 18.637 26.9473 18.2126C27.1221 17.7881 27.2114 17.3333 27.2102 16.8743V12.73C27.2117 11.1563 26.9029 9.5978 26.3014 8.14362C25.6999 6.68945 24.8175 5.36817 23.7048 4.25542C22.592 3.14267 21.2707 2.26029 19.8166 1.65878C18.3624 1.05728 16.8039 0.748462 15.2302 0.750006Z" stroke="white" stroke-width="0.8" stroke-linejoin="round"/>
<path d="M1.63098 12.7292V13.3347H1.75301V11.7107H3.38163C3.40745 11.631 3.42857 11.5488 3.45438 11.4761H1.69669C1.65396 11.8924 1.63203 12.3107 1.63098 12.7292Z" stroke="white" stroke-width="0.8" stroke-linejoin="round"/>
<path d="M15.2302 0.750006H13.611C11.7903 0.748558 9.99329 1.16302 8.35714 1.96178C6.72099 2.76054 5.2889 3.92249 4.17017 5.35896V9.56427H4.22414C6.0405 5.91043 9.44793 3.37363 13.611 3.37363H15.2537C21.9559 3.37363 26.7198 9.97495 25.9876 17.2357L25.7341 19.7326C26.1923 19.4104 26.5658 18.9822 26.8228 18.4845C27.0798 17.9868 27.2127 17.4344 27.2102 16.8743V12.73C27.2118 11.1563 26.9029 9.5978 26.3014 8.14362C25.6999 6.68945 24.8176 5.36817 23.7048 4.25542C22.5921 3.14267 21.2708 2.26029 19.8166 1.65878C18.3624 1.05728 16.8039 0.748462 15.2302 0.750006Z" stroke="white" stroke-width="0.8" stroke-linejoin="round"/>
<path d="M6.82422 14.2309C6.82422 14.2309 9.40561 11.903 12.569 14.2309" stroke="white" stroke-width="0.8" stroke-linejoin="round"/>
<path d="M22.0615 14.2321C22.0615 14.2321 18.8043 12.0356 16.1455 14.2321C15.4414 14.8164 14.5849 15.8372 15.0261 18.36C15.1645 19.1649 15.77 21.8519 15.77 21.8519C15.77 21.8519 15.0402 22.7249 13.9419 22.7249" stroke="white" stroke-width="0.8" stroke-linejoin="round"/>
<path d="M7.35461 16.2065C7.35461 16.2065 9.40564 18.0487 11.8979 16.2065" stroke="white" stroke-width="0.8" stroke-linejoin="round"/>
<path d="M21.5006 16.2065C21.5006 16.2065 18.9192 17.9431 16.8236 16.2065" stroke="white" stroke-width="0.8" stroke-linejoin="round"/>
<path d="M12.3931 24.7563C12.3931 24.7563 12.5315 25.8523 14.5849 25.8523" stroke="white" stroke-width="0.8" stroke-linejoin="round"/>
<path d="M16.4903 24.7563C16.4903 24.7563 16.3518 25.8523 14.2985 25.8523" stroke="white" stroke-width="0.8" stroke-linejoin="round"/>
<path d="M6.82416 16.7103C6.82416 16.7103 7.99751 17.94 10.2809 18.0315C11.153 18.0536 12.0201 17.8938 12.8271 17.5621C12.8271 18.8904 12.9913 20.3219 11.1257 20.7255C10.2624 20.8767 9.37377 20.7701 8.57074 20.4191C7.76772 20.0681 7.08594 19.4882 6.6106 18.7519C6.39236 18.1911 6.26564 16.3395 6.82416 16.7103Z" stroke="white" stroke-width="0.8" stroke-linejoin="round"/>
<path d="M30.0037 27.7964L29.4626 28.4663L23.0963 23.3243L23.6374 22.6544L30.0037 27.7964Z" stroke="white" stroke-width="0.8" stroke-linejoin="round"/>
<path d="M21.8644 22.3551L22.5801 21.468C22.6203 21.419 22.6715 21.3801 22.7295 21.3546C22.7875 21.329 22.8508 21.3175 22.9141 21.3209C22.9774 21.3243 23.039 21.3426 23.0939 21.3743C23.1488 21.406 23.1955 21.4501 23.2302 21.5032L23.8708 22.4982L23.141 23.3994L22.038 22.9746C21.9797 22.9522 21.9274 22.9164 21.8854 22.8702C21.8433 22.824 21.8126 22.7686 21.7958 22.7084C21.7789 22.6482 21.7763 22.585 21.7882 22.5236C21.8001 22.4623 21.8262 22.4046 21.8644 22.3551Z" stroke="white" stroke-width="0.8" stroke-linejoin="round"/>
<path d="M23.1761 21.4328L21.5803 20.1421" stroke="white" stroke-width="0.8" stroke-linejoin="round"/>
<path d="M22.43 21.6607L21.1721 20.6445" stroke="white" stroke-width="0.8" stroke-linejoin="round"/>
<path d="M22.0216 22.1636L20.7661 21.1475" stroke="white" stroke-width="0.8" stroke-linejoin="round"/>
<path d="M21.9559 22.943L20.3601 21.6523" stroke="white" stroke-width="0.8" stroke-linejoin="round"/>
<path d="M5.15104 13.335H0.772069C0.345667 13.335 0 13.6806 0 14.107V27.8353C0 28.2617 0.345667 28.6074 0.772069 28.6074H5.15104C5.57744 28.6074 5.92311 28.2617 5.92311 27.8353V14.107C5.92311 13.6806 5.57744 13.335 5.15104 13.335Z" stroke="white" stroke-width="0.8" stroke-linejoin="round"/>
<path d="M4.17011 3.96621C4.17011 3.79724 3.89086 3.66113 3.55058 3.66113H2.37722C2.0346 3.66113 1.75769 3.79724 1.75769 3.96621V9.56312H4.17011V3.96621Z" stroke="white" stroke-width="0.8" stroke-linejoin="round"/>
<path d="M1.75305 11.7061H4.17017V13.3347H1.75305V11.7061Z" stroke="white" stroke-width="0.8" stroke-linejoin="round"/>
<path d="M0.633545 9.56494H5.28708V11.4634H0.633545V9.56494Z" stroke="white" stroke-width="0.8" stroke-linejoin="round"/>
<path d="M2.328 13.335H3.59523V18.2021H2.328V13.335Z" stroke="white" stroke-width="0.8" stroke-linejoin="round"/>
<path d="M2.328 22.4668V23.5791C2.328 24.2433 2.61196 24.4451 2.96162 24.4451C3.31128 24.4451 3.59288 24.2433 3.59288 23.5791V22.4668H2.328Z" stroke="white" stroke-width="0.8" stroke-linejoin="round"/>
<path d="M0 18.2017H5.92311V22.4656H0V18.2017Z" stroke="white" stroke-width="0.8" stroke-linejoin="round"/>
<path d="M1.60289 19.3736C1.60428 19.452 1.58223 19.5291 1.53956 19.595C1.49689 19.6608 1.43554 19.7124 1.36336 19.7432C1.29117 19.774 1.21145 19.7826 1.13438 19.7678C1.05732 19.753 0.986424 19.7155 0.930769 19.6602C0.875115 19.6049 0.837234 19.5342 0.821977 19.4572C0.80672 19.3803 0.81478 19.3005 0.845125 19.2281C0.875471 19.1558 0.926721 19.0941 0.992316 19.051C1.05791 19.0079 1.13487 18.9854 1.21333 18.9864C1.31587 18.9876 1.4139 19.0287 1.48663 19.101C1.55936 19.1732 1.60106 19.271 1.60289 19.3736ZM2.96164 18.9864C2.88366 18.9864 2.80744 19.0095 2.7426 19.0528C2.67777 19.0961 2.62724 19.1577 2.5974 19.2297C2.56756 19.3018 2.55975 19.381 2.57496 19.4575C2.59017 19.534 2.62772 19.6042 2.68286 19.6594C2.738 19.7145 2.80825 19.7521 2.88472 19.7673C2.9612 19.7825 3.04047 19.7747 3.11251 19.7448C3.18455 19.715 3.24612 19.6645 3.28944 19.5996C3.33276 19.5348 3.35588 19.4586 3.35588 19.3806C3.35527 19.2762 3.31353 19.1763 3.23973 19.1025C3.16593 19.0287 3.06601 18.987 2.96164 18.9864ZM4.71229 18.9864C4.63441 18.9868 4.55842 19.0103 4.4939 19.0539C4.42937 19.0975 4.37921 19.1593 4.34973 19.2314C4.32025 19.3034 4.31277 19.3826 4.32825 19.4589C4.34372 19.5353 4.38146 19.6053 4.43669 19.6602C4.49191 19.7151 4.56217 19.7524 4.63858 19.7674C4.71499 19.7825 4.79414 19.7745 4.86604 19.7446C4.93794 19.7147 4.99938 19.6642 5.0426 19.5994C5.08582 19.5346 5.10888 19.4585 5.10888 19.3806C5.10888 19.3286 5.09861 19.2772 5.07865 19.2292C5.05869 19.1812 5.02944 19.1376 4.99258 19.101C4.95572 19.0644 4.91198 19.0354 4.86388 19.0157C4.81577 18.996 4.76426 18.986 4.71229 18.9864Z" fill="white"/>
<path d="M22.0615 16.7073C22.0615 16.7073 20.8882 17.9393 18.6025 18.0308C17.7311 18.0533 16.8646 17.8934 16.0586 17.5615C16.0586 18.8897 15.8944 20.3212 17.7576 20.7249C17.9036 20.7493 18.051 20.7649 18.1988 20.7718C18.3186 20.7745 18.4338 20.8184 18.525 20.8962C18.6202 20.974 18.6924 21.0763 18.7337 21.1921C18.7751 21.3079 18.784 21.4327 18.7597 21.5532C18.6377 22.1704 17.9454 23.3086 18.9122 23.3086C19.8204 23.3086 19.5998 22.1798 19.4778 21.5626C19.4355 21.3538 19.4003 21.1965 19.3886 21.0698C19.3774 20.9777 19.3997 20.8846 19.4514 20.8075C19.5031 20.7304 19.5807 20.6744 19.6702 20.6498C20.7483 20.366 21.681 19.6887 22.2845 18.7513C22.491 18.1904 22.6177 16.3388 22.0615 16.7073Z" stroke="white" stroke-width="0.8" stroke-linejoin="round"/>
</g>
<defs>
<clipPath id="clip0_257_1585">
<rect width="30" height="30" fill="white"/>
</clipPath>
</defs>
</svg>
