<svg width="50" height="50" viewBox="0 0 50 50" fill="none" xmlns="http://www.w3.org/2000/svg">
<g clip-path="url(#clip0_190_5240)">
<path d="M11.0811 30.2129L9.34063 36.7102L2.97939 36.8447C1.07832 33.3187 0 29.2844 0 24.9973C0 20.8517 1.0082 16.9423 2.79531 13.5H2.79668L8.45996 14.5383L10.9408 20.1676C10.4216 21.6813 10.1386 23.3063 10.1386 24.9973C10.1388 26.8324 10.4712 28.5907 11.0811 30.2129Z" fill="#FBBB00"/>
<path d="M49.5634 20.332C49.8505 21.8443 50.0002 23.4062 50.0002 25.0023C50.0002 26.7922 49.812 28.5381 49.4535 30.2222C48.2365 35.9529 45.0565 40.957 40.6514 44.4982L40.65 44.4969L33.5168 44.1329L32.5072 37.8307C35.4303 36.1164 37.7146 33.4337 38.918 30.2222H25.5498V20.332H39.113H49.5634Z" fill="#518EF8"/>
<path d="M40.6498 44.4937L40.6512 44.495C36.3669 47.9387 30.9245 49.9991 25.0001 49.9991C15.4795 49.9991 7.20205 44.6777 2.97949 36.8467L11.0812 30.2148C13.1924 35.8494 18.6278 39.8604 25.0001 39.8604C27.7391 39.8604 30.3051 39.12 32.5069 37.8274L40.6498 44.4937Z" fill="#28B446"/>
<path d="M40.957 5.75547L32.8581 12.3859C30.5793 10.9615 27.8855 10.1387 24.9996 10.1387C18.4831 10.1387 12.946 14.3337 10.9405 20.1703L2.79629 13.5027H2.79492C6.95566 5.48076 15.3375 0 24.9996 0C31.0655 0 36.6273 2.16074 40.957 5.75547Z" fill="#F14336"/>
</g>
<defs>
<clipPath id="clip0_190_5240">
<rect width="50" height="50" fill="white"/>
</clipPath>
</defs>
</svg>
