<svg width="40" height="40" viewBox="0 0 40 40" fill="none" xmlns="http://www.w3.org/2000/svg">
<g clip-path="url(#clip0_257_1527)">
<path d="M12.8621 16.5728C13.3876 16.1671 14.0258 15.9339 14.6891 15.9053V12.6161C16.7756 11.108 20.635 10.0945 25.0512 10.0945C29.4674 10.0945 33.3295 11.108 35.416 12.6161V15.8972C36.0715 15.8958 36.7118 16.0948 37.2511 16.4674C41.6916 13.6567 37.6349 10.7324 37.6322 10.0161C37.6322 5.85672 33.1403 1.34865 27.5431 1.04324C25.8836 0.985586 24.2233 0.985586 22.562 1.04324C16.9621 1.34865 12.4648 5.85672 12.4702 10.0161C12.4675 10.7378 8.62159 13.8945 12.8621 16.5728Z" stroke="#C69459" stroke-linejoin="round"/>
<path d="M35.4132 15.8969V12.6158C33.3267 11.1077 29.4673 10.0942 25.0484 10.0942C20.6295 10.0942 16.7728 11.1077 14.6864 12.6158V15.905C13.8836 15.9821 13.1384 16.3556 12.5961 16.9525C12.0538 17.5494 11.7533 18.3269 11.7533 19.1334C11.7533 19.9398 12.0538 20.7173 12.5961 21.3142C13.1384 21.9111 13.8836 22.2846 14.6864 22.3617V23.8698C14.6868 24.8402 14.9165 25.7968 15.3566 26.6617H18.5133C18.5609 26.6617 18.608 26.671 18.6519 26.6892C18.6959 26.7074 18.7358 26.7341 18.7694 26.7677C18.8031 26.8014 18.8297 26.8413 18.8479 26.8852C18.8661 26.9292 18.8755 26.9763 18.8755 27.0238V30.267H21.6593C21.7067 30.2667 21.7537 30.2757 21.7977 30.2936C21.8416 30.3115 21.8815 30.338 21.9152 30.3714C21.9489 30.4048 21.9756 30.4445 21.9938 30.4883C22.012 30.5321 22.0214 30.5791 22.0214 30.6265V32.0211C22.0218 32.0687 22.0127 32.116 21.9946 32.1601C21.9765 32.2042 21.9499 32.2443 21.9162 32.278C21.8825 32.3117 21.8424 32.3383 21.7983 32.3564C21.7542 32.3745 21.7069 32.3836 21.6593 32.3832H21.5728C22.4382 32.8281 23.397 33.0606 24.3701 33.0616H25.4079C26.8199 33.0621 28.1889 32.5752 29.2835 31.6832L33.1376 28.5481C33.8475 27.9727 34.4201 27.2461 34.8138 26.4214C35.2074 25.5966 35.4122 24.6945 35.4132 23.7806V22.3752C36.2734 22.3752 37.0983 22.0335 37.7065 21.4253C38.3147 20.8171 38.6564 19.9922 38.6564 19.132C38.6564 18.2718 38.3147 17.4469 37.7065 16.8387C37.0983 16.2305 36.2734 15.8888 35.4132 15.8888V15.8969Z" stroke="#C69459" stroke-linejoin="round"/>
<path d="M15.6998 8.61389C15.6998 8.61389 24.7187 4.65446 34.2862 8.78686" stroke="#C69459" stroke-linejoin="round"/>
<path d="M25.0485 6.84611V4.12451" stroke="#C69459" stroke-linejoin="round"/>
<path d="M27.9105 7.10887C27.9105 7.10887 29.5754 6.66833 29.6538 4.91699" stroke="#C69459" stroke-linejoin="round"/>
<path d="M31.9025 7.73376C31.9025 7.73376 33.4808 7.84457 34.0268 6.48242" stroke="#C69459" stroke-linejoin="round"/>
<path d="M22.1755 6.84666C22.1755 6.84666 20.5106 6.40612 20.4349 4.65479" stroke="#C69459" stroke-linejoin="round"/>
<path d="M18.3999 7.7335C18.3999 7.7335 16.8216 7.8362 16.2783 6.48486" stroke="#C69459" stroke-linejoin="round"/>
<path d="M4.06214 35.444H4.7324C4.82845 35.444 4.92057 35.4058 4.98849 35.3379C5.0564 35.27 5.09456 35.1779 5.09456 35.0818V33.0278L18.5296 33.0143C18.577 33.0143 18.624 33.0049 18.6678 32.9867C18.7116 32.9684 18.7513 32.9417 18.7847 32.908C18.8181 32.8744 18.8446 32.8344 18.8625 32.7905C18.8804 32.7466 18.8894 32.6996 18.889 32.6521V32.3819H21.6755C21.7229 32.3819 21.7699 32.3725 21.8137 32.3542C21.8575 32.336 21.8972 32.3093 21.9306 32.2756C21.9641 32.2419 21.9905 32.202 22.0084 32.1581C22.0263 32.1142 22.0353 32.0671 22.035 32.0197V30.6251C22.035 30.5291 21.9968 30.4369 21.9289 30.369C21.861 30.3011 21.7689 30.2629 21.6728 30.2629H18.889V27.0197C18.889 26.9237 18.8509 26.8316 18.783 26.7636C18.715 26.6957 18.6229 26.6576 18.5269 26.6576L5.09186 26.6711V24.6198C5.09186 24.5723 5.08247 24.5254 5.06424 24.4816C5.04601 24.4378 5.01929 24.398 4.98562 24.3646C4.95196 24.3312 4.91201 24.3048 4.86809 24.2869C4.82416 24.269 4.77713 24.2599 4.7297 24.2603H4.04052C3.9925 24.2596 3.94483 24.2684 3.90026 24.2863C3.8557 24.3042 3.81513 24.3307 3.78093 24.3644C3.74672 24.3981 3.71956 24.4383 3.70103 24.4826C3.68249 24.5269 3.67295 24.5744 3.67295 24.6225V28.6062L1.71351 28.6197V27.3873C1.71355 27.2931 1.67688 27.2026 1.61128 27.135C1.54569 27.0673 1.45632 27.0279 1.36216 27.0251C1.26611 27.0251 1.17399 27.0633 1.10607 27.1312C1.03816 27.1991 1 27.2912 1 27.3873V32.3494C1.0014 32.397 1.01216 32.4438 1.03166 32.4872C1.05117 32.5306 1.07903 32.5698 1.11367 32.6024C1.14831 32.635 1.18904 32.6605 1.23353 32.6774C1.27802 32.6943 1.32541 32.7022 1.37297 32.7008C1.46905 32.6994 1.56075 32.6604 1.62845 32.5922C1.69614 32.524 1.73443 32.432 1.73513 32.3359V31.1035H3.69457V35.0872C3.69492 35.1349 3.70474 35.182 3.72347 35.2259C3.7422 35.2697 3.76946 35.3094 3.80367 35.3426C3.83787 35.3758 3.87834 35.4018 3.92271 35.4192C3.96709 35.4366 4.01448 35.4451 4.06214 35.444Z" stroke="#C69459" stroke-linejoin="round"/>
<path d="M22.0322 31.3814L24.6403 31.376" stroke="#C69459" stroke-linejoin="round"/>
<path d="M16.5864 28.0425C16.6408 28.0421 16.6947 28.0526 16.7451 28.0732C16.7954 28.0939 16.8411 28.1243 16.8796 28.1628C16.9181 28.2013 16.9485 28.247 16.9692 28.2973C16.9898 28.3477 17.0003 28.4016 16.9999 28.456V29.6154C17.0003 29.67 16.9898 29.724 16.9692 29.7745C16.9486 29.825 16.9182 29.8709 16.8798 29.9096C16.8413 29.9483 16.7956 29.979 16.7453 29.9999C16.6949 30.0209 16.6409 30.0317 16.5864 30.0317C16.532 30.032 16.4781 30.0216 16.4277 30.0009C16.3774 29.9803 16.3317 29.9498 16.2932 29.9113C16.2547 29.8729 16.2243 29.8271 16.2036 29.7768C16.183 29.7265 16.1725 29.6726 16.1729 29.6182V28.8722H12.1729V29.6182C12.1729 29.7281 12.1294 29.8335 12.052 29.9115C11.9745 29.9895 11.8693 30.0336 11.7594 30.0344C11.65 30.0337 11.5452 29.9899 11.4678 29.9125C11.3904 29.8351 11.3466 29.7303 11.3459 29.6209V28.8749H7.34864V29.6209C7.34864 29.7305 7.30507 29.8357 7.22752 29.9133C7.14997 29.9908 7.0448 30.0344 6.93513 30.0344C6.82521 30.0344 6.71975 29.9909 6.64177 29.9134C6.56379 29.8359 6.51963 29.7308 6.51891 29.6209C6.51891 29.6209 6.51891 28.5074 6.51891 28.4614C6.52288 28.357 6.56593 28.258 6.63952 28.1839C6.71312 28.1098 6.81188 28.0661 6.91621 28.0614L16.5756 28.0425M16.5756 27.502L6.91621 27.5209C6.79069 27.5209 6.66641 27.5456 6.55048 27.5938C6.43456 27.6419 6.32926 27.7124 6.24064 27.8013C6.15201 27.8901 6.08179 27.9956 6.03401 28.1117C5.98622 28.2278 5.96181 28.3521 5.96216 28.4776V29.6398C5.96359 29.8926 6.06502 30.1345 6.24429 30.3128C6.42356 30.4911 6.6661 30.5911 6.91891 30.5911C7.04442 30.5911 7.16871 30.5664 7.28463 30.5182C7.40056 30.4701 7.50585 30.3996 7.59448 30.3107C7.68311 30.2218 7.75333 30.1164 7.80111 30.0003C7.8489 29.8842 7.87331 29.7599 7.87296 29.6344V29.429H10.7919V29.6344C10.7849 29.7641 10.8045 29.8939 10.8494 30.0158C10.8943 30.1377 10.9636 30.2492 11.053 30.3435C11.1424 30.4378 11.25 30.5129 11.3694 30.5642C11.4888 30.6155 11.6173 30.6419 11.7472 30.6419C11.8772 30.6419 12.0057 30.6155 12.1251 30.5642C12.2445 30.5129 12.3521 30.4378 12.4415 30.3435C12.5309 30.2492 12.6002 30.1377 12.6451 30.0158C12.69 29.8939 12.7095 29.7641 12.7026 29.6344V29.429H15.6188V29.6371C15.6188 29.8901 15.7194 30.1328 15.8983 30.3117C16.0772 30.4906 16.3199 30.5911 16.5729 30.5911C16.8259 30.5911 17.0686 30.4906 17.2475 30.3117C17.4264 30.1328 17.5269 29.8901 17.5269 29.6371C17.5269 29.6371 17.5269 28.5236 17.5269 28.4776C17.5262 28.2248 17.4255 27.9826 17.2467 27.8038C17.0679 27.625 16.8257 27.5243 16.5729 27.5236L16.5756 27.502Z" fill="#C69459"/>
<path d="M32.9647 31.2334L33.7052 33.3712L35.843 34.1118L33.7052 34.8523L32.9647 36.9901L32.2241 34.8523L30.0863 34.1118L32.2241 33.3712L32.9647 31.2334Z" stroke="#C69459" stroke-linejoin="round"/>
<path d="M28.7836 35.2163L29.2701 36.6217L30.6755 37.1082L29.2701 37.5947L28.7836 39.0001L28.2944 37.5947L26.889 37.1082L28.2944 36.6217L28.7836 35.2163Z" stroke="#C69459" stroke-linejoin="round"/>
<path d="M7.89725 14.9893L8.38643 16.3947L9.79183 16.8811L8.38643 17.3703L7.89725 18.7757L7.41077 17.3703L6.00537 16.8811L7.41077 16.3947L7.89725 14.9893Z" stroke="#C69459" stroke-linejoin="round"/>
</g>
<defs>
<clipPath id="clip0_257_1527">
<rect width="40" height="40" fill="white"/>
</clipPath>
</defs>
</svg>
