<svg width="40" height="40" viewBox="0 0 40 40" fill="none" xmlns="http://www.w3.org/2000/svg">
<path d="M21.7997 29.8842C18.7919 30.8869 15.383 30.8567 13.5783 28.8514C11.7736 26.8462 8.56244 26.6979 7.35931 27.5302C6.15617 28.3625 5.61228 28.4476 5.92818 26.8709C9.19423 18.3555 10.7627 15.6801 10.7627 15.6801C11.5486 15.3833 12.3709 15.1939 13.2074 15.117C14.5562 15.0043 15.1852 14.4028 15.1577 13.6858C15.1303 12.9689 13.4025 12.6832 12.1169 13.5128C12.1169 13.5128 14.6084 9.81546 14.9545 9.55726C15.3006 9.29905 17.391 7.12076 20.9152 7.86517C24.4395 8.60958 27.2111 13.3205 27.2138 16.4053C27.2138 18.361 26.8458 21.3112 26.8458 21.3112" stroke="#C69459" stroke-width="0.8" stroke-linejoin="round"/>
<path d="M17.8203 15.2051C17.922 14.5843 19.0812 13.7438 21.5753 14.458C24.0695 15.1722 24.5557 17.6993 23.8965 18.158C23.2372 18.6168 17.6473 16.2654 17.8203 15.2051Z" stroke="#C69459" stroke-width="0.8" stroke-linejoin="round"/>
<path d="M9.13443 23.3451C8.99433 22.1777 10.4419 21.4415 11.733 21.3261C13.024 21.2107 16.0703 21.8068 16.3862 23.9467C16.7928 26.6771 13.241 24.1582 12.1588 23.9C10.8265 23.5813 9.30748 24.779 9.13443 23.3451Z" stroke="#C69459" stroke-width="0.8" stroke-linejoin="round"/>
<path d="M3.9783 17.65C4.42584 17.65 4.78863 17.2872 4.78863 16.8396C4.78863 16.3921 4.42584 16.0293 3.9783 16.0293C3.53077 16.0293 3.16797 16.3921 3.16797 16.8396C3.16797 17.2872 3.53077 17.65 3.9783 17.65Z" stroke="#C69459" stroke-width="0.8" stroke-linejoin="round"/>
<path d="M17.6111 4.95416C18.0586 4.95416 18.4214 4.59136 18.4214 4.14383C18.4214 3.69629 18.0586 3.3335 17.6111 3.3335C17.1636 3.3335 16.8008 3.69629 16.8008 4.14383C16.8008 4.59136 17.1636 4.95416 17.6111 4.95416Z" stroke="#C69459" stroke-width="0.8" stroke-linejoin="round"/>
<path d="M28.2224 9.84869C28.67 9.84869 29.0328 9.48589 29.0328 9.03836C29.0328 8.59082 28.67 8.22803 28.2224 8.22803C27.7749 8.22803 27.4121 8.59082 27.4121 9.03836C27.4121 9.48589 27.7749 9.84869 28.2224 9.84869Z" stroke="#C69459" stroke-width="0.8" stroke-linejoin="round"/>
<path d="M36.3719 20.7286C36.8194 20.7286 37.1822 20.3658 37.1822 19.9182C37.1822 19.4707 36.8194 19.1079 36.3719 19.1079C35.9243 19.1079 35.5615 19.4707 35.5615 19.9182C35.5615 20.3658 35.9243 20.7286 36.3719 20.7286Z" stroke="#C69459" stroke-width="0.8" stroke-linejoin="round"/>
<path d="M32.6072 19.0264C33.0547 19.0264 33.4175 18.6636 33.4175 18.2161C33.4175 17.7686 33.0547 17.4058 32.6072 17.4058C32.1597 17.4058 31.7969 17.7686 31.7969 18.2161C31.7969 18.6636 32.1597 19.0264 32.6072 19.0264Z" stroke="#C69459" stroke-width="0.8" stroke-linejoin="round"/>
<path d="M12.3092 4.4126L12.8146 5.87669L14.2787 6.38212L12.8146 6.89029L12.3092 8.35439L11.801 6.89029L10.3369 6.38212L11.801 5.87669L12.3092 4.4126Z" stroke="#C69459" stroke-width="0.8" stroke-linejoin="round"/>
<path d="M31.3865 9.03906L31.8947 10.5032L33.3588 11.0086L31.8947 11.5168L31.3865 12.9809L30.8811 11.5168L29.417 11.0086L30.8811 10.5032L31.3865 9.03906Z" stroke="#C69459" stroke-width="0.8" stroke-linejoin="round"/>
<path d="M4.78867 9.65234L5.29685 11.1164L6.76094 11.6219L5.29685 12.13L4.78867 13.5941L4.2805 12.13L2.81641 11.6219L4.2805 11.1164L4.78867 9.65234Z" stroke="#C69459" stroke-width="0.8" stroke-linejoin="round"/>
<path d="M23.1162 30.0029H36.0266V31.5879C36.0266 32.9335 35.4921 34.2239 34.5406 35.1754C33.5891 36.1269 32.2987 36.6614 30.9531 36.6614H28.1897C26.8441 36.6614 25.5537 36.1269 24.6022 35.1754C23.6507 34.2239 23.1162 32.9335 23.1162 31.5879V30.0029Z" stroke="#C69459" stroke-width="0.8" stroke-linejoin="round"/>
<path d="M23.6816 28.146H35.0977V30.0029H23.6816V28.146Z" stroke="#C69459" stroke-width="0.8" stroke-linejoin="round"/>
<path d="M24.3693 28.1473C24.3693 28.1473 22.9958 26.5266 24.5259 25.2054C24.5259 25.2054 24.2512 23.0078 26.2591 23.1012C26.869 23.1287 28.182 23.4391 29.3906 22.7826C29.9098 22.5079 29.7642 21.6344 28.5885 21.4284C29.0308 20.6043 31.4535 20.4505 32.772 22.7524C32.772 22.7524 34.563 23.505 34.2251 25.2054C34.2251 25.2054 36.5215 26.0294 35.0986 28.1473" stroke="#C69459" stroke-width="0.8" stroke-linejoin="round"/>
<path d="M26.7998 25.764C26.7998 25.764 30.791 26.4562 34.1999 25.3135" stroke="#C69459" stroke-width="0.8" stroke-linejoin="round"/>
<path d="M27.4121 23.1475C27.4121 23.1475 29.6783 23.9468 31.3869 23.359" stroke="#C69459" stroke-width="0.8" stroke-linejoin="round"/>
</svg>
