<svg width="28" height="28" viewBox="0 0 28 28" fill="none" xmlns="http://www.w3.org/2000/svg">
<path d="M14.3131 7.07812H12.6412C11.0414 7.08357 9.49133 7.63503 8.24756 8.64127C7.00378 9.6475 6.1408 11.0482 5.80139 12.6116C5.9477 12.6423 6.07908 12.7222 6.17364 12.838C6.26821 12.9538 6.32027 13.0985 6.32115 13.248V21.3803C6.93389 22.7524 7.93004 23.9183 9.18975 24.7376C10.4495 25.557 11.9191 25.9949 13.4218 25.9988H13.5325C15.0948 25.9944 16.6198 25.5212 17.9101 24.6404C19.2004 23.7595 20.1965 22.5116 20.7695 21.0581L19.8921 20.7143C19.8421 20.6954 19.7974 20.665 19.7615 20.6256C19.7255 20.5861 19.6995 20.5387 19.6854 20.4872C19.6713 20.4357 19.6696 20.3817 19.6805 20.3294C19.6913 20.2772 19.7144 20.2282 19.7478 20.1866L20.3506 19.4396C20.3844 19.3983 20.4275 19.3656 20.4764 19.344C20.5252 19.3225 20.5785 19.3128 20.6318 19.3157C20.6851 19.3186 20.737 19.334 20.7832 19.3607C20.8295 19.3873 20.8688 19.4245 20.898 19.4692L21.1351 19.8388C21.2503 19.3056 21.3086 18.7617 21.309 18.2163V14.0661C21.3012 12.2138 20.5614 10.4398 19.2509 9.13071C17.9403 7.82167 16.1654 7.08385 14.3131 7.07812Z" stroke="white" stroke-width="0.8" stroke-linejoin="round"/>
<path d="M14.1588 2H12.7952C11.2619 1.99879 9.74858 2.34782 8.37072 3.02049C6.99286 3.69315 5.78685 4.67166 4.84472 5.88136V9.4228H5.78542V11.0216H2.76176C2.72538 11.3762 2.70691 11.7323 2.70642 12.0888V12.5986H2.80919V11.2311H4.84472V12.6026H5.66882C5.71334 12.6022 5.75775 12.6069 5.80123 12.6164C6.14064 11.053 7.00362 9.6523 8.2474 8.64606C9.49117 7.63983 11.0412 7.08837 12.641 7.08292H14.3129C16.167 7.08866 17.9434 7.82784 19.2542 9.13902C20.565 10.4502 21.3037 12.2268 21.3089 14.0808V18.5254C21.6955 18.5254 22.0782 18.4491 22.4353 18.301C22.7923 18.1528 23.1167 17.9356 23.3896 17.6619C23.6626 17.3882 23.8789 17.0633 24.0261 16.7058C24.1734 16.3484 24.2486 15.9654 24.2476 15.5788V12.0888C24.2489 10.7635 23.9888 9.45104 23.4822 8.22643C22.9757 7.00182 22.2326 5.88912 21.2955 4.95204C20.3584 4.01495 19.2458 3.27187 18.0211 2.76532C16.7965 2.25877 15.484 1.9987 14.1588 2Z" stroke="white" stroke-width="0.8" stroke-linejoin="round"/>
<path d="M2.70642 12.0905V12.6003H2.80919V11.2328H4.1807C4.20244 11.1656 4.22023 11.0964 4.24197 11.0352H2.76176C2.72577 11.3858 2.70731 11.738 2.70642 12.0905Z" stroke="white" stroke-width="0.8" stroke-linejoin="round"/>
<path d="M14.1589 2H12.7953C11.262 1.99879 9.74871 2.34782 8.37084 3.02049C6.99298 3.69315 5.78698 4.67166 4.84485 5.88136V9.4228H4.8903C6.41992 6.34578 9.28944 4.20945 12.7953 4.20945H14.1787C19.8229 4.20945 23.8346 9.76865 23.2181 15.8832L23.0046 17.9859C23.3905 17.7145 23.705 17.354 23.9214 16.9348C24.1379 16.5157 24.2498 16.0505 24.2477 15.5788V12.0888C24.249 10.7635 23.9889 9.45104 23.4824 8.22643C22.9758 7.00182 22.2327 5.88912 21.2957 4.95204C20.3586 4.01495 19.2459 3.27187 18.0213 2.76532C16.7966 2.25877 15.4842 1.9987 14.1589 2Z" stroke="white" stroke-width="0.8" stroke-linejoin="round"/>
<path d="M7.08008 13.3518C7.08008 13.3518 9.25395 11.3913 11.9179 13.3518" stroke="white" stroke-width="0.8" stroke-linejoin="round"/>
<path d="M19.9117 13.3495C19.9117 13.3495 17.1686 11.4997 14.9296 13.3495C14.3367 13.8416 13.6153 14.7012 13.9869 16.8257C14.1035 17.5035 14.6134 19.7664 14.6134 19.7664C14.6134 19.7664 13.9987 20.5015 13.0739 20.5015" stroke="white" stroke-width="0.8" stroke-linejoin="round"/>
<path d="M7.52661 15.0117C7.52661 15.0117 9.25385 16.5631 11.3526 15.0117" stroke="white" stroke-width="0.8" stroke-linejoin="round"/>
<path d="M19.4394 15.0117C19.4394 15.0117 17.2655 16.4741 15.5007 15.0117" stroke="white" stroke-width="0.8" stroke-linejoin="round"/>
<path d="M11.7697 22.2148C11.7697 22.2148 11.8863 23.1378 13.6155 23.1378" stroke="white" stroke-width="0.8" stroke-linejoin="round"/>
<path d="M15.2201 22.2148C15.2201 22.2148 15.1035 23.1378 13.3743 23.1378" stroke="white" stroke-width="0.8" stroke-linejoin="round"/>
<path d="M7.0799 15.4394C7.0799 15.4394 8.06802 16.475 9.99091 16.5521C10.7254 16.5707 11.4556 16.4361 12.1351 16.1568C12.1351 17.2754 12.2735 18.4809 10.7024 18.8208C9.97539 18.9481 9.22701 18.8583 8.55076 18.5627C7.8745 18.2671 7.30035 17.7788 6.90006 17.1588C6.71627 16.6864 6.60955 15.1272 7.0799 15.4394Z" stroke="white" stroke-width="0.8" stroke-linejoin="round"/>
<path d="M26.6001 24.7734L26.1444 25.3376L20.7832 21.0074L21.2388 20.4432L26.6001 24.7734Z" stroke="white" stroke-width="0.8" stroke-linejoin="round"/>
<path d="M19.7457 20.1956L20.3485 19.4486C20.3823 19.4073 20.4254 19.3746 20.4743 19.3531C20.5232 19.3315 20.5764 19.3218 20.6297 19.3247C20.683 19.3276 20.7349 19.343 20.7811 19.3697C20.8274 19.3964 20.8667 19.4335 20.8959 19.4782L21.4354 20.3162L20.8208 21.0751L19.892 20.7173C19.8429 20.6984 19.7988 20.6683 19.7634 20.6294C19.728 20.5905 19.7022 20.5438 19.688 20.4932C19.6738 20.4425 19.6716 20.3892 19.6816 20.3376C19.6916 20.2859 19.7136 20.2373 19.7457 20.1956Z" stroke="white" stroke-width="0.8" stroke-linejoin="round"/>
<path d="M20.8504 19.419L19.5066 18.332" stroke="white" stroke-width="0.8" stroke-linejoin="round"/>
<path d="M20.2221 19.6096L19.1628 18.7539" stroke="white" stroke-width="0.8" stroke-linejoin="round"/>
<path d="M19.8782 20.0315L18.8209 19.1758" stroke="white" stroke-width="0.8" stroke-linejoin="round"/>
<path d="M19.8229 20.6846L18.479 19.5977" stroke="white" stroke-width="0.8" stroke-linejoin="round"/>
<path d="M5.67088 12.5938H1.98319C1.62411 12.5938 1.33301 12.8848 1.33301 13.2439V24.805C1.33301 25.1641 1.62411 25.4552 1.98319 25.4552H5.67088C6.02997 25.4552 6.32107 25.1641 6.32107 24.805V13.2439C6.32107 12.8848 6.02997 12.5938 5.67088 12.5938Z" stroke="white" stroke-width="0.8" stroke-linejoin="round"/>
<path d="M4.84494 4.71004C4.84494 4.56775 4.60977 4.45312 4.32321 4.45312H3.33508C3.04655 4.45312 2.81335 4.56775 2.81335 4.71004V9.4234H4.84494V4.71004Z" stroke="white" stroke-width="0.8" stroke-linejoin="round"/>
<path d="M2.8092 11.2266H4.84474V12.5981H2.8092V11.2266Z" stroke="white" stroke-width="0.8" stroke-linejoin="round"/>
<path d="M1.8667 9.42188H5.78561V11.0207H1.8667V9.42188Z" stroke="white" stroke-width="0.8" stroke-linejoin="round"/>
<path d="M3.29346 12.5938H4.36063V16.6925H3.29346V12.5938Z" stroke="white" stroke-width="0.8" stroke-linejoin="round"/>
<path d="M3.29346 20.2891V21.2258C3.29346 21.7851 3.53258 21.955 3.82704 21.955C4.12151 21.955 4.35866 21.7851 4.35866 21.2258V20.2891H3.29346Z" stroke="white" stroke-width="0.8" stroke-linejoin="round"/>
<path d="M1.33301 16.6992H6.32107V20.2901H1.33301V16.6992Z" stroke="white" stroke-width="0.8" stroke-linejoin="round"/>
<path d="M2.73438 17.4911C2.73568 17.5906 2.71514 17.6884 2.67539 17.7719C2.63565 17.8554 2.5785 17.9209 2.51127 17.9599C2.44404 17.9989 2.36978 18.0098 2.298 17.991C2.22622 17.9722 2.16018 17.9247 2.10834 17.8546C2.0565 17.7844 2.02122 17.6948 2.00701 17.5972C1.9928 17.4996 2.0003 17.3984 2.02857 17.3066C2.05683 17.2149 2.10457 17.1367 2.16567 17.082C2.22677 17.0274 2.29845 16.9989 2.37153 17C2.46704 17.0016 2.55835 17.0537 2.6261 17.1454C2.69384 17.2371 2.73268 17.3611 2.73438 17.4911ZM3.99997 17C3.92734 17 3.85634 17.0294 3.79596 17.0843C3.73557 17.1392 3.6885 17.2173 3.6607 17.3087C3.63291 17.4 3.62564 17.5006 3.63981 17.5976C3.65398 17.6945 3.68895 17.7836 3.74031 17.8536C3.79167 17.9235 3.8571 17.9711 3.92833 17.9904C3.99956 18.0097 4.0734 17.9998 4.1405 17.9619C4.2076 17.9241 4.26495 17.86 4.3053 17.7778C4.34565 17.6956 4.36719 17.5989 4.36719 17.5C4.36662 17.3677 4.32774 17.2409 4.259 17.1473C4.19026 17.0537 4.09719 17.0008 3.99997 17ZM5.6306 17C5.55806 17.0006 5.48728 17.0304 5.42718 17.0857C5.36708 17.141 5.32035 17.2193 5.29289 17.3107C5.26543 17.4021 5.25847 17.5026 5.27289 17.5994C5.2873 17.6962 5.32245 17.785 5.37389 17.8546C5.42533 17.9242 5.49077 17.9715 5.56194 17.9906C5.63311 18.0097 5.70684 17.9996 5.77381 17.9617C5.84078 17.9237 5.89801 17.8596 5.93826 17.7775C5.97852 17.6953 6 17.5988 6 17.5C6 17.4341 5.99043 17.3688 5.97184 17.308C5.95325 17.2471 5.926 17.1919 5.89167 17.1454C5.85734 17.099 5.8166 17.0622 5.7718 17.0372C5.72699 17.0123 5.679 16.9996 5.6306 17Z" fill="white"/>
<path d="M19.6888 15.0434C19.6888 15.0434 18.7729 16.1551 16.9886 16.2377C16.3084 16.258 15.632 16.1137 15.0029 15.8142C15.0029 17.0127 14.8746 18.3044 16.3292 18.6686C16.4431 18.6906 16.5581 18.7048 16.6736 18.711C16.7671 18.7134 16.857 18.753 16.9282 18.8232C17.0025 18.8934 17.0588 18.9857 17.0911 19.0902C17.1234 19.1947 17.1304 19.3073 17.1114 19.4161C17.0161 19.973 16.4757 21 17.2304 21C17.9394 21 17.7672 19.9815 17.6719 19.4246C17.639 19.2361 17.6115 19.0942 17.6023 18.9799C17.5936 18.8967 17.611 18.8127 17.6513 18.7431C17.6917 18.6736 17.7523 18.6231 17.8221 18.6008C18.6637 18.3448 19.3918 17.7336 19.8629 16.8878C20.0241 16.3817 20.123 14.7109 19.6888 15.0434Z" stroke="white" stroke-width="0.8" stroke-linejoin="round"/>
</svg>
