<svg width="20" height="20" viewBox="0 0 20 20" fill="none" xmlns="http://www.w3.org/2000/svg">
<path d="M10 19.1285C10.938 19.1285 11.8668 18.9438 12.7335 18.5848C13.6001 18.2258 14.3875 17.6997 15.0508 17.0364C15.714 16.3731 16.2402 15.5857 16.5991 14.7191C16.9581 13.8525 17.1429 12.9237 17.1429 11.9857V8.01422C17.143 6.25949 16.4971 4.56611 15.3286 3.25708" stroke="#C69459" stroke-linecap="round" stroke-linejoin="round"/>
<path d="M2.85718 9.59998V11.9857C2.8567 13.3918 3.27125 14.7668 4.04889 15.9383C4.82652 17.1099 5.93263 18.0258 7.22861 18.5714" stroke="#C69459" stroke-linecap="round" stroke-linejoin="round"/>
<path d="M13.5714 1.82853C11.9309 0.881369 9.98124 0.624693 8.15144 1.11496C6.32163 1.60523 4.76152 2.80229 3.81429 4.44281C3.42425 5.11643 3.14907 5.85027 3 6.61424" stroke="#C69459" stroke-linecap="round" stroke-linejoin="round"/>
<path d="M9.2572 5.01419C9.78263 4.90511 10.3258 4.91535 10.8468 5.04416C11.3677 5.17297 11.8531 5.41707 12.2671 5.75845C12.6812 6.09983 13.0133 6.52978 13.2391 7.01662C13.4648 7.50345 13.5784 8.03475 13.5715 8.57133V10.8713" stroke="#C69459" stroke-linecap="round" stroke-linejoin="round"/>
<path d="M12.6571 13.8714C12.1711 14.4128 11.5312 14.7929 10.8232 14.9607C10.1152 15.1285 9.37289 15.0761 8.69552 14.8104C8.01815 14.5447 7.43808 14.0785 7.03294 13.4741C6.62781 12.8698 6.41694 12.156 6.42856 11.4285V8.57139C6.42584 8.08075 6.52305 7.59468 6.71427 7.14282" stroke="#C69459" stroke-linecap="round" stroke-linejoin="round"/>
<path d="M10 8.72852V11.1142" stroke="#C69459" stroke-linecap="round" stroke-linejoin="round"/>
</svg>
