<svg width="40" height="40" viewBox="0 0 40 40" fill="none" xmlns="http://www.w3.org/2000/svg">
<path d="M15.7737 1V7.34275L13.9593 8.23263C12.4966 8.97488 10.9452 9.52737 9.34268 9.8767C7.55437 10.2505 5.94863 11.227 4.79407 12.6429C3.63952 14.0588 3.00618 15.8283 3 17.6552V38.9524" stroke="#C69459" stroke-linejoin="round"/>
<path d="M35.6191 30.0315V17.6552C35.6133 15.8957 35.0254 14.1875 33.9472 12.797C32.8689 11.4066 31.3609 10.4119 29.6582 9.96821C27.8101 9.52183 26.0126 8.8874 24.2938 8.07485L22.8296 7.35853V1" stroke="#C69459" stroke-linejoin="round"/>
<path d="M10.1694 19.9702V38.9511" stroke="#C69459" stroke-linejoin="round"/>
<path d="M22.2332 34.5635C27.4598 34.5635 31.6967 30.3265 31.6967 25.0999C31.6967 19.8732 27.4598 15.6362 22.2332 15.6362C17.0066 15.6362 12.7697 19.8732 12.7697 25.0999C12.7697 30.3265 17.0066 34.5635 22.2332 34.5635Z" stroke="#C69459" stroke-linejoin="round"/>
<path d="M22.2333 31.8266C25.9489 31.8266 28.9609 28.8145 28.9609 25.0988C28.9609 21.3832 25.9489 18.3711 22.2333 18.3711C18.5177 18.3711 15.5056 21.3832 15.5056 25.0988C15.5056 28.8145 18.5177 31.8266 22.2333 31.8266Z" stroke="#C69459" stroke-linejoin="round"/>
<path d="M35.6159 35.8464L30.567 30.7975C30.4139 30.6436 30.2329 30.5205 30.0337 30.4346C29.3704 31.4014 28.5337 32.237 27.566 32.8991C27.6542 33.0971 27.7771 33.2777 27.9289 33.4324L32.9778 38.4813C33.3139 38.8136 33.7675 38.9999 34.2401 38.9999C34.7126 38.9999 35.1662 38.8136 35.5023 38.4813L35.6001 38.3804C35.9373 38.0459 36.1283 37.5916 36.1312 37.1167C36.1342 36.6417 35.9489 36.185 35.6159 35.8464Z" stroke="#C69459" stroke-linejoin="round"/>
<path d="M30.138 14.7835C30.6591 14.7835 31.0815 14.3611 31.0815 13.84C31.0815 13.3189 30.6591 12.8965 30.138 12.8965C29.6169 12.8965 29.1945 13.3189 29.1945 13.84C29.1945 14.3611 29.6169 14.7835 30.138 14.7835Z" stroke="#C69459" stroke-linejoin="round"/>
<path d="M23.7447 12.4369C24.2658 12.4369 24.6882 12.0144 24.6882 11.4933C24.6882 10.9722 24.2658 10.5498 23.7447 10.5498C23.2236 10.5498 22.8011 10.9722 22.8011 11.4933C22.8011 12.0144 23.2236 12.4369 23.7447 12.4369Z" stroke="#C69459" stroke-linejoin="round"/>
<path d="M13.2461 13.8416C13.7672 13.8416 14.1896 13.4192 14.1896 12.8981C14.1896 12.377 13.7672 11.9546 13.2461 11.9546C12.725 11.9546 12.3026 12.377 12.3026 12.8981C12.3026 13.4192 12.725 13.8416 13.2461 13.8416Z" stroke="#C69459" stroke-linejoin="round"/>
<path d="M20.1442 24.5667C20.6653 24.5667 21.0877 24.1443 21.0877 23.6232C21.0877 23.1021 20.6653 22.6797 20.1442 22.6797C19.6231 22.6797 19.2007 23.1021 19.2007 23.6232C19.2007 24.1443 19.6231 24.5667 20.1442 24.5667Z" stroke="#C69459" stroke-linejoin="round"/>
<path d="M24.0729 23.8309C24.594 23.8309 25.0164 23.4085 25.0164 22.8874C25.0164 22.3663 24.594 21.9438 24.0729 21.9438C23.5518 21.9438 23.1294 22.3663 23.1294 22.8874C23.1294 23.4085 23.5518 23.8309 24.0729 23.8309Z" stroke="#C69459" stroke-linejoin="round"/>
<path d="M23.1767 28.7064C23.6978 28.7064 24.1202 28.284 24.1202 27.7629C24.1202 27.2418 23.6978 26.8193 23.1767 26.8193C22.6556 26.8193 22.2332 27.2418 22.2332 27.7629C22.2332 28.284 22.6556 28.7064 23.1767 28.7064Z" stroke="#C69459" stroke-linejoin="round"/>
<path d="M7.48721 18.9881C8.0083 18.9881 8.43073 18.5657 8.43073 18.0446C8.43073 17.5235 8.0083 17.1011 7.48721 17.1011C6.96613 17.1011 6.5437 17.5235 6.5437 18.0446C6.5437 18.5657 6.96613 18.9881 7.48721 18.9881Z" stroke="#C69459" stroke-linejoin="round"/>
<path d="M6.54361 32.7679C7.0647 32.7679 7.48712 32.3455 7.48712 31.8244C7.48712 31.3033 7.0647 30.8809 6.54361 30.8809C6.02252 30.8809 5.6001 31.3033 5.6001 31.8244C5.6001 32.3455 6.02252 32.7679 6.54361 32.7679Z" stroke="#C69459" stroke-linejoin="round"/>
<path d="M7.48721 27.2454C8.0083 27.2454 8.43073 26.823 8.43073 26.3019C8.43073 25.7808 8.0083 25.3584 7.48721 25.3584C6.96613 25.3584 6.5437 25.7808 6.5437 26.3019C6.5437 26.823 6.96613 27.2454 7.48721 27.2454Z" stroke="#C69459" stroke-linejoin="round"/>
<path d="M18.03 35.3086C19.1733 35.7823 20.3886 36.0586 21.6242 36.1259" stroke="#C69459" stroke-linejoin="round"/>
<path d="M11.52 27.7852C12.1769 30.3709 13.7458 32.6324 15.9378 34.1532" stroke="#C69459" stroke-linejoin="round"/>
</svg>
