<svg width="28" height="28" viewBox="0 0 28 28" fill="none" xmlns="http://www.w3.org/2000/svg">
<path d="M15.26 20.9158C13.1546 21.6177 10.7683 21.5965 9.50503 20.1929C8.24174 18.7892 5.99395 18.6854 5.15176 19.268C4.30956 19.8506 3.92884 19.9102 4.14997 18.8065C6.4362 12.8458 7.53414 10.9729 7.53414 10.9729C8.08425 10.7652 8.65988 10.6326 9.24545 10.5787C10.1896 10.4999 10.6299 10.0788 10.6107 9.57696C10.5914 9.0751 9.38197 8.87513 8.48209 9.45582C8.48209 9.45582 10.2261 6.8677 10.4684 6.68695C10.7106 6.50621 12.1739 4.98141 14.6409 5.50249C17.1079 6.02358 19.048 9.32122 19.0499 11.4806C19.0499 12.8496 18.7923 14.9147 18.7923 14.9147" stroke="white" stroke-width="0.8" stroke-linejoin="round"/>
<path d="M12.4739 10.6441C12.5451 10.2095 13.3565 9.62114 15.1024 10.1211C16.8484 10.621 17.1887 12.39 16.7272 12.7111C16.2658 13.0322 12.3528 11.3863 12.4739 10.6441Z" stroke="white" stroke-width="0.8" stroke-linejoin="round"/>
<path d="M6.39393 16.3408C6.29586 15.5236 7.30919 15.0083 8.21292 14.9275C9.11665 14.8467 11.2491 15.264 11.4702 16.7619C11.7548 18.6732 9.26855 16.9099 8.51096 16.7292C7.57839 16.5061 6.51507 17.3445 6.39393 16.3408Z" stroke="white" stroke-width="0.8" stroke-linejoin="round"/>
<path d="M2.78476 12.3532C3.09804 12.3532 3.35199 12.0993 3.35199 11.786C3.35199 11.4727 3.09804 11.2188 2.78476 11.2188C2.47149 11.2188 2.21753 11.4727 2.21753 11.786C2.21753 12.0993 2.47149 12.3532 2.78476 12.3532Z" stroke="white" stroke-width="0.8" stroke-linejoin="round"/>
<path d="M12.3277 3.4665C12.641 3.4665 12.895 3.21254 12.895 2.89926C12.895 2.58599 12.641 2.33203 12.3277 2.33203C12.0145 2.33203 11.7605 2.58599 11.7605 2.89926C11.7605 3.21254 12.0145 3.4665 12.3277 3.4665Z" stroke="white" stroke-width="0.8" stroke-linejoin="round"/>
<path d="M19.7558 6.89228C20.0691 6.89228 20.3231 6.63832 20.3231 6.32504C20.3231 6.01177 20.0691 5.75781 19.7558 5.75781C19.4426 5.75781 19.1886 6.01177 19.1886 6.32504C19.1886 6.63832 19.4426 6.89228 19.7558 6.89228Z" stroke="white" stroke-width="0.8" stroke-linejoin="round"/>
<path d="M25.4607 14.5095C25.7739 14.5095 26.0279 14.2555 26.0279 13.9422C26.0279 13.629 25.7739 13.375 25.4607 13.375C25.1474 13.375 24.8934 13.629 24.8934 13.9422C24.8934 14.2555 25.1474 14.5095 25.4607 14.5095Z" stroke="white" stroke-width="0.8" stroke-linejoin="round"/>
<path d="M22.8248 13.3181C23.1381 13.3181 23.392 13.0641 23.392 12.7508C23.392 12.4376 23.1381 12.1836 22.8248 12.1836C22.5115 12.1836 22.2576 12.4376 22.2576 12.7508C22.2576 13.0641 22.5115 13.3181 22.8248 13.3181Z" stroke="white" stroke-width="0.8" stroke-linejoin="round"/>
<path d="M8.61679 3.08594L8.97059 4.1108L9.99546 4.4646L8.97059 4.82032L8.61679 5.84519L8.26107 4.82032L7.23621 4.4646L8.26107 4.1108L8.61679 3.08594Z" stroke="white" stroke-width="0.8" stroke-linejoin="round"/>
<path d="M21.9709 6.32422L22.3267 7.34908L23.3515 7.70288L22.3267 8.05861L21.9709 9.08347L21.6172 8.05861L20.5923 7.70288L21.6172 7.34908L21.9709 6.32422Z" stroke="white" stroke-width="0.8" stroke-linejoin="round"/>
<path d="M3.35215 6.75391L3.70787 7.77877L4.73273 8.13257L3.70787 8.48829L3.35215 9.51316L2.99642 8.48829L1.97156 8.13257L2.99642 7.77877L3.35215 6.75391Z" stroke="white" stroke-width="0.8" stroke-linejoin="round"/>
<path d="M16.1813 21H25.2185V22.1095C25.2185 23.0514 24.8444 23.9547 24.1783 24.6207C23.5123 25.2868 22.609 25.6609 21.6671 25.6609H19.7327C18.7908 25.6609 17.8875 25.2868 17.2215 24.6207C16.5554 23.9547 16.1813 23.0514 16.1813 22.1095V21Z" stroke="white" stroke-width="0.8" stroke-linejoin="round"/>
<path d="M16.5771 19.6992H24.5684V20.999H16.5771V19.6992Z" stroke="white" stroke-width="0.8" stroke-linejoin="round"/>
<path d="M17.0583 19.7035C17.0583 19.7035 16.0969 18.5691 17.1679 17.6442C17.1679 17.6442 16.9756 16.1059 18.3812 16.1713C18.8081 16.1905 19.7272 16.4078 20.5732 15.9483C20.9367 15.756 20.8348 15.1445 20.0118 15.0003C20.3214 14.4235 22.0173 14.3158 22.9402 15.9271C22.9402 15.9271 24.1939 16.454 23.9574 17.6442C23.9574 17.6442 25.5649 18.221 24.5689 19.7035" stroke="white" stroke-width="0.8" stroke-linejoin="round"/>
<path d="M18.7596 18.0341C18.7596 18.0341 21.5535 18.5186 23.9397 17.7188" stroke="white" stroke-width="0.8" stroke-linejoin="round"/>
<path d="M19.1886 16.2031C19.1886 16.2031 20.7749 16.7627 21.9709 16.3512" stroke="white" stroke-width="0.8" stroke-linejoin="round"/>
</svg>
