<svg width="30" height="30" viewBox="0 0 30 30" fill="none" xmlns="http://www.w3.org/2000/svg">
<path d="M16.3607 15.2109C16.6585 15.6091 17.3098 15.8843 18.0665 15.8843C18.8233 15.8843 19.4746 15.6091 19.7723 15.2109" stroke="white" stroke-linejoin="round"/>
<path d="M13.4222 12.3698C13.4222 12.3698 12.4215 11.6027 11.6316 11.5193C10.8418 11.4359 9.83896 11.6881 8.62524 12.3677" stroke="white" stroke-linejoin="round"/>
<path d="M16.1208 12.3671C16.1208 12.3671 17.1216 11.6 17.9114 11.5187C18.7013 11.4374 19.7041 11.6875 20.9157 12.3671" stroke="white" stroke-linejoin="round"/>
<path d="M16.3607 15.2109C16.6585 15.6091 17.3098 15.8843 18.0665 15.8843C18.8233 15.8843 19.4746 15.6091 19.7723 15.2109" stroke="white" stroke-linejoin="round"/>
<path d="M9.77075 15.2109C10.0685 15.6091 10.7198 15.8843 11.4766 15.8843C12.2333 15.8843 12.8846 15.6091 13.1824 15.2109" stroke="white" stroke-linejoin="round"/>
<path d="M10.5441 4.01173C10.5441 4.01173 12.5166 3.98463 12.5166 6.38613" stroke="white" stroke-linejoin="round"/>
<path d="M12.8107 20.6289C13.1332 21.0625 13.89 21.3669 14.7708 21.3669C15.6516 21.3669 16.4105 21.0625 16.733 20.6289" stroke="white" stroke-linejoin="round"/>
<path d="M4 27.5019V10.8686C4 5.42776 8.83211 1 14.7704 1C20.7087 1 25.5429 5.42776 25.5429 10.8686V27.5019" stroke="white" stroke-linejoin="round"/>
<path d="M7.22589 14.1349C7.20246 13.6944 7.19074 13.2434 7.19074 12.782C7.19074 9.09011 10.5858 6.10075 14.7687 6.10075C18.9516 6.10075 22.3508 9.09428 22.3508 12.7862C22.3508 13.2531 22.3384 13.7013 22.3198 14.1391H22.3653V9.98234C22.3653 6.02154 18.9474 2.80078 14.7687 2.80078C10.59 2.80078 7.17627 6.03196 7.17627 9.98234V14.1412L7.22589 14.1349Z" stroke="white" stroke-linejoin="round"/>
<path d="M22.3214 14.1318C22.34 13.6941 22.3524 13.2459 22.3524 12.7789C22.3524 9.08702 18.9573 6.09766 14.7682 6.09766C10.5792 6.09766 7.19028 9.08702 7.19028 12.7789C7.19028 13.2417 7.202 13.6927 7.22543 14.1318C6.34875 14.2486 5.77808 14.6155 5.77808 15.7203C5.78823 16.3745 5.98992 17.011 6.3578 17.5499C6.72568 18.0888 7.24334 18.5061 7.84573 18.7493C8.20915 18.2627 8.67803 17.8663 9.21659 17.5902C9.72133 17.3078 10.2806 17.1385 10.8562 17.0941C11.0412 17.0831 11.2268 17.0964 11.4083 17.1337C11.4308 17.139 11.4519 17.1493 11.4702 17.1637C11.4884 17.1781 11.5032 17.1963 11.5138 17.2171L12.0534 18.2385C12.0636 18.2596 12.069 18.2828 12.069 18.3063C12.069 18.3298 12.0636 18.353 12.0534 18.374C11.8466 18.9202 11.2553 19.5227 10.4551 19.9521C9.89668 20.2671 9.26921 20.4369 8.62937 20.4462C9.34357 21.8183 10.3531 23.0121 11.584 23.94C11.4428 23.5707 11.3254 23.1926 11.2325 22.8081L12.3615 22.1827C13.0316 22.9264 13.601 23.7564 14.0549 24.6509C14.1728 24.8781 14.2761 25.0866 14.3712 25.2888C14.5029 25.3132 14.6364 25.3265 14.7703 25.3284C16.3603 25.3284 20.4915 23.3125 21.6804 18.7451C22.2865 18.5042 22.8081 18.0874 23.1792 17.5475C23.5502 17.0076 23.7539 16.3687 23.7646 15.712C23.7646 14.6175 23.196 14.2506 22.3214 14.1318ZM12.3325 22.1952L11.278 22.7601C11.2637 22.768 11.2479 22.773 11.2317 22.7747C11.2154 22.7763 11.199 22.7747 11.1833 22.7698C11.1677 22.765 11.1532 22.757 11.1407 22.7464C11.1282 22.7357 11.118 22.7227 11.1106 22.708L10.8397 22.1785C10.7539 22.0086 10.7377 21.8116 10.7945 21.6297C10.8513 21.4479 10.9767 21.2958 11.1436 21.2062C11.3105 21.1166 11.5056 21.0967 11.687 21.1506C11.8683 21.2046 12.0215 21.3281 12.1134 21.4947L12.3946 22.0263C12.4015 22.0415 12.4054 22.0579 12.4061 22.0746C12.4067 22.0914 12.4041 22.108 12.3983 22.1237C12.3925 22.1394 12.3838 22.1538 12.3725 22.1661C12.3612 22.1783 12.3476 22.1882 12.3325 22.1952Z" stroke="white" stroke-linejoin="round"/>
<path d="M11.5244 17.2166L12.062 18.238C12.0722 18.2591 12.0776 18.2823 12.0776 18.3058C12.0776 18.3293 12.0722 18.3524 12.062 18.3735C11.8552 18.9197 11.2639 19.5222 10.4637 19.9516C9.66353 20.381 8.84267 20.5332 8.272 20.406C8.24938 20.401 8.2281 20.3911 8.20956 20.3771C8.19102 20.363 8.17565 20.3452 8.16448 20.3247L7.62689 19.3033C7.61681 19.2821 7.61157 19.259 7.61157 19.2355C7.61157 19.2121 7.61681 19.1889 7.62689 19.1678C7.83365 18.6195 8.425 18.0191 9.22519 17.5897C9.72993 17.3072 10.2892 17.138 10.8648 17.0936C11.0498 17.0826 11.2354 17.0959 11.4169 17.1332C11.4396 17.1387 11.4609 17.149 11.4794 17.1634C11.4979 17.1778 11.5133 17.1959 11.5244 17.2166Z" stroke="white" stroke-linejoin="round"/>
<path d="M14.018 28.0438C13.3528 27.3002 12.7896 26.47 12.3432 25.5755C11.8652 24.7022 11.4991 23.7713 11.2535 22.8051L12.3825 22.1797C13.0453 22.9247 13.6077 23.7546 14.0552 24.6479C14.5409 25.5202 14.9088 26.454 15.149 27.4246L14.018 28.0438Z" stroke="white" stroke-linejoin="round"/>
<path d="M11.1276 21.1932C10.9605 21.2857 10.8365 21.4411 10.7827 21.6254C10.7288 21.8098 10.7495 22.0081 10.8402 22.1771L11.1214 22.7066C11.1288 22.7213 11.1391 22.7344 11.1516 22.745C11.1641 22.7556 11.1786 22.7636 11.1942 22.7685C11.2098 22.7733 11.2263 22.775 11.2425 22.7733C11.2588 22.7716 11.2746 22.7667 11.2889 22.7588L12.3434 22.1938C12.3721 22.1779 12.3935 22.1514 12.4031 22.1199C12.4128 22.0884 12.4099 22.0544 12.3951 22.025L12.1139 21.4934C12.0694 21.4077 12.0084 21.3319 11.9344 21.2703C11.8605 21.2086 11.7751 21.1625 11.6833 21.1346C11.5914 21.1066 11.495 21.0974 11.3996 21.1075C11.3042 21.1175 11.2117 21.1467 11.1276 21.1932Z" stroke="white" stroke-linejoin="round"/>
<path d="M15.271 29.0417C15.1021 29.1323 14.9044 29.1516 14.7214 29.0953C14.5384 29.039 14.385 28.9118 14.2951 28.7415L14.0139 28.2099C13.9991 28.1805 13.9962 28.1465 14.0059 28.115C14.0155 28.0834 14.0369 28.057 14.0655 28.0411L15.12 27.4761C15.1344 27.4682 15.1501 27.4632 15.1664 27.4616C15.1827 27.4599 15.1991 27.4615 15.2147 27.4664C15.2304 27.4713 15.2449 27.4792 15.2574 27.4899C15.2699 27.5005 15.2801 27.5135 15.2875 27.5282L15.5687 28.0577C15.6586 28.228 15.6778 28.4273 15.6219 28.6119C15.5661 28.7964 15.4399 28.951 15.271 29.0417Z" stroke="white" stroke-linejoin="round"/>
<path d="M7.9553 19.9102C7.9553 19.9102 7.37015 20.1186 7.4756 20.6314C7.58106 21.1443 8.24477 23.0204 10.7528 21.9427" stroke="white" stroke-linejoin="round"/>
<path d="M11.8737 17.7724C11.8737 17.7724 12.3575 17.3847 12.7338 17.7516C13.1101 18.1185 14.3238 19.684 12.0784 21.2433" stroke="white" stroke-linejoin="round"/>
</svg>
