<svg width="14" height="14" viewBox="0 0 14 14" fill="none" xmlns="http://www.w3.org/2000/svg">
<g clip-path="url(#clip0_1582_54)">
<path d="M-291 0C-291 7.73199 -284.732 14 -277 14H-291V0ZM-14 -46C-6.26801 -46 -5.15406e-07 -39.732 0 -32V0C3.2215e-08 7.73199 6.26801 14 14 14H-40C-28.9543 14 -20 5.04569 -20 -6C-20 -17.0457 -28.9543 -26 -40 -26C-51.0457 -26 -60 -17.0457 -60 -6C-60 5.04569 -51.0457 14 -40 14H-94C-82.9543 14 -74 5.04569 -74 -6C-74 -17.0457 -82.9543 -26 -94 -26C-105.046 -26 -114 -17.0457 -114 -6C-114 5.04569 -105.046 14 -94 14H-148C-136.954 14 -128 5.04569 -128 -6C-128 -17.0457 -136.954 -26 -148 -26C-159.046 -26 -168 -17.0457 -168 -6C-168 5.04569 -159.046 14 -148 14H-202C-194.268 14 -188 7.73199 -188 0V-32C-188 -39.732 -181.732 -46 -174 -46H-14ZM102 14H88C95.732 14 102 7.73198 102 0V14ZM-148 -25C-137.507 -25 -129 -16.4934 -129 -6C-129 4.49341 -137.507 13 -148 13C-158.493 13 -167 4.49341 -167 -6C-167 -16.4934 -158.493 -25 -148 -25ZM-40 -25C-29.5066 -25 -21 -16.4934 -21 -6C-21 4.49341 -29.5066 13 -40 13C-50.4934 13 -59 4.49341 -59 -6C-59 -16.4934 -50.4934 -25 -40 -25ZM-145.143 -16C-149.151 -15.9998 -151 -14.0272 -151 -9.77344V-8.12891H-153.475V-4.30859H-151V4H-146.649V-4.30859H-143.406L-142.73 -8.12891H-146.649V-9.48047C-146.649 -11.4998 -145.888 -12.2733 -143.924 -12.2734C-143.313 -12.2734 -142.821 -12.2578 -142.536 -12.2266V-15.6914C-143.073 -15.8437 -144.385 -16 -145.143 -16ZM-40 -15.6875C-45.3398 -15.6875 -49.6875 -11.3398 -49.6875 -6C-49.6875 -0.660156 -45.3398 3.6875 -40 3.6875C-34.6602 3.6875 -30.3125 -0.660156 -30.3125 -6C-30.3125 -11.3398 -34.6602 -15.6875 -40 -15.6875ZM-38.5312 -4.64844C-37.3711 -1.62891 -36.8906 0.902343 -36.7656 1.625C-39.4254 2.75765 -42.6242 2.44944 -45.0771 0.536133C-44.2128 -1.22911 -41.8655 -3.5084 -38.5312 -4.64844ZM-36.9844 -5.02734C-34.3906 -5.44141 -32.1133 -4.76172 -31.832 -4.67188C-32.1992 -2.37109 -33.5234 -0.382813 -35.3789 0.875L-35.375 0.871094C-35.4609 0.367188 -35.8984 -2.05469 -36.9844 -5.02734ZM-39.7656 -7.41797C-39.5273 -6.95313 -39.3008 -6.48437 -39.0938 -6.01562C-42.0859 -5.17187 -44.8047 -2.75391 -46.1445 -0.457031C-47.4687 -1.92187 -48.2734 -3.86328 -48.2734 -5.98828C-48.2734 -6.07422 -48.2734 -6.15625 -48.2695 -6.24219C-47.9062 -6.23437 -43.8984 -6.18359 -39.7656 -7.41797ZM-33.5938 -11.2188C-32.4414 -9.8125 -31.7422 -8.01562 -31.7266 -6.0625C-32 -6.12109 -34.7344 -6.67578 -37.4883 -6.32812C-37.7148 -6.875 -37.9258 -7.35938 -38.2148 -7.95312C-35.1562 -9.20312 -33.7695 -10.9805 -33.5938 -11.2148V-11.2188ZM-43.5195 -13.4766C-43.3008 -13.1758 -41.8242 -11.1289 -40.4531 -8.69141C-44.3242 -7.66406 -47.7344 -7.67969 -48.1016 -7.68359C-47.5625 -10.25 -45.832 -12.3828 -43.5195 -13.4766ZM-41.9375 -14.0312C-39.3125 -14.6641 -36.5469 -13.9805 -34.5117 -12.1758H-34.5156C-34.6641 -11.9648 -35.9102 -10.2891 -38.8516 -9.1875C-40.207 -11.6797 -41.7109 -13.7266 -41.9375 -14.0312ZM-277 -336C-284.732 -336 -291 -329.732 -291 -322V-336H-277ZM102 -322C102 -329.732 95.732 -336 88 -336H102V-322Z" fill="#D9D9D9"/>
</g>
<defs>
<clipPath id="clip0_1582_54">
<rect width="14" height="14" fill="white"/>
</clipPath>
</defs>
</svg>
