<svg width="50" height="50" viewBox="0 0 50 50" fill="none" xmlns="http://www.w3.org/2000/svg">
<circle cx="25" cy="25" r="25" fill="#C69459"/>
<path d="M20.8468 25.1775C19.2237 23.5103 11.6489 21.3302 10.1471 20.9098C9.83316 20.8219 9.49677 20.9133 9.26604 21.1502C9.0357 21.3872 8.94636 21.7322 9.03189 22.0551C9.44088 23.5974 11.5642 31.376 13.1872 33.0432C14.0923 33.9726 15.6055 34.6916 17.1366 34.9192C17.4942 34.9723 17.8413 34.9989 18.1769 34.9989C19.5426 34.9989 20.705 34.5625 21.5154 33.7302C22.5249 32.6934 22.9362 31.0965 22.6736 29.2333C22.452 27.6613 21.7518 26.1073 20.8468 25.1775ZM17.3973 33.0728C16.2524 32.9027 15.1045 32.3733 14.4724 31.7242C13.9911 31.23 12.7258 28.4885 11.2209 23.1578C16.4117 24.7036 19.0812 26.0027 19.5624 26.4969C20.5765 27.5384 21.3113 30.0078 20.7263 31.6004L16.9408 27.7129C16.5862 27.3487 16.011 27.3487 15.656 27.7129C15.301 28.0775 15.301 28.6677 15.656 29.0323L19.4381 32.9167C18.8786 33.1302 18.1758 33.1884 17.3973 33.0728Z" fill="white"/>
<path d="M40.734 21.1521C40.5033 20.9156 40.1669 20.8238 39.853 20.9117C38.3511 21.3321 30.7767 23.5122 29.1533 25.1794C28.2482 26.1089 27.5485 27.6629 27.3265 29.2352C27.0638 31.0984 27.4751 32.6953 28.4847 33.7321C29.2951 34.5643 30.4574 35.0008 31.8232 35.0008C32.1584 35.0008 32.5058 34.9746 32.8635 34.9211C34.3946 34.6936 35.9078 33.9745 36.8128 33.0451C38.4359 31.3783 40.5592 23.5993 40.9682 22.057C41.0537 21.7337 40.9644 21.3887 40.734 21.1521ZM35.5277 31.7257C34.8956 32.3748 33.7476 32.9042 32.6028 33.0744C31.8239 33.1899 31.1211 33.1318 30.562 32.9174L34.344 29.033C34.6987 28.6688 34.6987 28.0782 34.344 27.7136C33.9894 27.3494 33.4143 27.3494 33.0593 27.7136L29.2738 31.6012C28.6888 30.0085 29.4235 27.5395 30.4377 26.498C30.9189 26.0039 33.5884 24.7047 38.7791 23.1589C37.2739 28.4896 36.0089 31.2315 35.5277 31.7257Z" fill="white"/>
<path d="M29.7017 19.8287C29.7017 17.1661 27.5925 15 24.9998 15C22.4071 15 20.2979 17.1661 20.2979 19.8287C20.2979 22.4913 22.4071 24.6574 24.9998 24.6574C27.5929 24.6574 29.7017 22.4913 29.7017 19.8287ZM24.9998 22.7919C23.409 22.7919 22.1148 21.4627 22.1148 19.8291C22.1148 18.1955 23.409 16.8663 24.9998 16.8663C26.5909 16.8663 27.8852 18.1955 27.8852 19.8291C27.8852 21.4627 26.5909 22.7919 24.9998 22.7919Z" fill="white"/>
</svg>
