<svg width="151" height="50" viewBox="0 0 151 50" fill="none" xmlns="http://www.w3.org/2000/svg">
<circle cx="25" cy="25" r="25" fill="#C69459"/>
<path d="M20.8468 25.1775C19.2237 23.5103 11.6489 21.3302 10.1471 20.9098C9.83316 20.8219 9.49677 20.9133 9.26604 21.1502C9.0357 21.3872 8.94636 21.7322 9.03189 22.0551C9.44088 23.5974 11.5642 31.376 13.1872 33.0432C14.0923 33.9726 15.6055 34.6916 17.1366 34.9192C17.4942 34.9723 17.8413 34.9989 18.1769 34.9989C19.5426 34.9989 20.705 34.5625 21.5154 33.7302C22.5249 32.6934 22.9362 31.0965 22.6736 29.2333C22.452 27.6613 21.7518 26.1073 20.8468 25.1775ZM17.3973 33.0728C16.2524 32.9027 15.1045 32.3733 14.4724 31.7242C13.9911 31.23 12.7258 28.4885 11.2209 23.1578C16.4117 24.7036 19.0812 26.0027 19.5624 26.4969C20.5765 27.5384 21.3113 30.0078 20.7263 31.6004L16.9408 27.7129C16.5862 27.3487 16.011 27.3487 15.656 27.7129C15.301 28.0775 15.301 28.6677 15.656 29.0323L19.4381 32.9167C18.8786 33.1302 18.1758 33.1884 17.3973 33.0728Z" fill="white"/>
<path d="M40.734 21.1521C40.5033 20.9156 40.1669 20.8238 39.853 20.9117C38.3511 21.3321 30.7767 23.5122 29.1533 25.1794C28.2482 26.1089 27.5485 27.6629 27.3265 29.2352C27.0638 31.0984 27.4751 32.6953 28.4847 33.7321C29.2951 34.5643 30.4574 35.0008 31.8232 35.0008C32.1584 35.0008 32.5058 34.9746 32.8635 34.9211C34.3946 34.6936 35.9078 33.9745 36.8128 33.0451C38.4359 31.3783 40.5592 23.5993 40.9682 22.057C41.0537 21.7337 40.9644 21.3887 40.734 21.1521ZM35.5277 31.7257C34.8956 32.3748 33.7476 32.9042 32.6028 33.0744C31.8239 33.1899 31.1211 33.1318 30.562 32.9174L34.344 29.033C34.6987 28.6688 34.6987 28.0782 34.344 27.7136C33.9894 27.3494 33.4143 27.3494 33.0593 27.7136L29.2738 31.6012C28.6888 30.0085 29.4235 27.5395 30.4377 26.498C30.9189 26.0039 33.5884 24.7047 38.7791 23.1589C37.2739 28.4896 36.0089 31.2315 35.5277 31.7257Z" fill="white"/>
<path d="M29.7017 19.8287C29.7017 17.1661 27.5925 15 24.9998 15C22.4071 15 20.2979 17.1661 20.2979 19.8287C20.2979 22.4913 22.4071 24.6574 24.9998 24.6574C27.5929 24.6574 29.7017 22.4913 29.7017 19.8287ZM24.9998 22.7919C23.409 22.7919 22.1148 21.4627 22.1148 19.8291C22.1148 18.1955 23.409 16.8663 24.9998 16.8663C26.5909 16.8663 27.8852 18.1955 27.8852 19.8291C27.8852 21.4627 26.5909 22.7919 24.9998 22.7919Z" fill="white"/>
<path d="M65.896 34V17.032H72.16C73.936 17.032 75.44 17.376 76.672 18.064C77.904 18.736 78.84 19.712 79.48 20.992C80.136 22.256 80.464 23.776 80.464 25.552C80.464 27.296 80.144 28.8 79.504 30.064C78.88 31.328 77.952 32.304 76.72 32.992C75.488 33.664 73.976 34 72.184 34H65.896ZM68.896 31.264H72.112C73.376 31.264 74.392 31.024 75.16 30.544C75.944 30.048 76.512 29.376 76.864 28.528C77.232 27.664 77.416 26.664 77.416 25.528C77.416 24.424 77.24 23.44 76.888 22.576C76.536 21.712 75.968 21.032 75.184 20.536C74.416 20.024 73.4 19.768 72.136 19.768H68.896V31.264ZM88.5175 34.168C87.2055 34.168 86.0855 33.896 85.1575 33.352C84.2455 32.808 83.5495 32.056 83.0695 31.096C82.6055 30.12 82.3735 28.992 82.3735 27.712C82.3735 26.432 82.6135 25.304 83.0935 24.328C83.5895 23.336 84.2935 22.56 85.2055 22C86.1335 21.44 87.2455 21.16 88.5415 21.16C89.5015 21.16 90.3415 21.336 91.0615 21.688C91.7815 22.024 92.3815 22.488 92.8615 23.08C93.3575 23.672 93.7255 24.344 93.9655 25.096C94.2055 25.848 94.3175 26.64 94.3015 27.472C94.2855 27.664 94.2695 27.856 94.2535 28.048C94.2375 28.224 94.2135 28.416 94.1815 28.624H85.3015C85.3495 29.184 85.4935 29.696 85.7335 30.16C85.9895 30.624 86.3415 30.992 86.7895 31.264C87.2535 31.536 87.8295 31.672 88.5175 31.672C88.9175 31.672 89.3015 31.624 89.6695 31.528C90.0375 31.416 90.3575 31.256 90.6295 31.048C90.9175 30.84 91.1095 30.576 91.2055 30.256H94.1335C93.9255 31.168 93.5415 31.912 92.9815 32.488C92.4215 33.064 91.7495 33.488 90.9655 33.76C90.1975 34.032 89.3815 34.168 88.5175 34.168ZM85.3495 26.44H91.4455C91.4455 25.912 91.3255 25.432 91.0855 25C90.8455 24.568 90.5015 24.232 90.0535 23.992C89.6215 23.736 89.0935 23.608 88.4695 23.608C87.7975 23.608 87.2375 23.744 86.7895 24.016C86.3415 24.288 85.9975 24.64 85.7575 25.072C85.5175 25.504 85.3815 25.96 85.3495 26.44ZM96.6348 34V21.352H99.2988L99.4668 23.008C99.7868 22.528 100.147 22.16 100.547 21.904C100.963 21.632 101.403 21.44 101.867 21.328C102.347 21.216 102.827 21.16 103.307 21.16C103.483 21.16 103.643 21.16 103.787 21.16C103.947 21.16 104.075 21.168 104.171 21.184V23.968H103.403C102.571 23.968 101.867 24.128 101.291 24.448C100.715 24.768 100.283 25.224 99.9948 25.816C99.7068 26.408 99.5628 27.136 99.5628 28V34H96.6348ZM105.893 34V21.352H108.581L108.773 22.792C109.093 22.36 109.437 22.032 109.805 21.808C110.189 21.568 110.581 21.4 110.981 21.304C111.397 21.208 111.789 21.16 112.157 21.16C112.957 21.16 113.637 21.32 114.197 21.64C114.773 21.96 115.221 22.44 115.541 23.08C115.861 22.632 116.221 22.272 116.621 22C117.021 21.712 117.445 21.504 117.893 21.376C118.341 21.232 118.813 21.16 119.309 21.16C120.285 21.16 121.069 21.368 121.661 21.784C122.253 22.184 122.685 22.744 122.957 23.464C123.229 24.168 123.365 24.976 123.365 25.888V34H120.437V26.824C120.437 26.504 120.421 26.168 120.389 25.816C120.357 25.464 120.269 25.136 120.125 24.832C119.997 24.528 119.805 24.28 119.549 24.088C119.293 23.896 118.933 23.8 118.469 23.8C118.005 23.8 117.621 23.904 117.317 24.112C117.029 24.304 116.789 24.568 116.597 24.904C116.421 25.224 116.293 25.584 116.213 25.984C116.149 26.368 116.117 26.752 116.117 27.136V34H113.189V26.8C113.189 26.496 113.165 26.176 113.117 25.84C113.085 25.488 113.005 25.16 112.877 24.856C112.765 24.536 112.573 24.28 112.301 24.088C112.045 23.896 111.685 23.8 111.221 23.8C110.549 23.8 110.037 23.984 109.685 24.352C109.349 24.72 109.117 25.168 108.989 25.696C108.877 26.224 108.821 26.728 108.821 27.208V34H105.893ZM126.072 34V21.352H129V34H126.072ZM127.536 19.888C126.976 19.888 126.528 19.72 126.192 19.384C125.856 19.048 125.688 18.608 125.688 18.064C125.688 17.536 125.864 17.104 126.216 16.768C126.568 16.416 127.008 16.24 127.536 16.24C128.048 16.24 128.488 16.408 128.856 16.744C129.224 17.08 129.408 17.52 129.408 18.064C129.408 18.608 129.232 19.048 128.88 19.384C128.528 19.72 128.08 19.888 127.536 19.888ZM130.614 34L135.078 27.544L130.854 21.352H134.262L136.998 25.6L139.662 21.352H142.998L138.774 27.616L143.31 34H139.878L136.878 29.632L133.878 34H130.614ZM146.764 34.288C146.252 34.288 145.812 34.12 145.444 33.784C145.092 33.448 144.916 32.992 144.916 32.416C144.916 31.84 145.1 31.384 145.468 31.048C145.836 30.696 146.276 30.52 146.788 30.52C147.3 30.52 147.732 30.696 148.084 31.048C148.436 31.384 148.612 31.84 148.612 32.416C148.612 32.992 148.436 33.448 148.084 33.784C147.732 34.12 147.292 34.288 146.764 34.288Z" fill="#282A23"/>
</svg>
