<svg width="322" height="192" viewBox="0 0 322 192" fill="none" xmlns="http://www.w3.org/2000/svg">
<g clip-path="url(#clip0_1573_236)">
<path d="M304.657 137.865C299.253 132.462 292.152 129.51 284.548 129.51C255.766 129.51 227.361 134.159 200.088 143.394L187.393 147.666C186.639 147.917 186.199 146.849 186.891 146.535L198.956 140.567C224.785 127.814 248.162 111.04 268.523 90.6852C273.865 85.3453 276.818 78.3719 276.881 70.9588C277.069 55.3788 264.375 42.3744 248.79 42.1231C241.061 41.9975 233.771 45.013 228.304 50.4786C207.943 70.8332 191.164 94.2033 178.407 120.023L172.437 132.085C172.06 132.777 171.054 132.337 171.306 131.583L175.579 118.893C184.817 91.6275 189.467 63.2316 189.467 34.4588C189.467 26.8572 186.514 19.6954 181.109 14.3554C175.705 8.95267 168.603 6 161 6C153.396 6 146.232 8.95267 140.89 14.3554C135.486 19.7582 132.532 26.8572 132.532 34.4588C132.532 63.2316 137.182 91.6275 146.42 118.893L150.693 131.583C150.945 132.337 149.876 132.777 149.562 132.085L143.592 120.023C130.835 94.2033 114.056 70.8332 93.6954 50.4786C88.3537 45.1386 81.3782 42.186 73.9628 42.1231C58.3151 41.9347 45.3067 54.6249 45.1182 70.205C44.9925 77.9322 48.0089 85.2196 53.4762 90.6852C73.8372 111.04 97.2145 127.814 123.043 140.567L135.108 146.535C135.8 146.912 135.36 147.917 134.606 147.666L121.912 143.394C94.638 134.159 66.2332 129.51 37.4514 129.51C29.8475 129.51 22.6834 132.462 17.3418 137.865C6.21874 148.985 6.21874 167.015 17.3418 178.135C22.7463 183.537 29.8475 186.49 37.4514 186.49C66.2332 186.49 94.638 181.841 121.912 172.606L134.606 168.334C135.36 168.083 135.8 169.151 135.108 169.465L123.043 175.433C97.2145 188.186 73.8372 204.96 53.4762 225.315C48.1346 230.655 45.181 237.628 45.1182 245.041C44.9297 260.621 57.6238 273.625 73.2087 273.877C80.9383 274.002 88.2281 270.987 93.6954 265.521C114.056 245.167 130.835 221.797 143.592 195.976L149.562 183.914C149.939 183.223 150.945 183.663 150.693 184.417L146.42 197.107C137.182 224.372 132.532 252.768 132.532 281.541C132.532 289.143 135.486 296.304 140.89 301.644C146.294 307.047 153.396 310 161 310C168.603 310 175.768 307.047 181.109 301.644C186.514 296.242 189.467 289.143 189.467 281.541C189.467 252.768 184.817 224.372 175.579 197.107L171.306 184.417C171.054 183.663 172.123 183.223 172.437 183.914L178.407 195.976C191.164 221.797 207.943 245.167 228.304 265.521C233.645 270.861 240.621 273.814 248.036 273.877C263.621 274.065 276.63 261.375 276.881 245.795C277.007 238.068 273.99 230.78 268.523 225.315C248.162 204.96 224.785 188.186 198.956 175.433L186.891 169.465C186.199 169.088 186.639 168.083 187.393 168.334L200.088 172.606C227.361 181.841 255.766 186.49 284.548 186.49C292.152 186.49 299.316 183.537 304.657 178.135C315.78 167.015 315.78 148.922 304.657 137.865Z" fill="#D9D9D9"/>
</g>
<defs>
<clipPath id="clip0_1573_236">
<rect width="322" height="192" fill="white"/>
</clipPath>
</defs>
</svg>
