<svg width="100" height="100" viewBox="0 0 100 100" fill="none" xmlns="http://www.w3.org/2000/svg">
<path d="M30.209 39.584C34.7013 39.584 38.9448 40.5892 42.7734 42.3467C35.6687 49.3416 31.2501 59.0575 31.25 69.791C31.25 80.5259 35.6686 90.2423 42.7734 97.2373C38.9435 98.9947 34.7013 100 30.209 100C13.5252 100 0 86.4748 0 69.791C0.000170215 53.1086 13.5253 39.584 30.209 39.584ZM97.2373 57.2227C98.9948 61.0563 100 65.2986 100 69.791C100 86.4748 86.4748 100 69.791 100C53.1086 99.9999 39.584 86.4747 39.584 69.791C39.584 65.2987 40.5883 61.055 42.3457 57.2227C49.3407 64.3314 59.0573 68.7499 69.791 68.75C80.526 68.75 90.2423 64.3313 97.2373 57.2227ZM69.791 0C86.4748 0 100 13.5252 100 30.209C99.9999 46.8914 86.4747 60.416 69.791 60.416C65.2987 60.416 61.055 59.4117 57.2227 57.6543C64.3314 50.6593 68.7499 40.9427 68.75 30.209C68.75 19.4741 64.3313 9.75769 57.2227 2.7627C61.0563 1.00525 65.2986 2.82414e-05 69.791 0ZM30.209 0C46.8914 0.00017 60.416 13.5253 60.416 30.209C60.416 34.7014 59.4108 38.9448 57.6533 42.7734C50.6584 35.6687 40.9424 31.2501 30.209 31.25C19.4741 31.25 9.75768 35.6686 2.7627 42.7734C1.00527 38.9435 2.86997e-05 34.7013 0 30.209C0 13.5252 13.5252 0 30.209 0Z" fill="#D9D9D9"/>
</svg>
